<svg xmlns="http://www.w3.org/2000/svg" width="401" height="257.503" viewBox="0 0 401 257.503">
  <g id="charity_illustration" transform="translate(-463 -507.249)">
    <g id="Group_259" data-name="Group 259" transform="translate(557.994 507.249)">
      <path id="Path_315" data-name="Path 315" d="M380.376,680.007a1.377,1.377,0,0,1-1-2.387l.094-.375a3.7,3.7,0,0,0-6.858-.065c-1.632,3.82-3.744,7.774-2.694,11.982a43.828,43.828,0,0,1,5.675-45.571,11.287,11.287,0,0,0,5.729-7.556c-1.4.475-3.152-.666-2.1-2.143.457-.565.919-1.125,1.376-1.69-5.328-5.675-11.677,3.244-5.812,10.9a44.149,44.149,0,0,0-4.959,7.756,18.563,18.563,0,0,0-1.108-8.622c-1.061-2.559-3.049-4.714-4.8-6.926a3.811,3.811,0,0,0-6.8,1.969c1.965.646,2.22,3.484-.027,3.872a19,19,0,0,0,10.472,15,44.319,44.319,0,0,0-2.422,18.525c-1.011-7.336-8.885-9.116-14.389-12.032a2.144,2.144,0,0,0-3.27,2.172,12.381,12.381,0,0,1,2.171,1.145,1.872,1.872,0,0,1-.87,3.417,18.9,18.9,0,0,0,17.314,11.451,45.565,45.565,0,0,0,3.061,8.935H380.1c.039-.122.074-.247.11-.368a12.427,12.427,0,0,1-3.026-.18c2.678-3.17,4.748-4.788,3.19-9.214Z" transform="translate(-315.896 -432.905)" fill="#0abb92"/>
      <path id="Path_316" data-name="Path 316" d="M688.085,680.007a1.377,1.377,0,0,0,1-2.387l-.094-.375a3.7,3.7,0,0,1,6.858-.065c1.632,3.82,3.744,7.774,2.694,11.982a43.828,43.828,0,0,0-5.675-45.571,11.287,11.287,0,0,1-5.73-7.556c1.4.475,3.152-.666,2.1-2.143-.457-.565-.919-1.125-1.376-1.69,5.328-5.675,11.677,3.244,5.812,10.9a44.154,44.154,0,0,1,4.958,7.756,18.563,18.563,0,0,1,1.108-8.622c1.061-2.559,3.049-4.714,4.8-6.926a3.811,3.811,0,0,1,6.8,1.969c-1.965.646-2.22,3.484.028,3.872a19,19,0,0,1-10.472,15,44.319,44.319,0,0,1,2.422,18.525c1.011-7.336,8.885-9.116,14.389-12.032a2.144,2.144,0,0,1,3.27,2.172,12.382,12.382,0,0,0-2.171,1.145,1.872,1.872,0,0,0,.87,3.417,18.9,18.9,0,0,1-17.314,11.451,45.559,45.559,0,0,1-3.061,8.935H688.359c-.039-.122-.075-.247-.11-.368a12.427,12.427,0,0,0,3.026-.18c-2.678-3.17-4.749-4.788-3.19-9.214Z" transform="translate(-526.125 -432.905)" fill="#0abb92"/>
      <path id="Path_317" data-name="Path 317" d="M417.623,623.173l-4.709,1.071-6.373-17.653,6.95-1.581Z" transform="translate(-251.608 -374.447)" fill="#ffb6b6"/>
      <path id="Path_318" data-name="Path 318" d="M679.813,767.191l-14.48,3.295-.042-.183a5.781,5.781,0,0,1,4.354-6.919h0l2.188-2.609,5.392.884,1.264-.288Z" transform="translate(-512.514 -513.591)" fill="#2f2e41"/>
      <path id="Path_319" data-name="Path 319" d="M609.41,426.88,612,430.956l-14.492,11.926-3.821-6.017Z" transform="translate(-367.434 -264.2)" fill="#ffb6b6"/>
      <path id="Path_320" data-name="Path 320" d="M902.328,531.565l7.961,12.536-.159.1a5.78,5.78,0,0,1-7.978-1.78h0l-3.191-1.187-.976-5.376-.695-1.094Z" transform="translate(-656.191 -371.73)" fill="#2f2e41"/>
      <path id="Path_321" data-name="Path 321" d="M503.83,383.341l-1.163-6.741,17.682-7.984,3.818-6.761a3.287,3.287,0,1,1,4.855,2.182l-6.281,9.711Z" transform="translate(-411.955 -264.246)" fill="#a0616a"/>
      <path id="Path_322" data-name="Path 322" d="M226.971,291.446l7.962-4.067,2.108,7.914-5.531,4.1Z" transform="translate(-140.471 -177.862)" fill="#75d5fd"/>
      <path id="Path_323" data-name="Path 323" d="M180.084,620.9H184.9l2.29-18.57h-7.106Z" transform="translate(-111.451 -372.789)" fill="#a0616a"/>
      <path id="Path_324" data-name="Path 324" d="M447.647,759.047v-3.264l-1.266.077-5.152.305-1.192.073-.912,10.931-.049.586h3.419l.11-.582.5-2.645,1.282,2.645.281.582h9.063a2.048,2.048,0,0,0,2.035-2.039C456.145,763.931,448.608,760.069,447.647,759.047Z" transform="translate(-372.598 -510.501)" fill="#2f2e41"/>
      <path id="Path_325" data-name="Path 325" d="M28.3,457.676l-1.122,4.682L44.7,468.915l1.656-6.91Z" transform="translate(-16.817 -283.26)" fill="#a0616a"/>
      <path id="Path_326" data-name="Path 326" d="M274.591,569.1l3.174.761.22-1.249.9-5.081.207-1.177-10.417-3.435-.559-.184-.8,3.324.54.243,2.457,1.1-2.871.63-.631.137-2.113,8.813a2.048,2.048,0,0,0,1.508,2.454C267.86,576.225,273.373,569.8,274.591,569.1Z" transform="translate(-264.644 -388.546)" fill="#2f2e41"/>
      <path id="Path_327" data-name="Path 327" d="M414.141,443.135l-6.2-2.9-12.358,14.955-7.527,1.9a3.287,3.287,0,1,0,.827,5.258l11.023-3.5Z" transform="translate(-338.064 -315.207)" fill="#a0616a"/>
      <path id="Path_328" data-name="Path 328" d="M684.016,280.991a6.642,6.642,0,1,1,6.641-6.642A6.642,6.642,0,0,1,684.016,280.991Zm0-12.521a5.879,5.879,0,1,0,5.879,5.879A5.879,5.879,0,0,0,684.016,268.47Z" transform="translate(-520.083 -208.426)" fill="#c1d3ff"/>
      <path id="Path_329" data-name="Path 329" d="M690.542,283.337h-.04a.819.819,0,0,1-.607-.315l-1.046-1.345a.819.819,0,0,1,.144-1.15l.038-.029a.819.819,0,0,1,1.15.144.6.6,0,0,0,.9.044l2.124-2.243a.82.82,0,0,1,1.158-.031l.035.033a.819.819,0,0,1,.031,1.158l-3.3,3.48a.818.818,0,0,1-.594.256Z" transform="translate(-527.078 -214.911)" fill="#c1d3ff"/>
      <path id="Path_330" data-name="Path 330" d="M597.016,491.991a6.642,6.642,0,1,1,6.642-6.642A6.642,6.642,0,0,1,597.016,491.991Zm0-12.521a5.879,5.879,0,1,0,5.879,5.879,5.879,5.879,0,0,0-5.879-5.879Z" transform="translate(-466.238 -339.016)" fill="#c1d3ff"/>
      <path id="Path_331" data-name="Path 331" d="M603.542,494.337h-.04a.819.819,0,0,1-.607-.315l-1.046-1.345a.819.819,0,0,1,.144-1.15l.038-.029a.819.819,0,0,1,1.15.144.6.6,0,0,0,.9.044l2.124-2.243a.82.82,0,0,1,1.158-.031l.035.033a.819.819,0,0,1,.031,1.158l-3.3,3.48A.818.818,0,0,1,603.542,494.337Z" transform="translate(-473.233 -345.501)" fill="#c1d3ff"/>
      <path id="Path_332" data-name="Path 332" d="M406.016,256.991a6.642,6.642,0,1,1,6.642-6.642A6.642,6.642,0,0,1,406.016,256.991Zm0-12.521a5.879,5.879,0,1,0,5.879,5.879A5.879,5.879,0,0,0,406.016,244.47Z" transform="translate(-348.026 -193.572)" fill="#c1d3ff"/>
      <path id="Path_333" data-name="Path 333" d="M412.542,259.337h-.04a.818.818,0,0,1-.607-.315l-1.046-1.345a.819.819,0,0,1,.144-1.15l.038-.029a.819.819,0,0,1,1.15.144.6.6,0,0,0,.9.044l2.124-2.243a.82.82,0,0,1,1.158-.031l.035.033a.819.819,0,0,1,.031,1.158l-3.3,3.48A.818.818,0,0,1,412.542,259.337Z" transform="translate(-355.021 -200.057)" fill="#c1d3ff"/>
      <path id="Path_334" data-name="Path 334" d="M388.616,510.6c-15.4,0-33.1-17.09-48.76-8.97-47.413,24.586-40.887-16.554-54.508-31.855l.447-.9a163.892,163.892,0,0,0,54.267,31.708c18.5,6.568,37.139,9.611,53.9,8.808l.029,1.078Q391.331,510.6,388.616,510.6Z" transform="translate(-277.454 -332.934)" fill="#c1d3ff"/>
      <ellipse id="Ellipse_108" data-name="Ellipse 108" cx="2.536" cy="2.594" rx="2.536" ry="2.594" transform="translate(86.5 55.208)" fill="#0abb92"/>
      <path id="Path_335" data-name="Path 335" d="M595.051,447.76a1.363,1.363,0,0,1-1.478-2.29A1.363,1.363,0,0,1,595.051,447.76Z" transform="translate(-467.833 -318.298)" fill="#ffb74d"/>
      <circle id="Ellipse_109" data-name="Ellipse 109" cx="4.192" cy="4.192" r="4.192" transform="translate(114.554 42.503)" fill="#ff6584"/>
      <path id="Path_336" data-name="Path 336" d="M610.444,181.816,634.3,112.149,608.1,180.982a1.312,1.312,0,1,0,2.339.834Z" transform="translate(-477.036 -112.149)" fill="#c1d3ff" opacity="0.3" style="mix-blend-mode: normal;isolation: isolate"/>
      <circle id="Ellipse_110" data-name="Ellipse 110" cx="4.079" cy="4.079" r="4.079" transform="translate(105.253 146.384)" fill="#0abb92"/>
      <path id="Path_337" data-name="Path 337" d="M377.157,511.053s-10.168,6.621-7.479,11.02c.093.152-12.145,16.315-12.145,16.315l-23.1-1.467-.814,7.732,20.567,5.957s5.032,3.7,8.919-.376,16.834-16.545,16.834-16.545l.625,25.181-6.5,34.894,9.7-.615,9.445-35.007,3.486-39.654Z" transform="translate(-307.327 -359.035)" fill="#3b7afd"/>
      <path id="Path_338" data-name="Path 338" d="M442.451,404.048l-4.276,3.24-4.873,10.4,4.686,6.365s3.942,6.832-2.368,13.448-11.155,13.682-6.1,13.43,25.5,10.151,25.639,1.628.407-15.058.407-15.058l5.363-13.6s3.195-8.114.952-10.543-5.247-5.533-5.247-5.533l-5.462-5.462h-4.932Z" transform="translate(-365.38 -291.766)" fill="#75d5fd"/>
      <path id="Path_339" data-name="Path 339" d="M467.67,352.579c9.592,5.458,1.717,19.86-8.054,14.732C450.024,361.853,457.9,347.451,467.67,352.579Z" transform="translate(-382.616 -260.282)" fill="#a0616a"/>
      <path id="Path_340" data-name="Path 340" d="M466.454,348.993c-.672.874-2.076.464-4.826,1.088a11.464,11.464,0,0,0-.321-2.767,7.791,7.791,0,0,1-1.314,3.115c-2.388.265.539,7.519-.683,12.852-1.575-11.252-4.888-8.3-3.215-6.072,1.072,1.429.357,5.715-2.857,3.572-5.3,2.521-12.858-10-4.486-15.874-.15-3.174,3.382-3.676,5.557-2.7C459.588,338.275,465.619,343.313,466.454,348.993Z" transform="translate(-376.271 -253.669)" fill="#2f2e41"/>
      <path id="Path_341" data-name="Path 341" d="M404.075,338.822c-2.136,13.13-13.582-2.415-18.964,10.507-1.692,4.679,1.211,8.027,3.048,11.911.419,3.192-3.733,4.812-4.168,7.75-.121,6.736,10.747,6.324,13.785,2.074,3.122-4.449-.606-10.418,1.27-15.193,2.637-6.63,13.362-6.679,14.3-14.393C411.533,338.9,406.667,335.95,404.075,338.822Z" transform="translate(-338.504 -251.709)" fill="#2f2e41"/>
      <path id="Path_342" data-name="Path 342" d="M455.321,337.4c-.07.029-.14.059-.2.092h0c-.059.029-.118.059-.176.092l-.018.011c-.077-.074-.154-.147-.235-.221a.851.851,0,0,0,.015.36l.011.044c.074.077.151.151.232.228.074-.055.143-.114.217-.169.044-.037.088-.074.136-.11.007-.1.018-.206.029-.327Zm2.214-4.089c-1.64-.375-2.17,1.769-2.328,2.8-.6-3.751-3.074-2.57-2.217-.011a5.731,5.731,0,0,0,1.261,2.03c.077.088.162.176.25.265-.1.515.4.382,1.077-.092a9.014,9.014,0,0,0,1.379-1.21c1.349-1.416,2.4-3.309.577-3.784Zm.051,2.111a12.853,12.853,0,0,1-1.7,1.8q-.292.265-.6.507c0,.033,0,.063-.007.088a.669.669,0,0,1-.051.1c-.206.371-.438.169-.526-.14-.007-.011-.018-.022-.026-.033a5.183,5.183,0,0,1-.761-1.008c-1.519-2.633.927-4.424.805.493a.465.465,0,0,0-.044.143.851.851,0,0,0,.015.36l.011.044c.073.077.151.151.232.228.074-.055.143-.114.217-.169.044-.037.088-.074.136-.11.007-.1.018-.206.029-.327v0c.1-.985.357-2.758.838-3.24C457.222,333.34,458.594,334.219,457.586,335.418Zm-2.265,1.978c-.07.029-.14.059-.2.092h0c-.059.029-.118.059-.176.092l-.018.011c-.077-.074-.154-.147-.235-.221a.851.851,0,0,0,.015.36l.011.044c.073.077.151.151.232.228.074-.055.143-.114.217-.169.044-.037.088-.074.136-.11.007-.1.018-.206.029-.327Z" transform="translate(-381.099 -248.999)" fill="#2f2e41"/>
      <path id="Path_343" data-name="Path 343" d="M659.3,524.137l-3.543,9.239-16.619,32.781,14.6,38.135,7.536-1.989-6.212-36.145L672.884,544.5l21.164,14.354s9.386,7.328,12.957.381,26.676-21.722,26.676-21.722l-5.716-6.1-26.607,12.452-18.364-25.848Z" transform="translate(-496.417 -363.349)" fill="#3b7afd"/>
      <path id="Path_344" data-name="Path 344" d="M693.323,407.3l-5.832-6.265-10-1.376-12.257,8.581.123,9.5,6.059,22.381s-2.308,16.08,4.138,15.918,9.96-3.375,12.586-2.721,13.787,3.439,14.494.522,4.467-.828,4.3-3.587-10.179-22.647-10.179-22.647l2.49-19.89Z" transform="translate(-512.567 -290.093)" fill="#ffb74d"/>
      <path id="Path_345" data-name="Path 345" d="M802,338.744a3.572,3.572,0,0,1-3.827,3.919l-13.411,25.505-3.6-5.527,13.708-24.071a3.592,3.592,0,0,1,7.131.175Z" transform="translate(-584.315 -250.376)" fill="#ffb6b6"/>
      <path id="Path_346" data-name="Path 346" d="M725.028,388.709s-.532,4.537,4.576,5.66,19.257-6.962,21.577-8.2c.726-.387,1.712-2.282,2.723-4.7.454-1.087.913-2.28,1.357-3.49.257-.7,1.485-.891,1.727-1.586s-.506-1.885-.288-2.536c1.033-3.09,1.765-5.541,1.765-5.541l-3.385-6.359c-4.734,2.5-7.163,8.016-8.948,14.368Z" transform="translate(-549.566 -266.758)" fill="#ffb74d"/>
      <path id="Path_347" data-name="Path 347" d="M568.459,352.642a3.572,3.572,0,0,0,4.686,2.836l19.367,21.337,2.1-6.252-19.3-19.875a3.591,3.591,0,0,0-6.86,1.954Z" transform="translate(-452.646 -258.417)" fill="#ffb6b6"/>
      <path id="Path_348" data-name="Path 348" d="M636.983,387.146s1.65,4.259-3.013,6.625-20.387-1.921-22.942-2.536c-.8-.193-2.229-1.781-3.814-3.872-.712-.939-1.455-1.979-2.187-3.04-.424-.614-1.661-.491-2.068-1.1s.018-1.951-.356-2.527c-1.774-2.733-3.1-4.923-3.1-4.923l1.686-7c5.21,1.238,8.941,5.968,12.259,11.671Z" transform="translate(-471.89 -270.972)" fill="#ffb74d"/>
      <circle id="Ellipse_111" data-name="Ellipse 111" cx="9.518" cy="9.518" r="9.518" transform="translate(160.604 88.937)" fill="#ffb6b6"/>
      <path id="Path_349" data-name="Path 349" d="M705.4,343.558a4.907,4.907,0,0,0-4.7-2.291,6.42,6.42,0,0,0-10.757-3.745,2,2,0,0,0-1.952-.2A4.117,4.117,0,0,0,686.4,338.6a9.239,9.239,0,0,0-1.293,9.4c-.223-.809.588-1.571,1.408-1.752s1.679-.01,2.51-.128c1.065-.152,2.022-.769,3.089-.908a7.032,7.032,0,0,1,2.672.343,7.245,7.245,0,0,0,2.671.359c.9-.107,2.054,3.3,2.039,5.692,0,.454.091,1.037.534,1.134.547.119.863-.636,1.383-.841a.962.962,0,0,1,1.18.628,1.569,1.569,0,0,1-.3,1.405,4.632,4.632,0,0,1-1.124.975l.214.178a1.275,1.275,0,0,0,1.609.2,3.473,3.473,0,0,0,1.155-1.316,15.48,15.48,0,0,0,2.119-5.078A7.4,7.4,0,0,0,705.4,343.558Z" transform="translate(-524.414 -250.552)" fill="#2f2e41"/>
      <path id="Path_350" data-name="Path 350" d="M750.3,447.91c-12.277,9.3-36.7,6.361-44.286,22.289-22.952,48.225-42.588,11.489-62.685,7.516l-.185-.985a163.891,163.891,0,0,0,62.4-7.487c18.713-5.934,35.409-14.762,48.281-25.518l.674.842Q752.465,446.271,750.3,447.91Z" transform="translate(-498.898 -317.365)" fill="#c1d3ff"/>
      <path id="Path_351" data-name="Path 351" d="M516,785.091c-.292.866-167.238.866-167.553,0C348.743,784.225,515.688,784.225,516,785.091Z" transform="translate(-316.509 -528.238)" fill="#ccc"/>
      <path id="Path_352" data-name="Path 352" d="M609.691,161.812l17-49.663-18.672,49.068a.935.935,0,1,0,1.667.594Z" transform="translate(-249.209 657.933) rotate(-79)" fill="#c1d3ff" opacity="0.3" style="mix-blend-mode: normal;isolation: isolate"/>
      <path id="Path_353" data-name="Path 353" d="M609.176,148.134,621.5,112.149,607.968,147.7a.677.677,0,1,0,1.208.431Z" transform="translate(51.762 -500.631) rotate(59)" fill="#c1d3ff" opacity="0.3" style="mix-blend-mode: normal;isolation: isolate"/>
    </g>
    <circle id="Ellipse_112" data-name="Ellipse 112" cx="0.811" cy="0.811" r="0.811" transform="translate(687.886 518.008)" fill="#c1d3ff"/>
    <circle id="Ellipse_113" data-name="Ellipse 113" cx="1.394" cy="1.394" r="1.394" transform="translate(512.287 563.076)" fill="#c1d3ff"/>
    <circle id="Ellipse_114" data-name="Ellipse 114" cx="2.755" cy="2.755" r="2.755" transform="translate(507.955 634.491)" fill="#c1d3ff"/>
    <circle id="Ellipse_115" data-name="Ellipse 115" cx="1.836" cy="1.836" r="1.836" transform="translate(765.452 521.846)" fill="#c1d3ff"/>
    <circle id="Ellipse_116" data-name="Ellipse 116" cx="2.981" cy="2.981" r="2.981" transform="translate(858.038 626.159)" fill="#c1d3ff"/>
    <circle id="Ellipse_117" data-name="Ellipse 117" cx="1.279" cy="1.279" r="1.279" transform="translate(836.431 561.694)" fill="#c1d3ff"/>
    <circle id="Ellipse_118" data-name="Ellipse 118" cx="1.995" cy="1.995" r="1.995" transform="translate(602.785 539.067)" fill="#c1d3ff"/>
    <circle id="Ellipse_119" data-name="Ellipse 119" cx="1.279" cy="1.279" r="1.279" transform="translate(831.955 621.816)" fill="#c1d3ff"/>
    <circle id="Ellipse_120" data-name="Ellipse 120" cx="1.592" cy="1.592" r="1.592" transform="translate(463 626.209)" fill="#c1d3ff"/>
    <circle id="Ellipse_121" data-name="Ellipse 121" cx="1.724" cy="1.724" r="1.724" transform="translate(487.05 587.864)" fill="#c1d3ff"/>
  </g>
</svg>
