<svg xmlns="http://www.w3.org/2000/svg" xmlns:xlink="http://www.w3.org/1999/xlink" width="529" height="296" viewBox="0 0 529 296">
  <defs>
    <clipPath id="clip-path">
      <path id="Rectangle_387" data-name="Rectangle 387" d="M10,0H519a10,10,0,0,1,10,10V296a0,0,0,0,1,0,0H0a0,0,0,0,1,0,0V10A10,10,0,0,1,10,0Z" fill="#a0ffe6"/>
    </clipPath>
  </defs>
  <g id="charity" clip-path="url(#clip-path)">
    <g id="Group_504" data-name="Group 504" transform="translate(76 -33.94)">
      <g id="Group_501" data-name="Group 501" transform="translate(167 54.142)">
        <path id="Path_960" data-name="Path 960" d="M292.792,221.074h36.577L347.657,189.4l-18.288-31.676H292.792L274.5,189.4Z" transform="translate(-262.58 -147.039)" fill="#ffd"/>
        <path id="Path_961" data-name="Path 961" d="M323.444,222.293H277.594a2.659,2.659,0,0,1-2.3-1.326l-22.925-39.707a2.659,2.659,0,0,1,0-2.651L275.3,138.9a2.659,2.659,0,0,1,2.3-1.326h45.849a2.659,2.659,0,0,1,2.3,1.326l22.925,39.706a2.659,2.659,0,0,1,0,2.651L325.74,220.968A2.658,2.658,0,0,1,323.444,222.293Zm-45.849-83.656a1.6,1.6,0,0,0-1.378.8L253.292,179.14a1.6,1.6,0,0,0,0,1.591l22.925,39.707a1.6,1.6,0,0,0,1.378.8h45.849a1.6,1.6,0,0,0,1.378-.8l22.925-39.707a1.6,1.6,0,0,0,0-1.591l-22.925-39.706a1.6,1.6,0,0,0-1.378-.8Z" transform="translate(-252.019 -137.577)" fill="#ffd"/>
        <path id="Path_965" data-name="Path 965" d="M328.839,191.864a9.548,9.548,0,1,0-13.819,13.178q.157.164.321.321l13.823,13.823,13.5-13.5a9.777,9.777,0,0,0-13.823-13.823Z" transform="translate(-280.373 -161.687)" fill="#d55438"/>
      </g>
      <g id="Group_502" data-name="Group 502" transform="translate(-3.962 66.621)">
        <path id="Path_960-2" data-name="Path 960" d="M308.992,277.192h68.977l34.488-59.736-34.488-59.736H308.992L274.5,217.457Z" transform="translate(-252.019 -137.577)" fill="#ffd"/>
        <path id="Path_961-2" data-name="Path 961" d="M386.712,297.336H300.249a5.014,5.014,0,0,1-4.33-2.5l-43.232-74.88a5.015,5.015,0,0,1,0-5l43.232-74.879a5.014,5.014,0,0,1,4.33-2.5h86.463a5.014,5.014,0,0,1,4.33,2.5l43.232,74.879a5.014,5.014,0,0,1,0,5l-43.232,74.88A5.013,5.013,0,0,1,386.712,297.336ZM300.249,139.577a3.008,3.008,0,0,0-2.6,1.5l-43.232,74.879a3.009,3.009,0,0,0,0,3l43.231,74.88a3.008,3.008,0,0,0,2.6,1.5h86.463a3.008,3.008,0,0,0,2.6-1.5l43.232-74.88a3.008,3.008,0,0,0,0-3L389.31,141.077a3.008,3.008,0,0,0-2.6-1.5Z" transform="translate(-252.019 -137.577)" fill="#ffd"/>
        <path id="Path_965-2" data-name="Path 965" d="M343.417,194.485a18,18,0,1,0-26.06,24.851q.3.309.6.6l26.068,26.068,25.455-25.455a18.438,18.438,0,0,0-26.068-26.068Z" transform="translate(-252.019 -137.577)" fill="#0abb92"/>
      </g>
      <g id="Group_503" data-name="Group 503" transform="translate(137.358 151.5)">
        <path id="Path_960-3" data-name="Path 960" d="M320.749,317.922h92.492l46.246-80.1-46.246-80.1H320.749l-46.246,80.1Z" transform="translate(-244.354 -130.71)" fill="#ffd"/>
        <path id="Path_961-3" data-name="Path 961" d="M432.63,351.8H316.691a6.723,6.723,0,0,1-5.806-3.352L252.915,248.04a6.724,6.724,0,0,1,0-6.7l57.97-100.406a6.723,6.723,0,0,1,5.806-3.352H432.63a6.723,6.723,0,0,1,5.806,3.352l57.97,100.406a6.723,6.723,0,0,1,0,6.7l-57.97,100.407A6.722,6.722,0,0,1,432.63,351.8ZM316.691,140.259a4.034,4.034,0,0,0-3.484,2.011l-57.97,100.406a4.034,4.034,0,0,0,0,4.023l57.97,100.407a4.034,4.034,0,0,0,3.484,2.011H432.63a4.033,4.033,0,0,0,3.484-2.011L494.084,246.7a4.034,4.034,0,0,0,0-4.023L436.114,142.27a4.033,4.033,0,0,0-3.484-2.011Z" transform="translate(-252.019 -137.577)" fill="#ffd"/>
        <path id="Path_965-3" data-name="Path 965" d="M354,196.387a24.143,24.143,0,1,0-34.945,33.323q.4.415.811.811l34.954,34.955,34.134-34.134A24.724,24.724,0,0,0,354,196.387Z" transform="translate(-231.441 -120.079)" fill="#6c63ff"/>
      </g>
    </g>
  </g>
</svg>
