<svg xmlns="http://www.w3.org/2000/svg" xmlns:xlink="http://www.w3.org/1999/xlink" width="529" height="296" viewBox="0 0 529 296">
  <defs>
    <clipPath id="clip-path">
      <path id="Rectangle_387" data-name="Rectangle 387" d="M10,0H519a10,10,0,0,1,10,10V296a0,0,0,0,1,0,0H0a0,0,0,0,1,0,0V10A10,10,0,0,1,10,0Z" fill="#a0ffe6"/>
    </clipPath>
  </defs>
  <g id="collectors" clip-path="url(#clip-path)">
    <g id="Group_500" data-name="Group 500" transform="translate(-70.928 33.991)">
      <path id="Path_935" data-name="Path 935" d="M622.842,212.46l-6.613-26.007-9.3-36.566-.527-2.064v-.005l-3.677-14.459a9.226,9.226,0,0,0-11.2-6.659l-24.435,6.213L414.411,171.746a9.226,9.226,0,0,0-6.659,11.2l5.269,20.722,13.389,52.638,5.036,19.8.259,1.014h1.116l-.259-1.014-4.813-18.937v-.005l-13.967-54.9-4.98-19.581a8.145,8.145,0,0,1,5.878-9.89l152.354-38.752,24.749-6.294a8.145,8.145,0,0,1,9.89,5.878l3.9,15.346.527,2.084,9.038,35.536,6.578,25.865.274,1.085h1.126Z" transform="translate(-217.281 -126.414)" fill="#ffd"/>
      <circle id="Ellipse_305" data-name="Ellipse 305" cx="26.148" cy="26.148" r="26.148" transform="translate(215.106 69.873)" fill="#ffd"/>
      <path id="Path_936" data-name="Path 936" d="M547.1,262.5l1.253,1.085H528.443a8.144,8.144,0,0,0-8.135,8.135v62.056l-.289,14.692-12.724-11.381-1.192.3-9.433-8.322a7.59,7.59,0,0,0-5.031-1.9h-24.82l.38-1.014,4.96-13.252,28.122-75.186,2.891-7.724a3.142,3.142,0,0,1,5-1.273l18.922,16.417,11.137,9.666Z" transform="translate(-246.532 -176.456)" fill="#3f3d56"/>
      <path id="Path_937" data-name="Path 937" d="M730.371,260.808l1.258,1.085H670.7l.411-1.085,12.978-34.258a3.141,3.141,0,0,1,4.99-1.273l25.8,22.2,1.486,1.273Z" transform="translate(-347.013 -174.761)" fill="#3f3d56"/>
      <path id="Path_938" data-name="Path 938" d="M809.3,317.066a15.357,15.357,0,0,0-12.263,6.1,10.111,10.111,0,0,0-14.108,9.285h41.755A15.383,15.383,0,0,0,809.3,317.066Z" transform="translate(-402.327 -220.374)" fill="#fff"/>
      <path id="Path_939" data-name="Path 939" d="M762.112,296.076H579.369a9.241,9.241,0,0,0-8.946,6.989v.005a9.2,9.2,0,0,0-.274,2.226v77.24l.593.522.492.436V305.3a8.144,8.144,0,0,1,8.135-8.135H762.112a8.14,8.14,0,0,1,8.135,8.135v93.991h.517a5.269,5.269,0,0,1,.568.025V305.3A9.234,9.234,0,0,0,762.112,296.076Z" transform="translate(-297.458 -210.03)" fill="#3f3d56"/>
      <circle id="Ellipse_306" data-name="Ellipse 306" cx="24.773" cy="24.773" r="24.773" transform="translate(290.73 107.36)" fill="#ffd"/>
      <path id="Path_940" data-name="Path 940" d="M774.69,419.961H604.778a8.7,8.7,0,0,1-5.706-2.155l-3.814-3.362.583-.842,1.055-1.521,45.8-65.935,4.7-6.77a3.143,3.143,0,0,1,5.163,0l14.292,20.575v.005l8.409,12.106,20.073,28.9L725.775,357.5a3.143,3.143,0,0,1,5.153,0l19.531,27.873,1.121,1.6,22.4,31.971Z" transform="translate(-309.833 -230.704)" fill="#3f3d56"/>
      <path id="Path_941" data-name="Path 941" d="M738.483,367.714a18.947,18.947,0,0,0-15.13,7.523,12.475,12.475,0,0,0-17.406,11.456h51.516a18.98,18.98,0,0,0-18.979-18.979Z" transform="translate(-364.385 -245.336)" fill="#fff"/>
      <path id="Path_942" data-name="Path 942" d="M505.259,454.237l-6.309-5.558-.015-.01-.02-.015-.015-.015c-.2-.142-.4-.289-.588-.441-.051-.035-.1-.071-.142-.107l-.071-.056c-.01-.005-.015-.015-.026-.02-.142-.112-.289-.228-.431-.345-.071-.051-.137-.106-.208-.162-.193-.157-.385-.32-.578-.482s-.406-.345-.608-.522c-.005-.005-.015-.01-.02-.015-.041-.035-.076-.071-.117-.1-.193-.172-.386-.345-.578-.527-.162-.147-.325-.3-.482-.446s-.294-.274-.436-.421l-.03-.03c-.107-.1-.213-.208-.324-.32s-.208-.208-.31-.314-.208-.208-.3-.315l-.081-.081-.026-.025-.979-.867v1.354l.593.522.492.436,10.422,9.19.979.867.249.218.233-.34.35-.5Zm151.467,5.893c.015.335.041.674.066,1.014h35.866V460.13Zm-151.467-5.893-6.309-5.558-.015-.01-.02-.015-.015-.015c-.2-.142-.4-.289-.588-.441-.051-.035-.1-.071-.142-.107l-.071-.056c-.01-.005-.015-.015-.026-.02-.142-.112-.289-.228-.431-.345-.071-.051-.137-.106-.208-.162-.193-.157-.385-.32-.578-.482s-.406-.345-.608-.522c-.005-.005-.015-.01-.02-.015-.041-.035-.076-.071-.117-.1-.193-.172-.386-.345-.578-.527-.162-.147-.325-.3-.482-.446s-.294-.274-.436-.421l-.03-.03c-.107-.1-.213-.208-.324-.32s-.208-.208-.31-.314-.208-.208-.3-.315l-.081-.081-.026-.025-.979-.867v1.354l.593.522.492.436,10.422,9.19.979.867.249.218.233-.34.35-.5Zm178.757,5.893h-27.29c.015.335.041.674.066,1.014h27.934Zm-178.757-5.893-6.309-5.558-.015-.01-.02-.015-.015-.015c-.2-.142-.4-.289-.588-.441-.051-.035-.1-.071-.142-.107l-.071-.056c-.01-.005-.015-.015-.026-.02-.142-.112-.289-.228-.431-.345-.071-.051-.137-.106-.208-.162-.193-.157-.385-.32-.578-.482s-.406-.345-.608-.522c-.005-.005-.015-.01-.02-.015-.041-.035-.076-.071-.117-.1-.193-.172-.386-.345-.578-.527-.162-.147-.325-.3-.482-.446s-.294-.274-.436-.421l-.03-.03c-.107-.1-.213-.208-.324-.32s-.208-.208-.31-.314-.208-.208-.3-.315l-.081-.081-.026-.025-.979-.867v1.354l.593.522.492.436,10.422,9.19.979.867.249.218.233-.34.35-.5Zm-24.627-21.716-9.955-8.779a8.608,8.608,0,0,0-5.7-2.155H435.15l.259,1.014h29.567a7.59,7.59,0,0,1,5.031,1.9l9.433,8.322,13.12,11.568v-1.354Zm213.112,27.63c-.188-.015-.375-.02-.568-.02H514.814a7.579,7.579,0,0,1-4.722-1.643c-.107-.081-.208-.167-.309-.259l-3.54-3.124-.365-.32-.619-.548-6.309-5.558-.015-.01-.02-.015-.015-.015-4.214-3.723-1.04-.918-.081-.066-.026-.025-.979-.867-11.928-10.518-9.955-8.779a8.608,8.608,0,0,0-5.7-2.155H421.34a8.634,8.634,0,0,0-8.622,8.622V591.483a8.634,8.634,0,0,0,8.622,8.622H693.175a8.634,8.634,0,0,0,8.622-8.622V468.752A8.636,8.636,0,0,0,693.743,460.151Zm7.039,131.333a7.617,7.617,0,0,1-7.607,7.607H421.34a7.617,7.617,0,0,1-7.607-7.607V430.208a7.617,7.617,0,0,1,7.607-7.607h43.636a7.59,7.59,0,0,1,5.031,1.9l9.433,8.322,13.12,11.568.593.522.492.436,10.422,9.19.979.867.249.218,3.814,3.362a8.7,8.7,0,0,0,5.706,2.155H693.175a5.277,5.277,0,0,1,.568.025,7.613,7.613,0,0,1,7.039,7.582ZM505.259,454.237l-6.309-5.558-.015-.01-.02-.015-.015-.015c-.2-.142-.4-.289-.588-.441-.051-.035-.1-.071-.142-.106l-.071-.056c-.01-.005-.015-.015-.026-.02-.142-.112-.289-.228-.431-.345-.071-.051-.137-.107-.208-.162-.193-.157-.385-.319-.578-.482s-.406-.345-.608-.522c-.005-.005-.015-.01-.02-.015-.041-.035-.076-.071-.117-.1-.193-.172-.386-.345-.578-.527-.162-.147-.325-.3-.482-.446s-.294-.274-.436-.421l-.03-.03c-.107-.1-.213-.208-.324-.32s-.208-.208-.31-.314-.208-.208-.3-.314l-.081-.081-.026-.025-.979-.867v1.354l.593.522.492.436,10.422,9.19.979.867.249.218.233-.34.35-.5Zm151.467,5.893c.015.335.041.675.066,1.014h35.866V460.13Zm-151.467-5.893-6.309-5.558-.015-.01-.02-.015-.015-.015c-.2-.142-.4-.289-.588-.441-.051-.035-.1-.071-.142-.106l-.071-.056c-.01-.005-.015-.015-.026-.02-.142-.112-.289-.228-.431-.345-.071-.051-.137-.107-.208-.162-.193-.157-.385-.319-.578-.482s-.406-.345-.608-.522c-.005-.005-.015-.01-.02-.015-.041-.035-.076-.071-.117-.1-.193-.172-.386-.345-.578-.527-.162-.147-.325-.3-.482-.446s-.294-.274-.436-.421l-.03-.03c-.107-.1-.213-.208-.324-.32s-.208-.208-.31-.314-.208-.208-.3-.314l-.081-.081-.026-.025-.979-.867v1.354l.593.522.492.436,10.422,9.19.979.867.249.218.233-.34.35-.5Zm0,0-6.309-5.558-.015-.01-.02-.015-.015-.015c-.2-.142-.4-.289-.588-.441-.051-.035-.1-.071-.142-.106l-.071-.056c-.01-.005-.015-.015-.026-.02-.142-.112-.289-.228-.431-.345-.071-.051-.137-.107-.208-.162-.193-.157-.385-.319-.578-.482s-.406-.345-.608-.522c-.005-.005-.015-.01-.02-.015-.041-.035-.076-.071-.117-.1-.193-.172-.386-.345-.578-.527-.162-.147-.325-.3-.482-.446s-.294-.274-.436-.421l-.03-.03c-.107-.1-.213-.208-.324-.32s-.208-.208-.31-.314-.208-.208-.3-.314l-.081-.081-.026-.025-.979-.867v1.354l.593.522.492.436,10.422,9.19.979.867.249.218.233-.34.35-.5Zm178.757,5.893h-27.29c.015.335.041.675.066,1.014h27.934Z" transform="translate(-219.869 -271.887)" fill="#3f3d56"/>
      <path id="Path_955" data-name="Path 955" d="M690.851,603.243H444.292a8.083,8.083,0,0,1-8.074-8.074V448.89a8.083,8.083,0,0,1,8.074-8.074,7.149,7.149,0,0,1,7.141,7.141V585.533A7.575,7.575,0,0,0,459,593.1H690.019a5.135,5.135,0,0,1,5.029,3.848,4.93,4.93,0,0,1-2.184,5.672A3.853,3.853,0,0,1,690.851,603.243Z" transform="translate(-231.451 -281.364)" fill="#fff"/>
    </g>
  </g>
</svg>
