<svg id="collectors_illustration" xmlns="http://www.w3.org/2000/svg" xmlns:xlink="http://www.w3.org/1999/xlink" width="357" height="217.949" viewBox="0 0 357 217.949">
  <defs>
    <linearGradient id="linear-gradient" x1="1" x2="0" y2="1" gradientUnits="objectBoundingBox">
      <stop offset="0" stop-color="#242424" stop-opacity="0"/>
      <stop offset="0.498" stop-color="#0abb92" stop-opacity="0.502"/>
      <stop offset="1" stop-color="#3b7afd"/>
    </linearGradient>
    <linearGradient id="linear-gradient-2" x1="0.5" x2="0.5" y2="1" gradientUnits="objectBoundingBox">
      <stop offset="0" stop-color="#3b7afd" stop-opacity="0"/>
      <stop offset="0.498" stop-color="#b76cfd" stop-opacity="0.502"/>
      <stop offset="1" stop-color="#3b7afd"/>
    </linearGradient>
    <linearGradient id="linear-gradient-4" x1="0.5" x2="0.5" y2="1" xlink:href="#linear-gradient"/>
  </defs>
  <path id="Path_354" data-name="Path 354" d="M236.527,643.6c2.923,10.806,12.936,17.5,12.936,17.5s5.273-10.828,2.35-21.634-12.936-17.5-12.936-17.5S233.6,632.794,236.527,643.6Z" transform="translate(-181.499 -454.3)" fill="#0abb92"/>
  <path id="Path_355" data-name="Path 355" d="M212.126,662.211c8.022,7.809,9,19.812,9,19.812s-12.026-.657-20.047-8.465-9-19.812-9-19.812S204.1,654.4,212.126,662.211Z" transform="translate(-152.802 -475.233)" fill="#3b7afd"/>
  <rect id="Rectangle_234" data-name="Rectangle 234" width="282.462" height="0.872" transform="translate(38.729 217.077)" fill="#c1d3ff"/>
  <path id="Path_356" data-name="Path 356" d="M265.86,746.142H254.526V734.808H265.86ZM255.4,745.27h9.59v-9.59H255.4Z" transform="translate(-193.936 -528.629)" fill="#c1d3ff"/>
  <rect id="Rectangle_235" data-name="Rectangle 235" width="96.049" height="96.049" transform="translate(0 8.642)" fill="url(#linear-gradient)"/>
  <path id="Path_357" data-name="Path 357" d="M304.294,179.926v2.2a9.968,9.968,0,0,1-3.425-3.882c-1.279-2.615-1.238-5.63-1.2-8.546.046-3.466.093-6.735-2.106-8.864-2.419-2.338-6.289-2.008-10.033-1.69-.44.035-.879.075-1.313.11-3.755.284-7.938-.665-9.969-3.229h2.534a12.1,12.1,0,0,0,7.308,1.493c.422-.029.856-.069,1.29-.1,3.94-.336,8.407-.717,11.387,2.17,2.743,2.65,2.69,6.457,2.638,10.137-.04,2.714-.075,5.514,1.024,7.759A7.936,7.936,0,0,0,304.294,179.926Z" transform="translate(-208.245 -147.388)" fill="#c1d3ff" opacity="0.2"/>
  <path id="Path_358" data-name="Path 358" d="M256.127,195.173v2.581a10.977,10.977,0,0,0-1.412-1.522c-2.986-2.633-7.273-3.211-11.416-3.778-.538-.069-1.065-.145-1.591-.22-6.718-.966-10.884-3.275-12.729-7.042-1.279-2.615-1.238-5.63-1.2-8.546.046-3.466.093-6.735-2.106-8.864-2.419-2.338-6.289-2.008-10.033-1.69-.44.035-.88.075-1.313.11-4.826.365-10.363-1.308-11.121-5.827a7.746,7.746,0,0,1,.7-4.345h1.9a7.018,7.018,0,0,0-.885,4.056c.573,3.448,5.213,4.687,9.281,4.38.422-.029.856-.069,1.29-.1,3.94-.336,8.407-.717,11.387,2.17,2.743,2.65,2.69,6.457,2.638,10.137-.041,2.714-.075,5.514,1.024,7.759,1.574,3.217,5.306,5.207,11.416,6.087.521.075,1.047.15,1.574.22,4.4.6,8.951,1.215,12.336,4.195Q256,195.043,256.127,195.173Z" transform="translate(-160.079 -147.388)" fill="#c1d3ff" opacity="0.2"/>
  <path id="Path_359" data-name="Path 359" d="M202.474,238.672v3.564a25.419,25.419,0,0,1-5.173-9.084c-.284-.81-.555-1.637-.827-2.465-1.5-4.53-3.049-9.211-6.741-12.2-3.946-3.194-9.6-3.9-15.067-4.583-.7-.087-1.4-.174-2.095-.266-8.864-1.175-14.355-3.969-16.791-8.54-1.69-3.177-1.637-6.833-1.585-10.369.064-4.2.127-8.17-2.777-10.751-3.188-2.835-8.3-2.436-13.233-2.048-.584.046-1.163.093-1.73.133-6.37.44-13.678-1.585-14.673-7.065-.492-2.685.764-5.063,1.973-7.366a18.747,18.747,0,0,0,1.69-3.865,8.44,8.44,0,0,0-2.106-7.736h2.835a10.194,10.194,0,0,1,1.5,8.234,20.886,20.886,0,0,1-1.857,4.287c-1.105,2.095-2.141,4.073-1.776,6.1.764,4.178,6.88,5.682,12.243,5.312.561-.04,1.134-.087,1.707-.127,5.2-.411,11.086-.868,15.021,2.633,3.616,3.211,3.547,7.829,3.477,12.29-.046,3.292-.1,6.689,1.348,9.414,2.077,3.894,7.007,6.313,15.067,7.383.683.093,1.377.179,2.071.266,5.809.723,11.809,1.47,16.27,5.086,4.183,3.391,5.832,8.361,7.418,13.169.272.822.544,1.632.822,2.436A27.424,27.424,0,0,0,202.474,238.672Z" transform="translate(-106.426 -147.388)" fill="#c1d3ff" opacity="0.2"/>
  <path id="Path_360" data-name="Path 360" d="M77,221.458c2.638,3.194,8.234,4.374,13.25,4.027.567-.041,1.146-.087,1.73-.133,4.936-.388,10.045-.787,13.233,2.048,2.9,2.581,2.841,6.55,2.777,10.751-.052,3.535-.1,7.192,1.585,10.369,2.436,4.571,7.927,7.366,16.791,8.54.694.093,1.394.179,2.095.266,5.468.683,11.121,1.389,15.067,4.583,3.691,2.991,5.242,7.672,6.741,12.2.272.827.544,1.655.827,2.465.26.746.538,1.458.827,2.147H154.4c-.434-.943-.8-1.886-1.122-2.789-.278-.8-.55-1.614-.822-2.436-1.585-4.808-3.234-9.778-7.418-13.169-4.461-3.616-10.461-4.363-16.27-5.086-.694-.087-1.389-.174-2.071-.266-8.06-1.07-12.99-3.489-15.067-7.383-1.447-2.725-1.394-6.122-1.348-9.414.069-4.461.139-9.078-3.477-12.29-3.934-3.5-9.825-3.043-15.021-2.633-.573.041-1.146.087-1.707.127-5.364.37-11.48-1.134-12.243-5.312-.365-2.025.671-4,1.776-6.1a20.888,20.888,0,0,0,1.857-4.287A10.518,10.518,0,0,0,77,196.48v2.835a8.465,8.465,0,0,1,2.239,7.875,18.747,18.747,0,0,1-1.69,3.865c-.185.353-.37.7-.55,1.059Z" transform="translate(-77 -174.032)" fill="#c1d3ff" opacity="0.2"/>
  <path id="Path_361" data-name="Path 361" d="M119.487,377.707h-2.4c-.127-.376-.249-.758-.376-1.14-1.5-4.53-3.049-9.211-6.741-12.2-3.946-3.194-9.6-3.9-15.067-4.583-.7-.087-1.4-.174-2.095-.266-7.823-1.036-13.024-3.339-15.808-7.007v-5.757a10.919,10.919,0,0,0,1.07,3.3c2.077,3.894,7.007,6.313,15.067,7.383.683.093,1.377.179,2.071.266,5.809.723,11.809,1.47,16.27,5.086,4.183,3.391,5.832,8.361,7.418,13.169C119.094,376.544,119.285,377.128,119.487,377.707Z" transform="translate(-77 -273.016)" fill="#c1d3ff" opacity="0.2"/>
  <rect id="Rectangle_236" data-name="Rectangle 236" width="96.049" height="96.049" transform="translate(130.186 8.642)" fill="#243767"/>
  <path id="Path_362" data-name="Path 362" d="M504.731,162.973a30.668,30.668,0,0,1-46.289,26.39V156.03h45.5A30.481,30.481,0,0,1,504.731,162.973Z" transform="translate(-328.256 -147.388)" fill="#0abb92"/>
  <circle id="Ellipse_122" data-name="Ellipse 122" cx="18.515" cy="18.515" r="18.515" transform="translate(182.84 16.164)" fill="#ffb74d"/>
  <circle id="Ellipse_123" data-name="Ellipse 123" cx="13.308" cy="13.308" r="13.308" transform="translate(146.387 60.717)" fill="#0abb92"/>
  <path id="Path_363" data-name="Path 363" d="M701.893,388.211v15.738H682.851a13.309,13.309,0,0,1,19.042-15.738Z" transform="translate(-475.658 -299.258)" fill="#6c63ff"/>
  <circle id="Ellipse_124" data-name="Ellipse 124" cx="3.472" cy="3.472" r="3.472" transform="translate(189.783 69.975)" fill="#6c63ff"/>
  <rect id="Rectangle_237" data-name="Rectangle 237" width="96.049" height="96.049" transform="translate(260.951 8.642)" fill="#233b6a"/>
  <path id="Path_364" data-name="Path 364" d="M888.447,156.03v39.345H841.58v2.314h49.182V156.03Z" transform="translate(-580.629 -147.388)" fill="url(#linear-gradient-2)"/>
  <path id="Path_365" data-name="Path 365" d="M1039.092,357.517l3.975-5.653v-4.021l-6.8,9.674ZM1022.949,316.1l-21.3,30.29,15.825,11.127h4.021l-16.623-11.688,18.637-26.506,19.557,13.753v-2.829Z" transform="translate(-686.067 -252.826)" fill="url(#linear-gradient-2)"/>
  <path id="Path_366" data-name="Path 366" d="M936.566,304.86l-12.272,12.272L936.566,329.4l12.272-12.272Zm-9,12.272,9-9,9,9-9,9Z" transform="translate(-635.112 -245.422)" fill="url(#linear-gradient-4)"/>
  <circle id="Ellipse_125" data-name="Ellipse 125" cx="8.718" cy="8.718" r="8.718" transform="translate(38.359 0)" fill="#f2f2f2"/>
  <circle id="Ellipse_126" data-name="Ellipse 126" cx="8.718" cy="8.718" r="8.718" transform="translate(173.051 0)" fill="#f2f2f2"/>
  <circle id="Ellipse_127" data-name="Ellipse 127" cx="8.718" cy="8.718" r="8.718" transform="translate(301.641 0)" fill="#f2f2f2"/>
  <circle id="Ellipse_128" data-name="Ellipse 128" cx="8.282" cy="8.282" r="8.282" transform="translate(164.551 42.936)" fill="#ffb8b8"/>
  <path id="Path_367" data-name="Path 367" d="M570.625,288.011s2.18,11.333,1.308,13.513,12.205-.872,12.205-.872-2.615-11.333-2.18-13.949S570.625,288.011,570.625,288.011Z" transform="translate(-402.151 -232.87)" fill="#ffb8b8"/>
  <path id="Path_368" data-name="Path 368" d="M451.479,276.507l.872,11.769,4.327,18.483,1.34,5.055,2.18-7.846-2.18-17.872-.74-8.046Z" transform="translate(-297.389 -182.135)" fill="#ffb8b8"/>
  <path id="Path_369" data-name="Path 369" d="M648.28,402.106v12.205s-1.308,15.692-3.923,19.615-3.487-15.692-3.487-15.692l2.049-14.385Z" transform="translate(-448.421 -309.478)" fill="#ffb8b8"/>
  <path id="Path_370" data-name="Path 370" d="M546.767,510.381s-2.18,2.615-.436,29.205-.872,45.769,4.795,45.769c0,0-1.744,5.667,3.051,6.1s6.974.872,7.41-.436,1.308-7.41,0-7.41c0,0,0,1.744.872-5.231s.872-40.1,3.051-44.462l6.974,16.128s0,7.41,1.308,10.9,3.487,23.538,3.487,23.538l-.436,3.051s10.461,1.744,10.9,0,.436-4.359,0-5.231-.436-.872.436-2.615a5.278,5.278,0,0,0,.436-4.359c-.436-1.308-.436-29.641-.436-29.641s-.872-34.436-6.1-36.18S546.767,510.381,546.767,510.381Z" transform="translate(-385.703 -379.829)" fill="#142243"/>
  <path id="Path_371" data-name="Path 371" d="M550.1,740.556l-3.487,6.1s-5.449-1.962-4.359,3.051a87.1,87.1,0,0,0,15.91-.218s2.179.872,2.615-.436-1.09-5.885-2.4-5.885S550.1,740.556,550.1,740.556Z" transform="translate(-383.365 -532.415)" fill="#2f2e41"/>
  <path id="Path_372" data-name="Path 372" d="M634.819,732.318s-3.487,7.846-2.18,8.282,13.077,2.18,13.949,2.615,5.231.872,5.667-1.744a3.206,3.206,0,0,0-2.18-3.487s-4.795-.872-6.1-5.231S634.819,732.318,634.819,732.318Z" transform="translate(-442.807 -525.92)" fill="#2f2e41"/>
  <path id="Path_373" data-name="Path 373" d="M558.93,323.607s-11.769-2.18-14.385,0-13.513,6.538-13.513,8.718,5.667,23.538,5.667,23.538-3.051,32.256,0,33.128,8.282-1.744,14.385,1.308,23.538-2.615,23.538-2.615-6.538-27.9-4.795-33.128,3.051-23.1,3.051-23.1S565.469,323.607,558.93,323.607Z" transform="translate(-376.071 -257.132)" fill="#d55438"/>
  <path id="Path_374" data-name="Path 374" d="M525.321,347.188l-3.051.872s-6.539,20.487-3.923,21.359a93.523,93.523,0,0,0,10.9,2.615C530.116,372.034,525.321,347.188,525.321,347.188Z" transform="translate(-367.308 -273.303)" fill="#d55438"/>
  <path id="Path_375" data-name="Path 375" d="M633.206,340.8l6.974,2.615s9.154,17,6.974,19.179-11.769,4.359-11.769,4.359Z" transform="translate(-443.373 -269.097)" fill="#d55438"/>
  <path id="Path_376" data-name="Path 376" d="M564.448,250.658a4.68,4.68,0,0,0-2.072.091,5.4,5.4,0,0,0-1.472.966,17.232,17.232,0,0,1-2.517,1.668,5.875,5.875,0,0,0-1.959,1.373,4.166,4.166,0,0,0-.553,1.046,12.539,12.539,0,0,0-.659,6.825,3.136,3.136,0,0,0,.29.937c.453.835,1.454,1.164,2.3,1.6a19.622,19.622,0,0,1,4.126,3.466,8.068,8.068,0,0,0,1.63,1.256c1.873,1.021,4.161.688,6.264.327a1.129,1.129,0,0,0,1.127-1.14l1.659-7.463a12.176,12.176,0,0,0,.425-3.394,9.66,9.66,0,0,0-2.426-5.608C569.058,251.111,566.473,250.873,564.448,250.658Z" transform="translate(-391.866 -209.67)" fill="#2f2e41"/>
  <circle id="Ellipse_129" data-name="Ellipse 129" cx="3.44" cy="3.44" r="3.44" transform="translate(113.049 204.06)" fill="#3b7afd"/>
  <path id="Path_377" data-name="Path 377" d="M399.131,729.436a9.937,9.937,0,1,1,9.937-9.937A9.937,9.937,0,0,1,399.131,729.436Zm0-19.11A9.173,9.173,0,1,0,408.3,719.5a9.173,9.173,0,0,0-9.173-9.173Z" transform="translate(-282.642 -511.998)" fill="#c1d3ff"/>
  <circle id="Ellipse_130" data-name="Ellipse 130" cx="3.44" cy="3.44" r="3.44" transform="translate(280.434 204.496)" fill="#3b7afd"/>
  <path id="Path_378" data-name="Path 378" d="M889.564,730.713a9.937,9.937,0,1,1,9.937-9.937A9.937,9.937,0,0,1,889.564,730.713Zm0-19.11a9.173,9.173,0,1,0,9.173,9.173A9.173,9.173,0,0,0,889.564,711.6Z" transform="translate(-605.69 -512.84)" fill="#c1d3ff"/>
  <circle id="Ellipse_131" data-name="Ellipse 131" cx="3.44" cy="3.44" r="3.44" transform="translate(280.434 185.316)" fill="#3b7afd"/>
  <path id="Path_379" data-name="Path 379" d="M889.564,674.517a9.937,9.937,0,1,1,9.937-9.937A9.937,9.937,0,0,1,889.564,674.517Zm0-19.11a9.173,9.173,0,1,0,9.173,9.173,9.173,9.173,0,0,0-9.173-9.173Z" transform="translate(-605.69 -475.824)" fill="#c1d3ff"/>
  <path id="Path_380" data-name="Path 380" d="M0,2.207S2.18,13.54,1.308,15.72s12.205-.872,12.205-.872S10.9,3.514,11.333.9,0,2.207,0,2.207Z" transform="translate(206.612 51.797) rotate(11)" fill="#ffb8b8"/>
  <path id="Path_381" data-name="Path 381" d="M451.479,276.507l.872,11.769,4.327,18.483,1.34,5.055,2.18-7.846-2.18-17.872-.74-8.046Z" transform="translate(-260.95 -182.135)" fill="#ffb8b8"/>
  <path id="Path_382" data-name="Path 382" d="M648.28,402.106v12.205s-1.308,15.692-3.923,19.615-3.487-15.692-3.487-15.692l2.049-14.385Z" transform="translate(-411.982 -309.478)" fill="#ffb8b8"/>
  <path id="Path_383" data-name="Path 383" d="M546.767,510.381s-2.18,2.615-.436,29.205-.872,45.769,4.795,45.769c0,0-1.744,5.667,3.051,6.1s6.974.872,7.41-.436,1.308-7.41,0-7.41c0,0,0,1.744.872-5.231s.872-40.1,3.051-44.462l6.974,16.128s0,7.41,1.308,10.9,3.487,23.538,3.487,23.538l-.436,3.051s10.461,1.744,10.9,0,.436-4.359,0-5.231-.436-.872.436-2.615a5.278,5.278,0,0,0,.436-4.359c-.436-1.308-.436-29.641-.436-29.641s-.872-34.436-6.1-36.18S546.767,510.381,546.767,510.381Z" transform="translate(-349.264 -379.829)" fill="#3b7afd"/>
  <path id="Path_384" data-name="Path 384" d="M550.1,740.556l-3.487,6.1s-5.449-1.962-4.359,3.051a87.1,87.1,0,0,0,15.91-.218s2.179.872,2.615-.436-1.09-5.885-2.4-5.885S550.1,740.556,550.1,740.556Z" transform="translate(-346.926 -532.414)" fill="#efefef"/>
  <path id="Path_385" data-name="Path 385" d="M634.819,732.318s-3.487,7.846-2.18,8.282,13.077,2.18,13.949,2.615,5.231.872,5.667-1.744a3.206,3.206,0,0,0-2.18-3.487s-4.795-.872-6.1-5.231S634.819,732.318,634.819,732.318Z" transform="translate(-406.368 -525.92)" fill="#efefef"/>
  <path id="Path_386" data-name="Path 386" d="M558.93,323.607s-11.769-2.18-14.385,0-13.513,6.538-13.513,8.718,5.667,23.538,5.667,23.538-3.051,32.256,0,33.128,8.282-1.744,14.385,1.308,23.538-2.615,23.538-2.615-6.538-27.9-4.795-33.128,3.051-23.1,3.051-23.1S565.469,323.607,558.93,323.607Z" transform="translate(-339.632 -257.132)" fill="#75d5fd"/>
  <path id="Path_387" data-name="Path 387" d="M525.321,347.188l-3.051.872s-6.539,20.487-3.923,21.359a93.523,93.523,0,0,0,10.9,2.615C530.116,372.034,525.321,347.188,525.321,347.188Z" transform="translate(-330.869 -273.303)" fill="#75d5fd"/>
  <path id="Path_388" data-name="Path 388" d="M633.206,340.8l6.974,2.615s9.154,17,6.974,19.179-11.769,4.359-11.769,4.359Z" transform="translate(-406.934 -269.097)" fill="#75d5fd"/>
  <path id="Path_389" data-name="Path 389" d="M9.436.075A4.681,4.681,0,0,0,7.365.166a5.4,5.4,0,0,0-1.472.966A17.232,17.232,0,0,1,3.375,2.8,5.874,5.874,0,0,0,1.416,4.173,4.167,4.167,0,0,0,.863,5.22,12.539,12.539,0,0,0,.2,12.044a3.135,3.135,0,0,0,.29.937c.453.835,1.454,1.164,2.3,1.6a19.623,19.623,0,0,1,4.126,3.466A8.068,8.068,0,0,0,8.547,19.3c1.873,1.021,4.161.688,6.264.327a1.129,1.129,0,0,0,1.127-1.14L17.6,11.029a12.176,12.176,0,0,0,.425-3.394A9.66,9.66,0,0,0,15.6,2.027C14.047.528,11.461.289,9.436.075Z" transform="matrix(0.934, 0.358, -0.358, 0.934, 205.643, 38.659)" fill="#19274b"/>
</svg>
