<svg xmlns="http://www.w3.org/2000/svg" width="512" height="314.923" viewBox="0 0 512 314.923">
  <g id="comingsoon" transform="translate(0.02 0)">
    <path id="Path_460" data-name="Path 460" d="M523.07,290.027A104.917,104.917,0,0,1,520,315.344q-1.035,4.186-2.4,8.2a96.811,96.811,0,0,1-3.877,9.7q-1.109,2.4-2.343,4.7a63.275,63.275,0,0,1-5.29,25.425,65.547,65.547,0,0,1-31.811,32.776,66.912,66.912,0,0,1-28.4,6.52h-337.6a85.061,85.061,0,0,1-42.783-11.437l-.2-.113q-2.778-1.626-5.416-3.443a84.942,84.942,0,0,1-11.115-9.163,82.716,82.716,0,0,1-12.219-15.14,80.792,80.792,0,0,1-12.428-43.135A101.722,101.722,0,0,1,11.07,269.866c0-23.473,7.633-44.887,20.174-61.1a85.894,85.894,0,0,1,8.568-9.533,79.729,79.729,0,0,1,9.8-8.02A76.233,76.233,0,0,1,58.3,186c1.256-.639,2.517-1.243,3.8-1.8,1.126-.5,2.265-.965,3.417-1.4q2.073-.787,4.2-1.448t4.195-1.156q3.043-.743,6.19-1.208c1.739-.256,3.478-.435,5.216-.569,1.382-.1,2.778-.161,4.182-.178h.761c1.548,0,3.086.061,4.612.165.161-.322.335-.648.5-.965.609-1.161,1.239-2.317,1.874-3.447a.109.109,0,0,1,0-.03c.109-.2.217-.4.33-.587.513-.926,1.048-1.843,1.6-2.752.252-.435.5-.843.756-1.252a3.329,3.329,0,0,1,.178-.3q.391-.652.8-1.3,2.013-3.217,4.186-6.32l.369-.53c.226-.322.435-.635.687-.956.6-.839,1.217-1.682,1.839-2.508.435-.591.869-1.178,1.339-1.739q1.7-2.173,3.478-4.347t3.7-4.29c.174-.2.348-.387.53-.578l1.856-2.026h0c.091-.1.17-.183.256-.27h0c.222-.239.435-.478.674-.709,1-1.056,2.017-2.091,3.043-3.121a165.7,165.7,0,0,1,16.649-14.506c.23-.183.465-.356.7-.53,1.1-.83,2.226-1.652,3.347-2.46a176.184,176.184,0,0,1,19.3-12.041c.461-.265.93-.513,1.4-.756a184.309,184.309,0,0,1,18.47-8.5c3.438-1.361,6.955-2.639,10.493-3.808,2.356-.774,4.721-1.508,7.116-2.2q5.616-1.617,11.311-2.9a201.416,201.416,0,0,1,34.01-4.634q5.216-.265,10.55-.274a202.134,202.134,0,0,1,50.859,6.433,1.834,1.834,0,0,0,1.578.822h1.461c.635.174,1.265.348,1.9.53q5.316,1.53,10.48,3.343l.869.313A187.109,187.109,0,0,1,348.1,110.068a178.519,178.519,0,0,1,20.713,12.8q1.526,1.1,3.008,2.208,1.8-1.152,3.66-2.208A71.993,71.993,0,0,1,390.64,116.4a69.16,69.16,0,0,1,34.01-1.33,75.256,75.256,0,0,1,38.105,21.491,88.917,88.917,0,0,1,11.428,14.51c.239.374.478.752.709,1.135a95.634,95.634,0,0,1,7.277,14.506c.074.187.148.361.213.543a100.445,100.445,0,0,1,4.477,14.5c.052.252.113.5.165.752a104.38,104.38,0,0,1,2.139,14.506,2.811,2.811,0,0,0,.035.535q.274,3.786.278,7.651c0,2.3-.078,4.59-.222,6.859,0,.248-.035.5-.057.761-.039.656-.1,1.3-.152,1.965a82.5,82.5,0,0,1,9.294,8.768q1.9,2.073,3.677,4.3a91.551,91.551,0,0,1,9.476,14.506A101.8,101.8,0,0,1,523.07,290.027Z" transform="translate(-11.09 -87.76)" fill="#3b7afd" opacity="0.1"/>
    <path id="Path_461" data-name="Path 461" d="M544.46,772.516c0,2.969-10.228,5.751-28.077,8.142h-337.6A85.062,85.062,0,0,1,136,769.221l-.2-.113c5.129-1.869,14.388-3.612,26.99-5.186h0l.565-.069c5.651-.691,11.967-1.348,18.87-1.969a4.3,4.3,0,0,0,.526-.048h0q8.216-.73,17.479-1.369c.2,0,.387-.035.582-.044q3.573-.256,7.294-.487h0l.956-.061c18.062-1.121,38.592-2.017,60.857-2.608h.026q4.677-.13,9.455-.23,5.312-.126,10.754-.222c2.769-.061,5.573-.1,8.385-.148h.065c12.689-.191,25.8-.287,39.205-.287,33.15,0,64.482.6,92.246,1.691h.078c4.269.165,8.459.348,12.545.535l3.478.165q6.916.33,13.475.709h0C511.058,762.4,544.46,767.156,544.46,772.516Z" transform="translate(-81.601 -465.735)" fill="#6c63ff" opacity="0.1"/>
    <g id="Group_319" data-name="Group 319" transform="translate(270.086 171.698)" opacity="0.5">
      <path id="Path_462" data-name="Path 462" d="M679.289,743.692a8.256,8.256,0,0,1-.161,1.4q-4.538-.722-9.129-1.3v-.374a7.337,7.337,0,0,1,1.087-3.686,4.044,4.044,0,0,1,7.359.226A7.332,7.332,0,0,1,679.289,743.692Z" transform="translate(-653.673 -626.741)" fill="#0abb92"/>
      <ellipse id="Ellipse_186" data-name="Ellipse 186" cx="6.09" cy="4.651" rx="6.09" ry="4.651" transform="translate(16.377 115.318) rotate(-88.19)" fill="#0abb92"/>
      <ellipse id="Ellipse_187" data-name="Ellipse 187" cx="6.09" cy="4.651" rx="6.09" ry="4.651" transform="translate(16.614 107.876) rotate(-88.19)" fill="#0abb92"/>
      <ellipse id="Ellipse_188" data-name="Ellipse 188" cx="6.09" cy="4.651" rx="6.09" ry="4.651" transform="translate(16.847 100.434) rotate(-88.19)" fill="#0abb92"/>
      <ellipse id="Ellipse_189" data-name="Ellipse 189" cx="6.09" cy="4.651" rx="6.09" ry="4.651" transform="translate(17.08 92.992) rotate(-88.19)" fill="#0abb92"/>
      <path id="Path_463" data-name="Path 463" d="M638.539,518.306a21.6,21.6,0,0,1-1.652-2.608l12.284-1.621-13.223-.317a22.335,22.335,0,0,1,.135-17.666l17.44,9.759-15.975-12.537a22.291,22.291,0,1,1,36.01,26.082,22.081,22.081,0,0,1,2.413,4.143l-16.123,7.737,17.1-5.142a22.317,22.317,0,0,1-4.269,20.826,22.291,22.291,0,1,1-35.019-1.1,22.291,22.291,0,0,1,.869-27.551Z" transform="translate(-632.44 -482.747)" fill="#0abb92"/>
      <path id="Path_464" data-name="Path 464" d="M677.892,598.66a22.17,22.17,0,0,1-5.216,13.623,22.291,22.291,0,1,1-35.019-1.1C634.8,607.3,677.97,596.16,677.892,598.66Z" transform="translate(-632.44 -548.069)" fill="#0abb92" opacity="0.1"/>
    </g>
    <g id="Group_320" data-name="Group 320" transform="translate(204.012 171.698)" opacity="0.5">
      <path id="Path_465" data-name="Path 465" d="M527.289,743.692a8.25,8.25,0,0,1-.161,1.4q-4.538-.722-9.129-1.3v-.374a7.336,7.336,0,0,1,1.087-3.686,4.044,4.044,0,0,1,7.359.226A7.333,7.333,0,0,1,527.289,743.692Z" transform="translate(-501.673 -626.741)" fill="#0abb92"/>
      <ellipse id="Ellipse_190" data-name="Ellipse 190" cx="6.09" cy="4.651" rx="6.09" ry="4.651" transform="translate(16.372 115.32) rotate(-88.19)" fill="#0abb92"/>
      <ellipse id="Ellipse_191" data-name="Ellipse 191" cx="6.09" cy="4.651" rx="6.09" ry="4.651" transform="translate(16.609 107.878) rotate(-88.19)" fill="#0abb92"/>
      <ellipse id="Ellipse_192" data-name="Ellipse 192" cx="6.09" cy="4.651" rx="6.09" ry="4.651" transform="translate(16.842 100.436) rotate(-88.19)" fill="#0abb92"/>
      <ellipse id="Ellipse_193" data-name="Ellipse 193" cx="6.09" cy="4.651" rx="6.09" ry="4.651" transform="translate(17.075 92.993) rotate(-88.19)" fill="#0abb92"/>
      <path id="Path_466" data-name="Path 466" d="M486.539,518.306a21.6,21.6,0,0,1-1.652-2.608l12.284-1.621-13.223-.317a22.335,22.335,0,0,1,.135-17.666l17.44,9.759-15.975-12.537a22.291,22.291,0,1,1,36.01,26.082,22.084,22.084,0,0,1,2.413,4.143l-16.123,7.738,17.1-5.142a22.317,22.317,0,0,1-4.269,20.826,22.291,22.291,0,1,1-35.019-1.1,22.291,22.291,0,0,1,.869-27.551Z" transform="translate(-480.44 -482.747)" fill="#0abb92"/>
      <path id="Path_467" data-name="Path 467" d="M525.892,598.66a22.17,22.17,0,0,1-5.216,13.623,22.291,22.291,0,1,1-35.019-1.1C482.8,607.3,525.97,596.16,525.892,598.66Z" transform="translate(-480.44 -548.069)" fill="#0abb92" opacity="0.1"/>
    </g>
    <g id="Group_321" data-name="Group 321" transform="translate(360.826 68.336)" opacity="0.5">
      <path id="Path_468" data-name="Path 468" d="M931.268,747.1a16.213,16.213,0,0,1-.317,2.643q-8.737-1.4-17.6-2.5v-.717a14.128,14.128,0,0,1,2.1-7.1c1.739-2.726,4.347-4.434,7.229-4.347s5.39,1.96,6.955,4.782A14.14,14.14,0,0,1,931.268,747.1Z" transform="translate(-881.981 -522.031)" fill="#0abb92"/>
      <ellipse id="Ellipse_194" data-name="Ellipse 194" cx="11.728" cy="8.959" rx="11.728" ry="8.959" transform="translate(31.482 221.916) rotate(-88.19)" fill="#0abb92"/>
      <ellipse id="Ellipse_195" data-name="Ellipse 195" cx="11.728" cy="8.959" rx="11.728" ry="8.959" transform="translate(31.934 207.588) rotate(-88.19)" fill="#0abb92"/>
      <ellipse id="Ellipse_196" data-name="Ellipse 196" cx="11.728" cy="8.959" rx="11.728" ry="8.959" transform="translate(32.39 193.26) rotate(-88.19)" fill="#0abb92"/>
      <ellipse id="Ellipse_197" data-name="Ellipse 197" cx="11.728" cy="8.959" rx="11.728" ry="8.959" transform="translate(32.34 178.313) rotate(-88.282)" fill="#0abb92"/>
      <path id="Path_469" data-name="Path 469" d="M852.894,313.345a43.153,43.153,0,0,1-3.178-5.012l23.647-3.121-25.451-.613a42.992,42.992,0,0,1,.252-34.01l33.58,18.783-30.75-24.134a42.913,42.913,0,1,1,69.321,50.233,42.906,42.906,0,0,1,4.647,7.977L893.92,338.353l32.911-9.911a42.926,42.926,0,0,1-8.185,40.057,42.913,42.913,0,1,1-67.421-2.126,42.926,42.926,0,0,1,1.669-53.033Z" transform="translate(-841.186 -244.965)" fill="#0abb92"/>
      <path id="Path_470" data-name="Path 470" d="M928.684,467.924a42.748,42.748,0,0,1-10,26.229,42.913,42.913,0,1,1-67.421-2.126C845.727,484.547,928.836,463.112,928.684,467.924Z" transform="translate(-841.209 -370.612)" fill="#0abb92" opacity="0.1"/>
    </g>
    <path id="Path_471" data-name="Path 471" d="M157.82,313.035l4.56-.013h6.429l8.129-132.051,80.5-134.333-3.5-3.756V33.37L166.879,177.858Z" transform="translate(-89.228 -18.864)" fill="#f1c0c0"/>
    <path id="Path_472" data-name="Path 472" d="M169.43,325.391h5.942L183.5,193.339,264,59.006l-3.5-3.756L177.467,191.327Z" transform="translate(-95.791 -31.233)" opacity="0.1"/>
    <path id="Path_473" data-name="Path 473" d="M126.91,667.253,335.5,683.215l.178.013,201.868-12.415.152-.009V662.28L315.263,658.2l-185.575-.178h-1.356l-.148.956Z" transform="translate(-71.754 -371.983)" fill="#f1c0c0"/>
    <path id="Path_474" data-name="Path 474" d="M126.91,667.253,335.5,683.215l.178.013,201.868-12.415.152-.165v-8.19h-.178L335.5,669.2,129.688,658.02h-.03l-.365.239-1.108.717Z" transform="translate(-71.754 -371.983)" opacity="0.1"/>
    <path id="Path_475" data-name="Path 475" d="M126.91,667.564,335.5,683.526v-14.01L129.292,658.57l-1.108.717Z" transform="translate(-71.754 -372.294)" opacity="0.1"/>
    <path id="Path_476" data-name="Path 476" d="M378.88,42.833l91.959,98.7L468,315.151l7.811.943.13.017h7.812l.935-167.122,172.2,57.519,2.9,102.414,6.286.7,2.13.239-4.929-110.46-180.007-63.2L384.561,33.6H378.88Z" transform="translate(-214.194 -18.995)" fill="#f1c0c0"/>
    <path id="Path_477" data-name="Path 477" d="M620.65,291.7l.709,3.195,172.2,57.519,2.9,102.414,6.286.7-4.93-105.248Z" transform="translate(-350.868 -164.9)" opacity="0.1"/>
    <path id="Path_478" data-name="Path 478" d="M378.88,42.833l91.959,98.7L468,315.151l7.811.943,2.13-180.242L378.88,33.6Z" transform="translate(-214.194 -18.995)" opacity="0.1"/>
    <path id="Path_479" data-name="Path 479" d="M621.42,437.326l63.157,12.437.022,0,110.617,21.791,5.064-2.03-.017-.356-.33-7.064L621.485,426.05Z" transform="translate(-351.304 -240.849)" fill="#f1c0c0"/>
    <path id="Path_480" data-name="Path 480" d="M766.76,480.61,877.377,502.4l5.064-2.03-.017-.356Z" transform="translate(-433.465 -271.692)" opacity="0.1"/>
    <path id="Path_481" data-name="Path 481" d="M776.49,350.56,778.2,444.6l.882,48.247,7.777-.261,4.895-.165-1.521-140.5-3.373-1.122-.739-.239Z" transform="translate(-438.966 -198.174)" fill="#f1c0c0"/>
    <path id="Path_482" data-name="Path 482" d="M776.65,350.51v.022l1.639,94.042.882,48.247,7.777-.261V350.51Z" transform="translate(-439.056 -198.146)" opacity="0.1"/>
    <path id="Path_483" data-name="Path 483" d="M490.679,485.784a9.912,9.912,0,0,1,1.3.848,8.631,8.631,0,0,1,1.3,1.43c1.865,2.412,3.586,5.216,3.4,8.259a3.36,3.36,0,0,1-.969,2.391,4.345,4.345,0,0,1-2.882.687,6.136,6.136,0,0,1-3.2-.565c-.948-.565-1.739-1.665-2.86-1.639a1.469,1.469,0,0,1-.478,0c-.387-.126-.465-.635-.717-.956-.435-.578-1.352-.435-2.034-.183a2.949,2.949,0,0,1-2.113.339,2.194,2.194,0,0,1-.917-.917c-1.613-2.608-1.956-5.742-2.26-8.772-.187-1.843-1.613-8.129,2.321-6.7a32.618,32.618,0,0,1,4.947,2.8Z" transform="translate(-274.969 -309.381)" fill="#3f3d56"/>
    <path id="Path_484" data-name="Path 484" d="M497.37,491.921a1.939,1.939,0,0,0,2.386-.1,3.6,3.6,0,0,0,1.161-2.252c.435-.135.656.435.935.782.487.591,1.478.583,1.921,1.213.309.435.239,1.039.456,1.53.283.635.982.965,1.461,1.478a5.033,5.033,0,0,1,.956,1.908l.713,2.139a10.572,10.572,0,0,1,.652,2.769,3.586,3.586,0,0,1-.826,2.647c-.956,1.03-2.526,1.139-3.912,1.108a5.034,5.034,0,0,1-1.374-.161,3.9,3.9,0,0,1-2.343-2.869,36.189,36.189,0,0,1-.482-3.834,15.035,15.035,0,0,0-1.087-3.643c-.383-.9-1.435-2.252-1.417-3.212C496.883,491.43,497.109,491.717,497.37,491.921Z" transform="translate(-285.546 -314.897)" fill="#3f3d56"/>
    <path id="Path_485" data-name="Path 485" d="M494.289,477.583a7.175,7.175,0,0,1-.352-1.908,8.307,8.307,0,0,1,1.2-3.695l-4.969.674a2.2,2.2,0,0,0-1.608.7,1.739,1.739,0,0,0,0,1.6,8.193,8.193,0,0,1,.591,1.552,7.744,7.744,0,0,0,.161,1.4,2.954,2.954,0,0,0,.639.9,30.139,30.139,0,0,1,3.547,5.268c-.03-.052,3-2.4,2.873-3.16-.07-.435-.943-.956-1.222-1.374A7,7,0,0,1,494.289,477.583Z" transform="translate(-280.904 -304.962)" fill="#be6f72"/>
    <path id="Path_486" data-name="Path 486" d="M471.547,358.04v4.282l-73.32,14.3-3.8,2.3H381.3v-2.413l72.038-17.405Z" transform="translate(-215.562 -202.402)" fill="#f1c0c0"/>
    <path id="Path_487" data-name="Path 487" d="M471.547,367.89l-73.32,14.3-3.8,2.3H381.3l72.572-15.532Z" transform="translate(-215.562 -207.971)" opacity="0.1"/>
    <path id="Path_488" data-name="Path 488" d="M448.7,722.735a5.681,5.681,0,0,0-6.912-1.469,1.82,1.82,0,0,0-.635.5c-.435.609-.156,1.448-.117,2.2.1,1.834-1.361,3.326-2.673,4.608a6.32,6.32,0,0,0-1.739,2.356,2.208,2.208,0,0,0,.769,2.608,3.206,3.206,0,0,0,1.191.33,12.853,12.853,0,0,0,4.217.117,4.568,4.568,0,0,0,3.347-2.33,2.456,2.456,0,0,1,.561-.926c.765-.6,1.939.1,2.808-.326.717-.356.748-.917.756-1.656A9.59,9.59,0,0,0,448.7,722.735Z" transform="translate(-251.582 -445.549)" fill="#3b7afd"/>
    <path id="Path_489" data-name="Path 489" d="M476.342,718.487a14.312,14.312,0,0,1,.678,4.447,4.291,4.291,0,0,1-.4,2.534,3.463,3.463,0,0,1-2.265,1.3,5.193,5.193,0,0,1-5.082-1.417,5.362,5.362,0,0,1-.917-4.034c.139-1.169.435-2.539-.4-3.369-.217-.222-.5-.378-.7-.617a2.071,2.071,0,0,1-.13-1.982,8.608,8.608,0,0,0,.682-1.961c.035-.322,5.886.226,6.425.491.735.361.622.965.843,1.7C475.377,716.6,475.968,717.513,476.342,718.487Z" transform="translate(-268.791 -441.378)" fill="#3b7afd"/>
    <path id="Path_490" data-name="Path 490" d="M454.358,579.833a4.83,4.83,0,0,1,1.769,3.56c.491,3.717-.37,7.472-.435,11.224-.061,5.255,1.461,10.607.161,15.7-.778,3.043-.117,6.52-.848,9.594-.217.913-.617,1.774-.826,2.686a11.721,11.721,0,0,0,.635,5.981,6.177,6.177,0,0,1,.369,1.621,5.834,5.834,0,0,1-.635,2.452l-2.608,6.168c-.291.691-1.439.8-2.174.9-1.382.165-2.925.283-4.025-.574a5.149,5.149,0,0,1-1.534-3.63,55.638,55.638,0,0,1-.435-7.751,6.386,6.386,0,0,0-.178-2.013,17.632,17.632,0,0,1-.909-2.173c-.183-1.017.335-2.017.526-3.043a9.164,9.164,0,0,0-.043-2.821c-.17-1.391-.365-2.782-.587-4.164a18.456,18.456,0,0,1,.435-5.781,15.939,15.939,0,0,0-.435-5.486,15.12,15.12,0,0,1-.543,4.347c-.23.691-.561,1.352-.761,2.056-.891,3.16,1.008,6.477.739,9.75-.126,1.53-.726,3.043-.556,4.551a15.36,15.36,0,0,0,.982,3.169,4.107,4.107,0,0,1,0,3.238c-1.413,2.669-.356,6.3.909,9.037a12.193,12.193,0,0,1,.669,1.5c.374,1.235.061,2.56.161,3.847a2.426,2.426,0,0,1-2.039-.613c-.191-.2-.348-.435-.535-.643a5.309,5.309,0,0,0-1.817-1.135,2.386,2.386,0,0,0-1.3-.3,2.608,2.608,0,0,0-1.239.769,12.136,12.136,0,0,1-1.365,1.039,1.617,1.617,0,0,1-.7.309.613.613,0,0,1-.639-.326.773.773,0,0,1-.048-.226,34.406,34.406,0,0,1-.256-3.956c0-2.273-2.721-3.838-3.065-6.086-.274-1.813.235-3.66.065-5.486a26.66,26.66,0,0,1-.326-2.8c0-.609.139-1.2.187-1.808a13.527,13.527,0,0,0-.03-2.013l-.135-2.1a18.141,18.141,0,0,0-1.091-6.086,20.679,20.679,0,0,1-1.7-6.99c-.087-1.521-.03-3.043-.2-4.569a22.494,22.494,0,0,1-.4-4.13c.083-1.069.435-2.1.517-3.173.17-2.056-.613-4.056-1.226-6.025s-1.065-4.151-.261-6.051a1.986,1.986,0,0,1,.556-.809,2.427,2.427,0,0,1,1.026-.383,79.6,79.6,0,0,1,22.7-1.448A7.537,7.537,0,0,1,454.358,579.833Z" transform="translate(-245.734 -365.172)" fill="#3f3d56"/>
    <circle id="Ellipse_198" data-name="Ellipse 198" cx="6.964" cy="6.964" r="6.964" transform="translate(176.983 154.564)" fill="#be6f72"/>
    <path id="Path_491" data-name="Path 491" d="M427.686,470.485a2.487,2.487,0,0,1,0,1.213,2.748,2.748,0,0,1-.456.765,19.654,19.654,0,0,1-2.23,2.426,4.039,4.039,0,0,0,2.082,2.056,12.086,12.086,0,0,0,2.873.822,4.052,4.052,0,0,0,1.513.1,4.012,4.012,0,0,0,1.3-.591l3.869-2.317a7.727,7.727,0,0,0,1.608-1.161,3.96,3.96,0,0,0,1.122-2.721.748.748,0,0,0-.139-.513.913.913,0,0,0-.53-.222,4.715,4.715,0,0,1-3.043-2.656,14.069,14.069,0,0,1-1.056-4.03l-4.125,2.173c-.613.326-1.221.652-1.856.935-.4.183-1.221.335-1.508.7C426.565,468.155,427.543,469.663,427.686,470.485Z" transform="translate(-245.087 -300.259)" fill="#be6f72"/>
    <path id="Path_492" data-name="Path 492" d="M423.178,480.81a4.585,4.585,0,0,0-1.335,1.8,4.7,4.7,0,0,0,.243,2.647,78.982,78.982,0,0,1,2.608,11.211c.365,2.608.5,5.255.678,7.894.365,5.382.9,13.962,1.6,19.309,2.608.117,5.151-.643,7.738-.922,4.834-.513,9.811.661,14.545-.435-1.148-4.534-2.3-12.276-3.443-16.805a32.059,32.059,0,0,1-1.052-5.455c-.1-1.326-.039-2.656-.022-3.99.039-2.608-.1-5.216-.248-7.825a49.636,49.636,0,0,0-1.052-9.063,1.686,1.686,0,0,0-.5-1,2.042,2.042,0,0,0-1.517-.135,6.6,6.6,0,0,1-4.512-1.069c-.574-.391-1.343-.869-1.878-.435a1.87,1.87,0,0,0-.435.926,4.629,4.629,0,0,1-2.721,2.682,13.618,13.618,0,0,1-3.851.791,1.891,1.891,0,0,1-1.2-.135c-.617-.378-.661-1.739-1.439-1.83C424.709,478.9,423.639,480.371,423.178,480.81Z" transform="translate(-243.239 -307.446)" fill="#3f3d56"/>
    <path id="Path_493" data-name="Path 493" d="M423.431,491.8c-1.6-1.534-2.308-3.76-3.477-5.651a12.58,12.58,0,0,0-3-3.3,8.963,8.963,0,0,1-1.634-1.387c-.413-.509-.726-1.187-1.352-1.382a1.634,1.634,0,0,0-1.465.4,14.411,14.411,0,0,0-1.087,1.156c-1.843,1.908-5.082,2.173-6.542,4.382a3.591,3.591,0,0,0-.778,1.63,12.632,12.632,0,0,0,2.321,9.085,3.086,3.086,0,0,0,1.608,1.3,5.033,5.033,0,0,0,.313,2.391,63.923,63.923,0,0,0,2.96,8.064,19.5,19.5,0,0,0-.583,3.125c-.3,2.656-.022,5.351-.309,8.012-.235,2.173-.869,4.29-.891,6.468,0,.348.03.761.33.939a1,1,0,0,0,.517.109l5.347.161a43.394,43.394,0,0,0,9.294-.391,3.867,3.867,0,0,0,1.169-.37,3.927,3.927,0,0,0,1.543-3.043,26.516,26.516,0,0,0,.256-4.547c.648,2.047,1.417,4.164,3.373,5.051a7.567,7.567,0,0,0,3.352.4,63.11,63.11,0,0,0,7.3-.752.961.961,0,0,0,1.065-1.117l.026-2.373c.052-4.821-1.143-9.429-1.608-14.228a30.936,30.936,0,0,0-.5-4.525c-.152-.622-.374-1.23-.509-1.856a13.283,13.283,0,0,1-.217-1.856l-.339-4.782c-.161-2.213-.391-4.347-.561-6.555a31.731,31.731,0,0,0-.93-6.373c-.378-1.3-1.165-2.782-2.526-2.943a5.206,5.206,0,0,0-2.121.456,8.572,8.572,0,0,1-5.216-.022,7.348,7.348,0,0,0-1.626-.435,1.6,1.6,0,0,0-1.487.617,2.23,2.23,0,0,0-.23,1.1A57.976,57.976,0,0,1,423.431,491.8Z" transform="translate(-233.207 -307.82)" fill="#3b7afd"/>
    <path id="Path_494" data-name="Path 494" d="M416.94,502.99a26.392,26.392,0,0,0-6.642-5.608,5.305,5.305,0,0,0-3.3-.73,2.47,2.47,0,0,0-2.121,2.321,15.019,15.019,0,0,0,.6,2.03,21.32,21.32,0,0,0,.174,2.373,4.017,4.017,0,0,0,.869,1.334l3.078,3.647a19.813,19.813,0,0,0,4.286,4.117,6.443,6.443,0,0,0,5.695.8,7,7,0,0,0,3.121-2.865c.765-1.217,1.3-2.547,2.021-3.8a18.889,18.889,0,0,1,4.347-5.273,4.829,4.829,0,0,1-2.608-1.3,4.308,4.308,0,0,1-.413-.748l-.7-1.521a1.738,1.738,0,0,0-1.3.491,10.928,10.928,0,0,1-.969.987c-.613.461-1.443.587-2,1.113a5.3,5.3,0,0,0-.582.73A4.877,4.877,0,0,1,416.94,502.99Z" transform="translate(-233.711 -318.88)" fill="#3f3d56"/>
    <path id="Path_495" data-name="Path 495" d="M454.883,474.32c1.508-2.752,1.439-6.051,1.869-9.159a4.182,4.182,0,0,1,.83-2.273c.869-.982,2.4-1,3.717-.869.387.043.869.226.848.613a.783.783,0,0,1-.2.369,10.342,10.342,0,0,0-2.147,5.7c.683.474,1.739-.5,2.4,0,.435.365.235,1.087-.026,1.608q-.908,1.813-1.874,3.6a11.558,11.558,0,0,1-1.987,2.865c-.552.53-1.2.948-1.761,1.469-1.3,1.221-2.091,2.947-3.438,4.138a.7.7,0,0,1-.435.222.73.73,0,0,1-.456-.2,6.59,6.59,0,0,1-1.643-1.987c-.513-.948-.435-1.226.374-1.9A14.367,14.367,0,0,0,454.883,474.32Z" transform="translate(-259.365 -299.299)" fill="#be6f72"/>
    <path id="Path_496" data-name="Path 496" d="M416.228,499.44c.261.161.582.343.869.209a.9.9,0,0,0,.291-.283,10.229,10.229,0,0,0,1.235-2.147.826.826,0,0,0,.091-.348c0-.278-.248-.482-.478-.643a17.723,17.723,0,0,0-3.951-1.878,8.153,8.153,0,0,0-3.565-.7,3.4,3.4,0,0,0-2.378,1.208c-.869,1.117.587,1.456,1.5,1.861C411.955,497.675,414.242,498.232,416.228,499.44Z" transform="translate(-235.52 -317.199)" fill="#3b7afd"/>
    <path id="Path_497" data-name="Path 497" d="M423.671,518.871a.639.639,0,0,0,.183.548c.126-.617-.039-1.269.091-1.891.191-.935,1.1-1.639,1.178-2.578C423.458,514.624,423.684,517.863,423.671,518.871Z" transform="translate(-244.332 -329.24)" opacity="0.1"/>
    <path id="Path_498" data-name="Path 498" d="M565.229,358.04v4.282L547.555,363.4l-.535-4.286Z" transform="translate(-309.245 -202.402)" opacity="0.2"/>
    <path id="Path_499" data-name="Path 499" d="M417.1,448.355c1.1-.9.465-2.786,1.213-3.995a3.882,3.882,0,0,1,1.891-1.3,8.6,8.6,0,0,1,2.76-.765,3.2,3.2,0,0,1,2.608.961c.283.322.474.713.739,1.048a2.826,2.826,0,0,0,2.739.948c.578-.13,1.178-.57,1.139-1.161a1.639,1.639,0,0,0-.522-.93l-1.243-1.378c-1.413-1.565-2.982-3.225-5.055-3.617a8.672,8.672,0,0,0-4.312.578c-.561.187-1.191.465-1.348,1.035-.1.391.052.817-.039,1.213-.178.787-1.187,1.052-1.656,1.713s-.326,1.443-.461,2.174a19,19,0,0,0-.574,2.2c-.03.456.2,1.3.713,1.469S416.78,447.812,417.1,448.355Z" transform="translate(-239.419 -285.793)" fill="#3f3d56"/>
    <path id="Path_500" data-name="Path 500" d="M429.284,438.819a13.04,13.04,0,0,0-2.313-5.286,9.263,9.263,0,0,0-4.117-3.269,5.894,5.894,0,0,0-5.125.4,7.441,7.441,0,0,0-2.56,3.23c-1.126,2.426-1.543,5.39-.235,7.72.522-.635,1.417-.348,2.208-.578a23.031,23.031,0,0,0,2.773-1.356C422.763,438.428,426.241,439.445,429.284,438.819Z" transform="translate(-238.938 -281.151)" fill="#ffb74d"/>
    <path id="Path_501" data-name="Path 501" d="M417.362,447.1a2.656,2.656,0,0,1,.391-2.247.283.283,0,0,1,.23-.1.3.3,0,0,1,.178.156,9.736,9.736,0,0,1,.817,1.6,1.66,1.66,0,0,0-1.739.674" transform="translate(-240.7 -289.569)" opacity="0.1"/>
    <path id="Path_502" data-name="Path 502" d="M440.624,442.27l-.156-1.552a.708.708,0,0,1,.03-.383.491.491,0,0,1,.635-.174,1.3,1.3,0,0,1,.509.509,9.13,9.13,0,0,1,.9,1.769,5.26,5.26,0,0,0-2.117.026" transform="translate(-253.804 -286.945)" opacity="0.1"/>
    <path id="Path_503" data-name="Path 503" d="M414.368,502.21v3.547l-3,.2H395.62V502.21Z" transform="translate(-223.658 -283.903)" opacity="0.1"/>
    <path id="Path_504" data-name="Path 504" d="M349.6,422.112v3.747H330.847L281.04,363.467V360.52h10.441Z" transform="translate(-158.885 -203.804)" fill="#f1c0c0"/>
    <path id="Path_505" data-name="Path 505" d="M349.6,422.112v3.747H330.847L281.04,363.467V360.52h10.441Z" transform="translate(-158.885 -203.804)" opacity="0.1"/>
    <path id="Path_506" data-name="Path 506" d="M349.6,422.112v3.747H330.847L281.04,363.467V360.52l50.077,61.592Z" transform="translate(-158.885 -203.804)" opacity="0.1"/>
    <path id="Path_507" data-name="Path 507" d="M300.4,730a1.3,1.3,0,0,1-1.139,1.535,7.746,7.746,0,0,0-3.347,1.739c-.856.926-1.026,2.643,0,3.4a3.3,3.3,0,0,0,1.739.474,11.783,11.783,0,0,0,5.808-.726c1.278-.591,2.482-1.6,3.886-1.508.726.043,1.5.383,2.147.052s.83-1.252.835-2.021a14.966,14.966,0,0,0-.717-4.734,19,19,0,0,0-3.16-.435l-3.352-.435c-.635-.083-2-.561-2.5-.03S300.4,729.374,300.4,730Z" transform="translate(-171.712 -449.162)" fill="#3b7afd"/>
    <path id="Path_508" data-name="Path 508" d="M353.009,700.475a10.5,10.5,0,0,0,.687,2.278,5.3,5.3,0,0,0,2.2,3.013,3.926,3.926,0,0,0,3.356-.161,2.764,2.764,0,0,0,1.117-.848,3.364,3.364,0,0,0,.435-1.952,10.662,10.662,0,0,0-.869-4.916c-.661-1.3-1.813-2.426-1.83-3.869l-3.96.765a1.131,1.131,0,0,0-.582.23,1,1,0,0,0-.252.474A12.94,12.94,0,0,0,353.009,700.475Z" transform="translate(-204.324 -430.483)" fill="#3b7afd"/>
    <path id="Path_509" data-name="Path 509" d="M244.273,604.534a6.471,6.471,0,0,0,.635,4.108,3.179,3.179,0,0,0,3.6,1.526.526.526,0,0,0,.326-.248.613.613,0,0,0-.056-.435,6.416,6.416,0,0,1,.135-4.834c.087-.2.274-.435.478-.356a.435.435,0,0,1,.2.2,2.274,2.274,0,0,1,.3,1.2,4.462,4.462,0,0,0-.035,1.152c.083.374.483.726.83.565a.869.869,0,0,0,.4-.561c.969-2.8.53-5.868.087-8.8a.461.461,0,0,0-.517-.483c-2.052-.2-3.173-.7-4.347,1.213A11.916,11.916,0,0,0,244.273,604.534Z" transform="translate(-142.879 -375.837)" fill="#3b7afd"/>
    <path id="Path_510" data-name="Path 510" d="M297.911,595.837a26.657,26.657,0,0,0-.9,12.528l.456,3.765c.156,1.269.309,2.534.53,3.79a10.063,10.063,0,0,1,.23,1.969,10.547,10.547,0,0,1-.309,1.934,22.6,22.6,0,0,0-.456,4.043c-.048,2.173.222,4.347.391,6.52a72.613,72.613,0,0,1-.152,13.006,4.877,4.877,0,0,0,.713,3.352,4.311,4.311,0,0,1,.63,1.035c.326,1-.435,1.991-.63,3.012a3.043,3.043,0,0,0,2.53,3.478c3.478.413,7.051.226,10.185,1.817.33-.965-.391-2.06-.061-3.043.209-.608.782-1,1.174-1.517a4.417,4.417,0,0,0,.748-2.652,9.69,9.69,0,0,0-.643-3.595,7.776,7.776,0,0,1-.869-2.925,3.7,3.7,0,0,0-.026-1.5,2.342,2.342,0,0,0-.561-.7A8.837,8.837,0,0,1,308.621,635a23.725,23.725,0,0,1,.183-5.712,9.7,9.7,0,0,1,1.643-5.1,32.747,32.747,0,0,1,.917-12.715c.113-.383.291-.826.682-.917a.974.974,0,0,1,.835.33,5.7,5.7,0,0,1,1.3,2.452,5.346,5.346,0,0,1,.409,2.969c-.1.435-.313.817-.435,1.234a3.66,3.66,0,0,0,.13,2.552,2.452,2.452,0,0,1,.313.961,2.661,2.661,0,0,1-.261.835A3.843,3.843,0,0,0,314.7,625a11.252,11.252,0,0,0,2.03,2.491,9.129,9.129,0,0,0,.283,5.025.635.635,0,0,1,.057.483c-.078.165-.278.226-.435.343-.435.356-.165,1.03.126,1.5a34.286,34.286,0,0,0,2.639,3.66c.869,1.039.791,3.043,2.087,3.417a3.911,3.911,0,0,0,1.652,0c1.278-.2,2.7-.565,3.33-1.7a4.562,4.562,0,0,1,.761-1.378c.4-.348.917-.409,1.139-.826s-.026-.965.048-1.448.5-.869.63-1.378c.322-1.174-1.048-2.139-1.234-3.338-.27-1.739,1.921-3.043,1.83-4.782-.191-3.777-.313-7.572-.509-11.35a81.847,81.847,0,0,1-.1-10.167c.152-2.108.435-4.317-.339-6.277-1.113-2.765-4.182-4.317-7.151-4.612s-5.929.409-8.872.869A56.075,56.075,0,0,1,297.911,595.837Z" transform="translate(-172.53 -374.273)" fill="#3f3d56"/>
    <circle id="Ellipse_199" data-name="Ellipse 199" cx="6.964" cy="6.964" r="6.964" transform="translate(127.241 166.088)" fill="#fbbebe"/>
    <path id="Path_511" data-name="Path 511" d="M309.563,499.172a2.969,2.969,0,0,1-2.839,1.8,3.5,3.5,0,0,0,1.043,2.917,12.38,12.38,0,0,0,11.85,4.064,5.848,5.848,0,0,0,2.334-.974,5.177,5.177,0,0,0,1.782-3.086,15.345,15.345,0,0,0,.17-3.63.939.939,0,0,0-.191-.669.957.957,0,0,0-.609-.2,10.554,10.554,0,0,1-4.295-.909c-1.291-.722-2.208-2.352-1.587-3.69a15.586,15.586,0,0,1-2.973.352c-1.048.148-2.1.313-3.138.5a5.7,5.7,0,0,0-1.474.278c-.63.326-.4.165-.248.756A3.6,3.6,0,0,1,309.563,499.172Z" transform="translate(-178.192 -317.857)" fill="#fbbebe"/>
    <path id="Path_512" data-name="Path 512" d="M281.918,508.018a11.529,11.529,0,0,1-2.786-.309,3.912,3.912,0,0,1-2.286-1.526c-.322-.487-.53-1.1-1.043-1.374-.839-.435-1.8.3-2.465.974a8.955,8.955,0,0,1-2.1,1.687c-.93.491-2.017.665-2.9,1.243a7.276,7.276,0,0,0-1.739,1.878l-6.16,8.39c-2.473,3.373-4.625,6.994-6.829,10.554-1.908,3.082-2.908,6.629-4.347,9.954a1.113,1.113,0,0,0-.135.669c.052.226.326.409.517.278-.648.643-.078,1.739-.23,2.643a3.243,3.243,0,0,1-1.035,1.621,8.175,8.175,0,0,1,2.869.135,8.792,8.792,0,0,1,2.712,1.3c.526-.083.478-1.017.869-1.365.235-.2.582-.178.891-.239,1.161-.226,1.621-1.621,2.513-2.408.743-.656,1.8-.869,2.582-1.487,1.278-1,1.552-2.791,2.221-4.273.569-1.256,1.465-2.352,1.965-3.638a15.675,15.675,0,0,1,.948-2.508,7.181,7.181,0,0,1,3.478-2.5,5.759,5.759,0,0,1,2.647-.709A24.585,24.585,0,0,0,272.22,533c.152.7.365,1.374.548,2.065a38.881,38.881,0,0,1,1.065,9.563,29.1,29.1,0,0,1,6.086-.73c1.613-.048,3.221.161,4.834.13,1.913-.035,3.8-.4,5.716-.535a10.678,10.678,0,0,1,5.6.869,53.231,53.231,0,0,1,.23-8.259l.461-4.321a26.558,26.558,0,0,1,.578-3.73c.252-.991.617-1.947.9-2.934.978-3.478.8-7.19.613-10.811a13.626,13.626,0,0,0-1.656-5.347,14.469,14.469,0,0,0-1.043-1.774,10.272,10.272,0,0,0-8.981-4.216,1.816,1.816,0,0,0-.643.139,2.143,2.143,0,0,0-.822.978,10.65,10.65,0,0,1-3.786,3.93Z" transform="translate(-145.248 -322.47)" fill="#3f3d56"/>
    <path id="Path_513" data-name="Path 513" d="M302.988,477.24c.2-.435.722-.6,1.043-.943.617-.661.339-1.717.435-2.608a3.747,3.747,0,0,1,2.478-2.86,8.007,8.007,0,0,1,3.912-.248,3.786,3.786,0,0,1,1.765.587c.226.165.435.378.648.53a1.739,1.739,0,0,0,2.365-.552c-1.539-1.852-3.243-3.808-5.582-4.377a11.451,11.451,0,0,0-2.439-.23,7.919,7.919,0,0,0-3.2.374,5.333,5.333,0,0,0-2.808,3.243,15.765,15.765,0,0,0-.682,4.347,16.375,16.375,0,0,0,0,2.956,8.173,8.173,0,0,0,1.452,3.725,1.127,1.127,0,0,0,.435.4C304.792,482.456,302.827,477.6,302.988,477.24Z" transform="translate(-174.908 -301.881)" fill="#3f3d56"/>
    <path id="Path_514" data-name="Path 514" d="M313.523,464.265c-.239-2.047-1.7-3.738-3.252-5.1a11.988,11.988,0,0,0-4.369-2.63,5.838,5.838,0,0,0-4.929.6,7.573,7.573,0,0,0-2.4,3.3,10.384,10.384,0,0,0-1.048,4.782,5.155,5.155,0,0,0,2.334,4.138,4.39,4.39,0,0,1,2.26-1.456A110.659,110.659,0,0,1,313.523,464.265Z" transform="translate(-173.024 -296.073)" fill="#ffb74d"/>
    <path id="Path_515" data-name="Path 515" d="M303.385,472.72c.139,0,.23.143.3.261a11.014,11.014,0,0,1,.909,1.739c-.509.109-1.382.23-1.634-.217C302.824,474.276,302.985,472.7,303.385,472.72Z" transform="translate(-176.07 -305.38)" opacity="0.1"/>
    <path id="Path_516" data-name="Path 516" d="M326.5,467.669c-.1.1-.226-.1-.226-.252V465.73a.248.248,0,0,1,.03-.135.2.2,0,0,1,.143-.07c.352-.039.643.261.869.548a9.178,9.178,0,0,1,.891,1.482l-1.839-.057" transform="translate(-189.274 -301.311)" opacity="0.1"/>
    <path id="Path_517" data-name="Path 517" d="M361.47,520.179a11.376,11.376,0,0,1,1.278-1.048,19.287,19.287,0,0,1,4.012-1.635,5.294,5.294,0,0,0,3.252-2.691,6.391,6.391,0,0,0,.252-2.608,2.608,2.608,0,0,0-.191-1.074,2.135,2.135,0,0,0-.687-.748c-1.835-1.356-4.295-1.465-6.573-1.326a41.2,41.2,0,0,0-14.523,3.625,1.26,1.26,0,0,0-.609.435,1.243,1.243,0,0,0-.117.6,10,10,0,0,0,.491,3.786c.6,1.548,1.834,2.8,2.352,4.373.235.709.313,1.461.517,2.173a3.043,3.043,0,0,0,1.221,1.817c1.717,1.026,3.338-.352,4.53-1.422Z" transform="translate(-201.301 -325.892)" fill="#3f3d56"/>
    <path id="Path_518" data-name="Path 518" d="M307.592,521.574l-2.2-4.808a16.823,16.823,0,0,1-.835-2.056c-.252-.839-.374-1.708-.609-2.552-.774-2.808-2.726-5.147-3.678-7.9a1.5,1.5,0,0,0-.356-.665,1.161,1.161,0,0,0-.969-.174c-1.33.23-2.369,1.243-3.586,1.817-.565.261-1.174.435-1.739.735a2.174,2.174,0,0,0-1.165,1.387,3.39,3.39,0,0,0,.474,1.952,22.043,22.043,0,0,1,1.5,8.572c.039,1.965-.061,4.073-1.221,5.651-2.23,3.043-.8,7.511.03,11.193.1.435.217.9.287,1.365a12.545,12.545,0,0,1,.1,1.739,13.607,13.607,0,0,1-.926,5.734,6.417,6.417,0,0,0,2.608.739q3.786.482,7.6.678a8.287,8.287,0,0,0,2.386-.122,4.347,4.347,0,0,0,3.212-4.26,5.374,5.374,0,0,0,1.269,3.347,5.056,5.056,0,0,0,3.334,1.026,61.986,61.986,0,0,0,10.041-.283,1.74,1.74,0,0,0,.617-.143c.643-.322.678-1.208.626-1.921-.1-1.334-.2-2.669-.356-3.995a16.35,16.35,0,0,1-.209-2.556,14.705,14.705,0,0,1,.435-2.608,29.581,29.581,0,0,0,.848-8.259,13.939,13.939,0,0,1-.083-2.039c.113-1.535.922-3,.769-4.521-.435-4.486-.787-9.089-2.039-13.419a3.478,3.478,0,0,0-1.187-2.047c-.869-.582-2.091-.278-3.086-.648a7.714,7.714,0,0,1-1.326-.787,6.086,6.086,0,0,0-3-.921,2.542,2.542,0,0,0-2.173.791,3.155,3.155,0,0,0-.435,1.187c-.63,2.652-1.369,5.273-2.108,7.894l-.709,2.513-1.9,6.746C307.658,520.674,307.784,520.9,307.592,521.574Z" transform="translate(-169.91 -321.267)" fill="#3b7afd"/>
    <path id="Path_519" data-name="Path 519" d="M331.538,400.25l42.048,44.187v3.747H354.838l-31.6-41.239" transform="translate(-182.741 -226.264)" fill="#f1c0c0"/>
    <path id="Path_520" data-name="Path 520" d="M331.538,400.25l42.048,44.187v3.747H354.838l-31.6-41.239" transform="translate(-182.741 -226.264)" opacity="0.1"/>
    <path id="Path_521" data-name="Path 521" d="M323.909,414.31l.135.048,31.063,38.027h18.479v3.747H354.838l-31.6-41.239Z" transform="translate(-182.741 -234.212)" opacity="0.1"/>
    <path id="Path_522" data-name="Path 522" d="M342.117,501.848c-1.521.665-3.212,1.517-3.669,3.117a1.791,1.791,0,0,0-.057.869,1.773,1.773,0,0,0,1.6,1.221,5.217,5.217,0,0,0,2.091-.383l8.976-2.965c.243-.078.522-.2.583-.435a.748.748,0,0,0-.087-.435c-.278-.678-.552-2.065-1.135-2.539-.478-.383-1.426-.248-2-.239A16.251,16.251,0,0,0,342.117,501.848Z" transform="translate(-196.111 -320.819)" fill="#3b7afd"/>
    <path id="Path_523" data-name="Path 523" d="M362.917,502.881a14.437,14.437,0,0,1,4.456.691,7.937,7.937,0,0,1,3.69,2.521,2.765,2.765,0,0,1,.583,1.139c.087.435,1.5.7,1.191.991.952-.152.726.3,1.691.287a3.2,3.2,0,0,0,2.586-1.026,3.36,3.36,0,0,0,.509-2.126,3.62,3.62,0,0,0-.287-1.5,4.441,4.441,0,0,0-2.356-1.826l-7.764-3.551a5.154,5.154,0,0,0-1.434-.509,5.362,5.362,0,0,0-1.265.03l-3.517.4a5.273,5.273,0,0,1,2.4,4.638" transform="translate(-208.908 -319.64)" fill="#3f3d56"/>
  </g>
</svg>
