<svg xmlns="http://www.w3.org/2000/svg" width="319.291" height="218.21" viewBox="0 0 319.291 218.21">
  <g id="custom_illustration" transform="translate(0)">
    <path id="Path_184" data-name="Path 184" d="M912.244,616.4c-2.184,7.578-8.563,12.883-15.217,17.39q-1.394.944-2.788,1.845l-.019.011c-.045.029-.09.057-.131.086l-.574.37.1.047s.1.055-.01.009l-.1-.041c-3.865-1.559-7.8-3.233-10.761-6.153-3.073-3.033-4.869-7.789-3.2-11.773a7.606,7.606,0,0,1,.824-1.478c.135-.193.28-.378.432-.559a8.153,8.153,0,0,1,14,2.478c.489-4.551-3.264-8.364-6.876-11.177s-7.719-5.874-8.417-10.4a8.821,8.821,0,0,1,2.081-6.918c.049-.06.1-.119.15-.177a11.9,11.9,0,0,1,7.648-4.1c5.54-.576,10.922,2.357,14.947,6.209C910.811,598.265,914.728,607.785,912.244,616.4Z" transform="translate(-598.663 -417.967)" fill="#0abb92"/>
    <path id="Path_185" data-name="Path 185" d="M903.745,611.941a20.23,20.23,0,0,1,2.423,5.345,17.558,17.558,0,0,1,.607,5.187,22.5,22.5,0,0,1-2.947,10.241,32.389,32.389,0,0,1-4.886,6.529q-1.394.944-2.788,1.845c-.006,0-.013.009-.019.012-.045.029-.089.057-.131.086l-.574.37s.207.1.095.056l-.1-.041a17.745,17.745,0,0,0-13.143-19.4c.135-.193.28-.378.432-.559a18.724,18.724,0,0,1,3.09,1.169,18.343,18.343,0,0,1,8.294,8,18.754,18.754,0,0,1,2.042,10.292c.159-.144.318-.291.472-.437a32.887,32.887,0,0,0,7.312-9.509,20.936,20.936,0,0,0,2.192-9.905,18.921,18.921,0,0,0-3.794-10.225,43.817,43.817,0,0,0-8.307-8.561,49.8,49.8,0,0,0-10.331-6.378.358.358,0,0,1-.18-.459.3.3,0,0,1,.15-.177.265.265,0,0,1,.23.01c.456.21.908.422,1.357.644a50.359,50.359,0,0,1,10.4,6.863A40.541,40.541,0,0,1,903.745,611.941Z" transform="translate(-600.577 -423.419)" fill="#fff"/>
    <path id="Path_186" data-name="Path 186" d="M497.027,197.674H234.562a3.774,3.774,0,0,0-3.77,3.771V379.3a3.774,3.774,0,0,0,3.77,3.771H497.027a3.767,3.767,0,0,0,2.867-1.323.88.88,0,0,0,.082-.1,3.533,3.533,0,0,0,.541-.912,3.679,3.679,0,0,0,.285-1.431V201.445A3.775,3.775,0,0,0,497.027,197.674Zm2.7,181.625a2.67,2.67,0,0,1-.445,1.479,2.788,2.788,0,0,1-1.02.917,2.675,2.675,0,0,1-1.232.3H234.562a2.7,2.7,0,0,1-2.694-2.694V201.445a2.7,2.7,0,0,1,2.694-2.694H497.027a2.7,2.7,0,0,1,2.7,2.694Z" transform="translate(-230.791 -197.674)" fill="#c1d3ff"/>
    <rect id="Rectangle_225" data-name="Rectangle 225" width="268.933" height="1.078" transform="translate(0.537 15.112)" fill="#c1d3ff"/>
    <circle id="Ellipse_35" data-name="Ellipse 35" cx="3.234" cy="3.234" r="3.234" transform="translate(6.466 4.85)" fill="#d55438"/>
    <circle id="Ellipse_36" data-name="Ellipse 36" cx="3.234" cy="3.234" r="3.234" transform="translate(15.763 4.85)" fill="#c1d3ff"/>
    <circle id="Ellipse_37" data-name="Ellipse 37" cx="3.234" cy="3.234" r="3.234" transform="translate(25.059 4.85)" fill="#0abb92"/>
    <path id="Path_187" data-name="Path 187" d="M622.152,350.133a8.723,8.723,0,1,1,8.723-8.723,8.723,8.723,0,0,1-8.723,8.723Zm0-16.62a7.9,7.9,0,1,0,7.9,7.9,7.9,7.9,0,0,0-7.9-7.9Z" transform="translate(-447.977 -274.308)" fill="#0abb92"/>
    <path id="Path_395" data-name="Path 395" d="M628,351.9a.861.861,0,0,1-.518-.172l-.009-.007-1.953-1.494a.868.868,0,1,1,1.056-1.378l1.265.97,2.989-3.9a.867.867,0,0,1,1.216-.161h0l-.019.026.019-.026a.869.869,0,0,1,.16,1.217l-3.516,4.585a.868.868,0,0,1-.69.338Z" transform="translate(-454.644 -281.623)" fill="#0abb92"/>
    <path id="Path_188" data-name="Path 188" d="M679.877,350.133a8.723,8.723,0,1,1,8.723-8.723A8.723,8.723,0,0,1,679.877,350.133Zm0-16.62a7.9,7.9,0,1,0,7.9,7.9A7.9,7.9,0,0,0,679.877,333.513Z" transform="translate(-480.742 -274.308)" fill="#e6e6e6"/>
    <path id="Path_189" data-name="Path 189" d="M690.345,351.6a.559.559,0,0,1-.79,0l-2.093-2.093a.249.249,0,0,0-.352,0l-2.093,2.093a.558.558,0,1,1-.79-.79l2.093-2.093a.249.249,0,0,0,0-.352l-2.093-2.093a.558.558,0,0,1,.79-.79l2.093,2.093a.249.249,0,0,0,.352,0l2.093-2.093a.558.558,0,0,1,.79.79l-2.093,2.093a.249.249,0,0,0,0,.352l2.093,2.093A.559.559,0,0,1,690.345,351.6Z" transform="translate(-488.069 -281.475)" fill="#e6e6e6"/>
    <path id="Path_190" data-name="Path 190" d="M622.152,414.183a8.723,8.723,0,1,1,8.723-8.723,8.723,8.723,0,0,1-8.723,8.723Zm0-16.62a7.9,7.9,0,1,0,7.9,7.9,7.9,7.9,0,0,0-7.9-7.9Z" transform="translate(-447.977 -310.662)" fill="#0abb92"/>
    <path id="Path_395-2" data-name="Path 395" d="M628,415.945a.862.862,0,0,1-.519-.172l-.009-.007-1.953-1.494a.868.868,0,1,1,1.056-1.378l1.265.97,2.989-3.9a.868.868,0,0,1,1.216-.161h0l-.019.026.019-.026a.869.869,0,0,1,.16,1.217l-3.516,4.585a.868.868,0,0,1-.69.338Z" transform="translate(-454.644 -317.978)" fill="#0abb92"/>
    <path id="Path_191" data-name="Path 191" d="M679.877,414.183a8.723,8.723,0,1,1,8.723-8.723A8.723,8.723,0,0,1,679.877,414.183Zm0-16.62a7.9,7.9,0,1,0,7.9,7.9,7.9,7.9,0,0,0-7.9-7.9Z" transform="translate(-480.742 -310.662)" fill="#e6e6e6"/>
    <path id="Path_192" data-name="Path 192" d="M690.344,415.645a.559.559,0,0,1-.79,0l-2.093-2.093a.249.249,0,0,0-.352,0l-2.093,2.093a.558.558,0,1,1-.79-.79l2.093-2.093a.249.249,0,0,0,0-.352l-2.093-2.093a.558.558,0,0,1,.79-.79l2.093,2.093a.249.249,0,0,0,.352,0l2.093-2.093a.558.558,0,1,1,.79.79l-2.093,2.093a.249.249,0,0,0,0,.352l2.093,2.093a.559.559,0,0,1,0,.79Z" transform="translate(-488.069 -317.83)" fill="#e6e6e6"/>
    <path id="Path_193" data-name="Path 193" d="M622.152,478.232a8.723,8.723,0,1,1,8.723-8.723,8.723,8.723,0,0,1-8.723,8.723Zm0-16.62a7.9,7.9,0,1,0,7.9,7.9,7.9,7.9,0,0,0-7.9-7.9Z" transform="translate(-447.977 -347.017)" fill="#e6e6e6"/>
    <path id="Path_395-3" data-name="Path 395" d="M628,479.995a.861.861,0,0,1-.518-.172l-.009-.007-1.953-1.494a.868.868,0,0,1,1.056-1.378l1.265.97,2.989-3.9a.868.868,0,0,1,1.216-.161h0l-.019.026.019-.026a.869.869,0,0,1,.16,1.217l-3.516,4.585a.868.868,0,0,1-.69.339Z" transform="translate(-454.644 -354.333)" fill="#e6e6e6"/>
    <path id="Path_194" data-name="Path 194" d="M679.877,478.232a8.723,8.723,0,1,1,8.723-8.723A8.723,8.723,0,0,1,679.877,478.232Zm0-16.62a7.9,7.9,0,1,0,7.9,7.9,7.9,7.9,0,0,0-7.9-7.9Z" transform="translate(-480.742 -347.017)" fill="#e6e6e6"/>
    <path id="Path_195" data-name="Path 195" d="M690.344,479.7a.559.559,0,0,1-.79,0l-2.093-2.093a.249.249,0,0,0-.352,0l-2.093,2.093a.558.558,0,1,1-.79-.79l2.093-2.093a.249.249,0,0,0,0-.352l-2.093-2.093a.558.558,0,0,1,.79-.79l2.093,2.093a.249.249,0,0,0,.352,0l2.093-2.093a.558.558,0,1,1,.79.79l-2.093,2.093a.249.249,0,0,0,0,.352l2.093,2.093A.559.559,0,0,1,690.344,479.7Z" transform="translate(-488.069 -354.185)" fill="#e6e6e6"/>
    <path id="Path_196" data-name="Path 196" d="M751.385,700.9H586.641a.432.432,0,0,1,0-.865H751.385a.432.432,0,1,1,0,.865Z" transform="translate(-432.527 -482.813)" fill="#3f3d56"/>
    <path id="Path_197" data-name="Path 197" d="M638.648,417.969a4.348,4.348,0,0,0,6.308-2.16l15.443.514-4.195-6.847-14.022.562a4.372,4.372,0,0,0-3.534,7.931Z" transform="translate(-461.079 -317.894)" fill="#ffb8b8"/>
    <path id="Path_198" data-name="Path 198" d="M832.745,477.987a4.348,4.348,0,0,0-1.021-6.589l3.211-15.114-7.475,2.931-1.9,13.9a4.372,4.372,0,0,0,7.189,4.868Z" transform="translate(-568.103 -344.461)" fill="#ffb8b8"/>
    <path id="Path_199" data-name="Path 199" d="M518.1,464.133h-5.3l-2.522-20.447H518.1Z" transform="translate(-289.634 -251.836)" fill="#ffb8b8"/>
    <path id="Path_200" data-name="Path 200" d="M739.849,691.514H722.756V691.3a6.653,6.653,0,0,1,6.653-6.653h10.44Z" transform="translate(-510.031 -474.079)" fill="#2f2e41"/>
    <path id="Path_201" data-name="Path 201" d="M578.1,464.133h-5.3l-2.522-20.447H578.1Z" transform="translate(-323.69 -251.836)" fill="#ffb8b8"/>
    <path id="Path_202" data-name="Path 202" d="M799.849,691.514H782.756V691.3a6.653,6.653,0,0,1,6.653-6.653h10.44Z" transform="translate(-544.087 -474.079)" fill="#2f2e41"/>
    <path id="Path_203" data-name="Path 203" d="M748.135,565.483l-7.5-.3a1.952,1.952,0,0,1-1.867-2l2.114-69.348.138-.05c13.152-4.758,24.032-4.4,33.263,1.1l.1.062,1.266,67.542a1.946,1.946,0,0,1-1.946,1.983h-6.328a1.95,1.95,0,0,1-1.909-1.57l-8.62-43.849a.649.649,0,0,0-1.28.047l-5.421,44.68a1.957,1.957,0,0,1-1.933,1.711Z" transform="translate(-519.117 -363.863)" fill="#3b7afd"/>
    <circle id="Ellipse_38" data-name="Ellipse 38" cx="10.62" cy="10.62" r="10.62" transform="translate(225.698 47.912)" fill="#ffb8b8"/>
    <path id="Path_204" data-name="Path 204" d="M661.737,398.961a1.948,1.948,0,0,1,0-1.161l1.1-3.525a1.952,1.952,0,0,1,1.772-1.364l13.933-.616,22.605-11.588a6.268,6.268,0,0,1,3.8,11.947l-13.853,8.035a20.052,20.052,0,0,1-13.921,2.333l-13.951-2.733a1.948,1.948,0,0,1-1.3-.913A1.926,1.926,0,0,1,661.737,398.961Z" transform="translate(-475.346 -301.396)" fill="#ccc"/>
    <path id="Path_205" data-name="Path 205" d="M815.128,422.126a1.948,1.948,0,0,1-1.16.05l-3.569-.949a1.952,1.952,0,0,1-1.438-1.712l-1.209-13.894-12.54-22.091a6.268,6.268,0,1,1,11.775-4.3l8.618,13.5a20.052,20.052,0,0,1,2.924,13.809l-2.136,14.055a1.948,1.948,0,0,1-.857,1.335,1.925,1.925,0,0,1-.406.2Z" transform="translate(-550.939 -298.386)" fill="#ccc"/>
    <path id="Path_206" data-name="Path 206" d="M744.139,368.914a18.084,18.084,0,0,1,14.5-5.863q.266.016.531.037h0a18.046,18.046,0,0,1,13.041,7.2,18.317,18.317,0,0,1,3.254,14.764,57.233,57.233,0,0,0,1.512,29.35l2.849,8.846a1.945,1.945,0,0,1-1.748,2.539l-14.565.783-3.727-6.438v6.639l-17.7.952c-.035,0-.07,0-.105,0a1.946,1.946,0,0,1-1.939-2.1l2-24.812-2.51-16.852a18.2,18.2,0,0,1,4.608-15.044Z" transform="translate(-519.437 -291.522)" fill="#ccc"/>
    <path id="Path_207" data-name="Path 207" d="M766.265,325.894c-.983.566-4.87.941-5.147-.159l-.006-.024a8.283,8.283,0,0,1,.023-2.475,3.1,3.1,0,0,0-.589-2.343c-1.05-1.133-2.918-.533-4.436-.819a3.746,3.746,0,0,1-2.914-4c.022-.172.055-.344.094-.516a2.885,2.885,0,0,0-3-3.494c-1.534.088-3.19.553-4.46-.584-.982-.879-1.221-3.166-.79-4.411.725-2.092,5.368-3.187,7.395-3.789a17.564,17.564,0,0,1,14.888,2.443,7.883,7.883,0,0,1,3.022,3.5,3.838,3.838,0,0,1-.948,4.29,7.927,7.927,0,0,1,1.836,7.7C770.63,323.174,767.729,325.052,766.265,325.894Z" transform="translate(-522.566 -257.223)" fill="#2f2e41"/>
    <path id="Path_208" data-name="Path 208" d="M361.81,349.066h-68a3.307,3.307,0,1,1,0-6.614h68a3.307,3.307,0,1,1,0,6.614Z" transform="translate(-264.684 -279.85)" fill="#3b7afd"/>
    <path id="Path_209" data-name="Path 209" d="M398.684,363.134H281.937a.432.432,0,1,1,0-.865H398.684a.432.432,0,1,1,0,.865Z" transform="translate(-259.576 -291.099)" fill="rgba(193,211,255,0.1)"/>
    <path id="Path_210" data-name="Path 210" d="M361.81,413.115h-68a3.307,3.307,0,0,1,0-6.614h68a3.307,3.307,0,0,1,0,6.614Z" transform="translate(-264.684 -316.205)" fill="#3b7afd"/>
    <path id="Path_211" data-name="Path 211" d="M398.684,427.184H281.937a.432.432,0,1,1,0-.865H398.684a.432.432,0,1,1,0,.865Z" transform="translate(-259.576 -327.454)" fill="rgba(193,211,255,0.1)"/>
    <path id="Path_212" data-name="Path 212" d="M361.81,477.165h-68a3.307,3.307,0,1,1,0-6.614h68a3.307,3.307,0,1,1,0,6.614Z" transform="translate(-264.684 -352.56)" fill="#f2f2f2"/>
    <path id="Path_213" data-name="Path 213" d="M398.684,491.234H281.937a.432.432,0,1,1,0-.865H398.684a.432.432,0,1,1,0,.865Z" transform="translate(-259.576 -363.808)" fill="rgba(193,211,255,0.1)"/>
  </g>
</svg>
