<svg xmlns="http://www.w3.org/2000/svg" xmlns:xlink="http://www.w3.org/1999/xlink" width="529" height="296" viewBox="0 0 529 296">
  <defs>
    <clipPath id="clip-path">
      <path id="Rectangle_387" data-name="Rectangle 387" d="M10,0H519a10,10,0,0,1,10,10V296a0,0,0,0,1,0,0H0a0,0,0,0,1,0,0V10A10,10,0,0,1,10,0Z" fill="#a0ffe6"/>
    </clipPath>
  </defs>
  <g id="custom" clip-path="url(#clip-path)">
    <g id="Group_506" data-name="Group 506" transform="translate(-76.618 -69.607)">
      <g id="Group_511" data-name="Group 511" transform="translate(67.01 53.985)">
        <path id="Path_410" data-name="Path 410" d="M350.169,363.2a7.443,7.443,0,0,0-6.8-4.553H207.545A7.366,7.366,0,0,0,200.183,366V537.823a7.366,7.366,0,0,0,7.362,7.362h135.82a7.372,7.372,0,0,0,7.362-7.362V366A7.229,7.229,0,0,0,350.169,363.2Zm-1.076,174.629a5.735,5.735,0,0,1-5.723,5.724H207.545a5.723,5.723,0,0,1-5.723-5.724h0V366a5.735,5.735,0,0,1,5.723-5.723h135.82a5.756,5.756,0,0,1,5.317,3.608,6.357,6.357,0,0,1,.215.646,5.672,5.672,0,0,1,.2,1.478Z" transform="translate(-200.183 -358.643)" fill="#ffd"/>
        <path id="Path_411" data-name="Path 411" d="M306.619,392.532h-40.91a3.273,3.273,0,1,1,0-6.546h40.909a3.273,3.273,0,0,1,0,6.546Z" transform="translate(-184.98 -350.308)" fill="#ffd"/>
        <path id="Path_412" data-name="Path 412" d="M306.619,406.342h-40.91a3.273,3.273,0,1,1,0-6.546h40.909a3.273,3.273,0,0,1,0,6.546Z" transform="translate(-184.98 -347.69)" fill="#ffd"/>
        <path id="Path_413" data-name="Path 413" d="M254.786,421.29h-29.9a3.685,3.685,0,0,1-3.682-3.682v-35.28a3.685,3.685,0,0,1,3.682-3.682h29.9a3.687,3.687,0,0,1,3.682,3.682v35.28A3.685,3.685,0,0,1,254.786,421.29Z" transform="translate(-195.049 -352.189)" fill="#ffd"/>
        <path id="Path_414" data-name="Path 414" d="M316.507,434.618H224.053a3.273,3.273,0,0,1,0-6.546h92.454a3.273,3.273,0,1,1,0,6.546Z" transform="translate(-195.153 -342.329)" fill="#ffd"/>
        <path id="Path_415" data-name="Path 415" d="M316.507,448.432H224.053a3.273,3.273,0,0,1,0-6.546h92.454a3.273,3.273,0,1,1,0,6.546Z" transform="translate(-195.153 -339.71)" fill="#ffd"/>
        <path id="Path_416" data-name="Path 416" d="M316.507,462.237H224.053a3.273,3.273,0,1,1,0-6.546h92.454a3.273,3.273,0,1,1,0,6.546Z" transform="translate(-195.153 -337.092)" fill="#ffd"/>
        <path id="Path_417" data-name="Path 417" d="M316.507,476.05H224.053a3.273,3.273,0,0,1,0-6.546h92.454a3.273,3.273,0,1,1,0,6.546Z" transform="translate(-195.153 -334.473)" fill="#ffd"/>
        <path id="Path_418" data-name="Path 418" d="M316.507,489.856H224.053a3.273,3.273,0,1,1,0-6.546h92.454a3.273,3.273,0,1,1,0,6.546Z" transform="translate(-195.153 -331.856)" fill="#ffd"/>
      </g>
      <g id="Group_512" data-name="Group 512" transform="translate(67.01 260.223)">
        <path id="Path_410-2" data-name="Path 410" d="M350.169,363.2a7.443,7.443,0,0,0-6.8-4.553H207.545A7.366,7.366,0,0,0,200.183,366V537.823a7.366,7.366,0,0,0,7.362,7.362h135.82a7.372,7.372,0,0,0,7.362-7.362V366A7.229,7.229,0,0,0,350.169,363.2Zm-1.076,174.629a5.735,5.735,0,0,1-5.723,5.724H207.545a5.723,5.723,0,0,1-5.723-5.724h0V366a5.735,5.735,0,0,1,5.723-5.723h135.82a5.756,5.756,0,0,1,5.317,3.608,6.357,6.357,0,0,1,.215.646,5.672,5.672,0,0,1,.2,1.478Z" transform="translate(-200.183 -358.643)" fill="#ffd"/>
        <path id="Path_411-2" data-name="Path 411" d="M306.619,392.532h-40.91a3.273,3.273,0,1,1,0-6.546h40.909a3.273,3.273,0,0,1,0,6.546Z" transform="translate(-184.98 -350.308)" fill="#ffd"/>
        <path id="Path_412-2" data-name="Path 412" d="M306.619,406.342h-40.91a3.273,3.273,0,1,1,0-6.546h40.909a3.273,3.273,0,0,1,0,6.546Z" transform="translate(-184.98 -347.69)" fill="#ffd"/>
        <path id="Path_413-2" data-name="Path 413" d="M254.786,421.29h-29.9a3.685,3.685,0,0,1-3.682-3.682v-35.28a3.685,3.685,0,0,1,3.682-3.682h29.9a3.687,3.687,0,0,1,3.682,3.682v35.28A3.685,3.685,0,0,1,254.786,421.29Z" transform="translate(-195.049 -352.189)" fill="#ffd"/>
        <path id="Path_414-2" data-name="Path 414" d="M316.507,434.618H224.053a3.273,3.273,0,0,1,0-6.546h92.454a3.273,3.273,0,1,1,0,6.546Z" transform="translate(-195.153 -342.329)" fill="#ffd"/>
        <path id="Path_415-2" data-name="Path 415" d="M316.507,448.432H224.053a3.273,3.273,0,0,1,0-6.546h92.454a3.273,3.273,0,1,1,0,6.546Z" transform="translate(-195.153 -339.71)" fill="#ffd"/>
        <path id="Path_416-2" data-name="Path 416" d="M316.507,462.237H224.053a3.273,3.273,0,1,1,0-6.546h92.454a3.273,3.273,0,1,1,0,6.546Z" transform="translate(-195.153 -337.092)" fill="#ffd"/>
        <path id="Path_417-2" data-name="Path 417" d="M316.507,476.05H224.053a3.273,3.273,0,0,1,0-6.546h92.454a3.273,3.273,0,1,1,0,6.546Z" transform="translate(-195.153 -334.473)" fill="#ffd"/>
        <path id="Path_418-2" data-name="Path 418" d="M316.507,489.856H224.053a3.273,3.273,0,1,1,0-6.546h92.454a3.273,3.273,0,1,1,0,6.546Z" transform="translate(-195.153 -331.856)" fill="#ffd"/>
      </g>
      <g id="Group_513" data-name="Group 513" transform="translate(462.666 260.223)">
        <path id="Path_410-3" data-name="Path 410" d="M350.169,363.2a7.443,7.443,0,0,0-6.8-4.553H207.545A7.366,7.366,0,0,0,200.183,366V537.823a7.366,7.366,0,0,0,7.362,7.362h135.82a7.372,7.372,0,0,0,7.362-7.362V366A7.229,7.229,0,0,0,350.169,363.2Zm-1.076,174.629a5.735,5.735,0,0,1-5.723,5.724H207.545a5.723,5.723,0,0,1-5.723-5.724h0V366a5.735,5.735,0,0,1,5.723-5.723h135.82a5.756,5.756,0,0,1,5.317,3.608,6.357,6.357,0,0,1,.215.646,5.672,5.672,0,0,1,.2,1.478Z" transform="translate(-200.183 -358.643)" fill="#ffd"/>
        <path id="Path_411-3" data-name="Path 411" d="M306.619,392.532h-40.91a3.273,3.273,0,1,1,0-6.546h40.909a3.273,3.273,0,0,1,0,6.546Z" transform="translate(-184.98 -350.308)" fill="#ffd"/>
        <path id="Path_412-3" data-name="Path 412" d="M306.619,406.342h-40.91a3.273,3.273,0,1,1,0-6.546h40.909a3.273,3.273,0,0,1,0,6.546Z" transform="translate(-184.98 -347.69)" fill="#ffd"/>
        <path id="Path_413-3" data-name="Path 413" d="M254.786,421.29h-29.9a3.685,3.685,0,0,1-3.682-3.682v-35.28a3.685,3.685,0,0,1,3.682-3.682h29.9a3.687,3.687,0,0,1,3.682,3.682v35.28A3.685,3.685,0,0,1,254.786,421.29Z" transform="translate(-195.049 -352.189)" fill="#ffd"/>
        <path id="Path_414-3" data-name="Path 414" d="M316.507,434.618H224.053a3.273,3.273,0,0,1,0-6.546h92.454a3.273,3.273,0,1,1,0,6.546Z" transform="translate(-195.153 -342.329)" fill="#ffd"/>
        <path id="Path_415-3" data-name="Path 415" d="M316.507,448.432H224.053a3.273,3.273,0,0,1,0-6.546h92.454a3.273,3.273,0,1,1,0,6.546Z" transform="translate(-195.153 -339.71)" fill="#ffd"/>
        <path id="Path_416-3" data-name="Path 416" d="M316.507,462.237H224.053a3.273,3.273,0,1,1,0-6.546h92.454a3.273,3.273,0,1,1,0,6.546Z" transform="translate(-195.153 -337.092)" fill="#ffd"/>
        <path id="Path_417-3" data-name="Path 417" d="M316.507,476.05H224.053a3.273,3.273,0,0,1,0-6.546h92.454a3.273,3.273,0,1,1,0,6.546Z" transform="translate(-195.153 -334.473)" fill="#ffd"/>
        <path id="Path_418-3" data-name="Path 418" d="M316.507,489.856H224.053a3.273,3.273,0,1,1,0-6.546h92.454a3.273,3.273,0,1,1,0,6.546Z" transform="translate(-195.153 -331.856)" fill="#ffd"/>
      </g>
      <g id="Group_514" data-name="Group 514" transform="translate(462.666 53.985)">
        <path id="Path_410-4" data-name="Path 410" d="M350.169,363.2a7.443,7.443,0,0,0-6.8-4.553H207.545A7.366,7.366,0,0,0,200.183,366V537.823a7.366,7.366,0,0,0,7.362,7.362h135.82a7.372,7.372,0,0,0,7.362-7.362V366A7.229,7.229,0,0,0,350.169,363.2Zm-1.076,174.629a5.735,5.735,0,0,1-5.723,5.724H207.545a5.723,5.723,0,0,1-5.723-5.724h0V366a5.735,5.735,0,0,1,5.723-5.723h135.82a5.756,5.756,0,0,1,5.317,3.608,6.357,6.357,0,0,1,.215.646,5.672,5.672,0,0,1,.2,1.478Z" transform="translate(-200.183 -358.643)" fill="#ffd"/>
        <path id="Path_411-4" data-name="Path 411" d="M306.619,392.532h-40.91a3.273,3.273,0,1,1,0-6.546h40.909a3.273,3.273,0,0,1,0,6.546Z" transform="translate(-184.98 -350.308)" fill="#ffd"/>
        <path id="Path_412-4" data-name="Path 412" d="M306.619,406.342h-40.91a3.273,3.273,0,1,1,0-6.546h40.909a3.273,3.273,0,0,1,0,6.546Z" transform="translate(-184.98 -347.69)" fill="#ffd"/>
        <path id="Path_413-4" data-name="Path 413" d="M254.786,421.29h-29.9a3.685,3.685,0,0,1-3.682-3.682v-35.28a3.685,3.685,0,0,1,3.682-3.682h29.9a3.687,3.687,0,0,1,3.682,3.682v35.28A3.685,3.685,0,0,1,254.786,421.29Z" transform="translate(-195.049 -352.189)" fill="#ffd"/>
        <path id="Path_414-4" data-name="Path 414" d="M316.507,434.618H224.053a3.273,3.273,0,0,1,0-6.546h92.454a3.273,3.273,0,1,1,0,6.546Z" transform="translate(-195.153 -342.329)" fill="#ffd"/>
        <path id="Path_415-4" data-name="Path 415" d="M316.507,448.432H224.053a3.273,3.273,0,0,1,0-6.546h92.454a3.273,3.273,0,1,1,0,6.546Z" transform="translate(-195.153 -339.71)" fill="#ffd"/>
        <path id="Path_416-4" data-name="Path 416" d="M316.507,462.237H224.053a3.273,3.273,0,1,1,0-6.546h92.454a3.273,3.273,0,1,1,0,6.546Z" transform="translate(-195.153 -337.092)" fill="#ffd"/>
        <path id="Path_417-4" data-name="Path 417" d="M316.507,476.05H224.053a3.273,3.273,0,0,1,0-6.546h92.454a3.273,3.273,0,1,1,0,6.546Z" transform="translate(-195.153 -334.473)" fill="#ffd"/>
        <path id="Path_418-4" data-name="Path 418" d="M316.507,489.856H224.053a3.273,3.273,0,1,1,0-6.546h92.454a3.273,3.273,0,1,1,0,6.546Z" transform="translate(-195.153 -331.856)" fill="#ffd"/>
      </g>
      <g id="Group_509" data-name="Group 509" transform="translate(217.554 54.097)">
        <g id="Group_507" data-name="Group 507" transform="translate(86.806 20.611)">
          <circle id="Ellipse_44" data-name="Ellipse 44" cx="40.141" cy="40.141" r="40.141" fill="#3b7afd"/>
          <path id="Path_395" data-name="Path 395" d="M471.172,365.941a4.163,4.163,0,0,1-2.5-.832l-.045-.034-9.434-7.216a4.192,4.192,0,1,1,5.1-6.654l6.11,4.686,14.439-18.838a4.19,4.19,0,0,1,5.875-.776h0l-.09.124.092-.124a4.2,4.2,0,0,1,.775,5.876L474.51,364.3a4.193,4.193,0,0,1-3.335,1.635Z" transform="translate(-435.008 -311.418)" fill="#fff"/>
        </g>
        <g id="Group_508" data-name="Group 508" transform="translate(0 117.232)">
          <path id="Path_336" data-name="Path 336" d="M583.071,427.974a9.456,9.456,0,0,0-8.647-5.786h-172.6a9.361,9.361,0,0,0-9.356,9.357V649.906a9.362,9.362,0,0,0,9.357,9.357H574.429a9.369,9.369,0,0,0,9.356-9.357V431.545a9.189,9.189,0,0,0-.709-3.571ZM581.7,649.906a7.287,7.287,0,0,1-7.279,7.279h-172.6a7.28,7.28,0,0,1-7.279-7.276V431.546a7.289,7.289,0,0,1,7.279-7.279H574.43a7.315,7.315,0,0,1,6.756,4.579,8.124,8.124,0,0,1,.274.821,7.218,7.218,0,0,1,.249,1.879Z" transform="translate(-364.517 -422.189)" fill="#3f3d56"/>
          <path id="Path_337" data-name="Path 337" d="M527.729,465.257H475.738a4.159,4.159,0,1,1,0-8.319h51.991a4.159,4.159,0,1,1,0,8.319Z" transform="translate(-345.195 -405.488)" fill="#3f3d56"/>
          <path id="Path_338" data-name="Path 338" d="M527.729,482.807H475.738a4.159,4.159,0,1,1,0-8.319h51.991a4.159,4.159,0,1,1,0,8.319Z" transform="translate(-345.195 -402.165)" fill="#3f3d56"/>
          <path id="Path_339" data-name="Path 339" d="M461.858,501.8H423.863a4.685,4.685,0,0,1-4.68-4.68V452.288a4.684,4.684,0,0,1,4.679-4.68h37.995a4.684,4.684,0,0,1,4.679,4.679v44.837a4.685,4.685,0,0,1-4.68,4.679Z" transform="translate(-357.991 -408.397)" fill="#3b7afd"/>
          <path id="Path_340" data-name="Path 340" d="M540.3,518.743H422.8a4.159,4.159,0,0,1,0-8.319H540.3a4.159,4.159,0,0,1,0,8.319Z" transform="translate(-358.124 -395.36)" fill="#fff"/>
          <path id="Path_341" data-name="Path 341" d="M540.3,536.293H422.8a4.159,4.159,0,1,1,0-8.319H540.3a4.159,4.159,0,0,1,0,8.319Z" transform="translate(-358.124 -392.037)" fill="#fff"/>
          <path id="Path_342" data-name="Path 342" d="M540.3,553.843H422.8a4.159,4.159,0,0,1,0-8.319H540.3a4.159,4.159,0,0,1,0,8.319Z" transform="translate(-358.124 -388.714)" fill="#fff"/>
          <path id="Path_343" data-name="Path 343" d="M540.3,571.393H422.8a4.159,4.159,0,0,1,0-8.319H540.3a4.159,4.159,0,0,1,0,8.319Z" transform="translate(-358.124 -385.391)" fill="#fff"/>
          <path id="Path_344" data-name="Path 344" d="M540.3,588.943H422.8a4.159,4.159,0,0,1,0-8.319H540.3a4.159,4.159,0,0,1,0,8.319Z" transform="translate(-358.124 -382.068)" fill="#fff"/>
        </g>
      </g>
    </g>
  </g>
</svg>
