<svg xmlns="http://www.w3.org/2000/svg" xmlns:xlink="http://www.w3.org/1999/xlink" width="383" height="351" viewBox="0 0 383 351">
  <defs>
    <linearGradient id="linear-gradient" x1="-0.046" y1="-0.035" x2="1.016" y2="1.086" gradientUnits="objectBoundingBox">
      <stop offset="0" stop-color="#17326a"/>
      <stop offset="0.507" stop-color="#19274b"/>
      <stop offset="1" stop-color="#3d2652"/>
    </linearGradient>
    <clipPath id="clip-path">
      <rect id="Rectangle_366" data-name="Rectangle 366" width="383" height="351" rx="10" fill="url(#linear-gradient)"/>
    </clipPath>
  </defs>
  <g id="docs" clip-path="url(#clip-path)">
    <g id="Group_476" data-name="Group 476" transform="translate(159.521 191.661)">
      <path id="Path_846" data-name="Path 846" d="M706.725,325.789H586.394a11.285,11.285,0,0,1-7.443-2.839L529.388,278.8a9.25,9.25,0,0,0-6.164-2.353H480.45V127.462a10.672,10.672,0,0,1,10.607-10.712H696.119a10.672,10.672,0,0,1,10.607,10.712Z" transform="translate(-480.45 -116.75)" fill="#ffb74d"/>
      <ellipse id="Ellipse_285" data-name="Ellipse 285" cx="22.499" cy="22.722" rx="22.499" ry="22.722" transform="translate(26.677 23.696)" fill="#fff"/>
      <path id="Path_847" data-name="Path 847" d="M668.127,169.5H626.343a2.921,2.921,0,0,0,0,5.843h41.784a2.921,2.921,0,0,0,0-5.843Z" transform="translate(-531.526 -135.255)" fill="#fff"/>
      <path id="Path_848" data-name="Path 848" d="M728.784,198H625.79a2.994,2.994,0,0,0,0,5.843H728.784a2.994,2.994,0,0,0,0-5.843Z" transform="translate(-531.526 -145.253)" fill="#fff"/>
      <path id="Path_849" data-name="Path 849" d="M688.992,258.25H536.937c-1.234,0-2.237,1.311-2.237,2.921s1,2.921,2.237,2.921H688.992c1.234,0,2.237-1.311,2.237-2.921S690.226,258.25,688.992,258.25Z" transform="translate(-499.826 -166.39)" fill="#fff"/>
      <path id="Path_850" data-name="Path 850" d="M688.992,286.25H536.937c-1.234,0-2.237,1.311-2.237,2.921s1,2.921,2.237,2.921H688.992c1.234,0,2.237-1.311,2.237-2.921S690.226,286.25,688.992,286.25Z" transform="translate(-499.826 -176.212)" fill="#fff"/>
      <path id="Path_851" data-name="Path 851" d="M688.992,314.25H536.937c-1.234,0-2.237,1.311-2.237,2.921s1,2.921,2.237,2.921H688.992c1.234,0,2.237-1.311,2.237-2.921S690.226,314.25,688.992,314.25Z" transform="translate(-499.826 -186.035)" fill="#fff"/>
      <path id="Path_852" data-name="Path 852" d="M688.992,342.25H536.937c-1.234,0-2.237,1.311-2.237,2.921s1,2.921,2.237,2.921H688.992c1.234,0,2.237-1.311,2.237-2.921S690.226,342.25,688.992,342.25Z" transform="translate(-499.826 -195.858)" fill="#fff"/>
      <g id="Group_477" data-name="Group 477" transform="translate(78.226 33.689)">
        <path id="Path_853" data-name="Path 853" d="M811.832,313.779H640.366a8.646,8.646,0,0,1-4.8-1.449l-.113-.075V194.1a8.318,8.318,0,0,1,8.268-8.35H803.564a8.319,8.319,0,0,1,8.268,8.35Z" transform="translate(-635.45 -185.75)" fill="#3b7afd"/>
        <ellipse id="Ellipse_286" data-name="Ellipse 286" cx="17.538" cy="17.712" rx="17.538" ry="17.712" transform="translate(20.795 18.471)" fill="#fff"/>
        <path id="Path_854" data-name="Path 854" d="M813.275,238.5H780.7a2.277,2.277,0,0,0,0,4.554h32.571a2.277,2.277,0,0,0,0-4.554Z" transform="translate(-706.795 -211.806)" fill="#fff"/>
        <path id="Path_855" data-name="Path 855" d="M860.558,267H780.274a2.334,2.334,0,0,0,0,4.554h80.284a2.334,2.334,0,0,0,0-4.554Z" transform="translate(-706.795 -225.884)" fill="#fff"/>
        <path id="Path_856" data-name="Path 856" d="M809.97,327.25H691.444a2.359,2.359,0,0,0,0,4.554H809.97a2.359,2.359,0,0,0,0-4.554Z" transform="translate(-662.516 -255.645)" fill="#fff"/>
        <path id="Path_857" data-name="Path 857" d="M809.97,355.25H691.444a2.359,2.359,0,0,0,0,4.554H809.97a2.359,2.359,0,0,0,0-4.554Z" transform="translate(-662.516 -269.476)" fill="#fff"/>
        <path id="Path_858" data-name="Path 858" d="M809.97,383.25H691.444a2.359,2.359,0,0,0,0,4.554H809.97a2.359,2.359,0,0,0,0-4.554Z" transform="translate(-662.516 -283.306)" fill="#fff"/>
        <path id="Path_859" data-name="Path 859" d="M809.97,411.25H691.444a2.359,2.359,0,0,0,0,4.554H809.97a2.359,2.359,0,0,0,0-4.554Z" transform="translate(-662.516 -297.137)" fill="#fff"/>
      </g>
    </g>
  </g>
</svg>
