<svg xmlns="http://www.w3.org/2000/svg" width="297.999" height="176.363" viewBox="0 0 297.999 176.363">
  <g id="gov_image" transform="translate(-67.01 -72.316)">
    <g id="Group_511" data-name="Group 511" transform="translate(67.01 138.011)">
      <path id="Path_410" data-name="Path 410" d="M282.013,361.127a4.061,4.061,0,0,0-3.712-2.484H204.2a4.019,4.019,0,0,0-4.017,4.017V456.4a4.019,4.019,0,0,0,4.017,4.017h74.1a4.022,4.022,0,0,0,4.017-4.017V362.659A3.943,3.943,0,0,0,282.013,361.127Zm-.587,95.275a3.129,3.129,0,0,1-3.123,3.123H204.2a3.123,3.123,0,0,1-3.123-3.123h0V362.659a3.129,3.129,0,0,1,3.123-3.123h74.1a3.14,3.14,0,0,1,2.9,1.969,3.482,3.482,0,0,1,.117.352,3.1,3.1,0,0,1,.107.806Z" transform="translate(-200.183 -358.643)" fill="#a0ffe6"/>
      <path id="Path_411" data-name="Path 411" d="M286.541,389.557h-22.32a1.786,1.786,0,0,1,0-3.571h22.319a1.786,1.786,0,1,1,0,3.571Z" transform="translate(-220.177 -366.521)" fill="#a0ffe6"/>
      <path id="Path_412" data-name="Path 412" d="M286.541,403.367h-22.32a1.786,1.786,0,0,1,0-3.571h22.319a1.786,1.786,0,1,1,0,3.571Z" transform="translate(-220.177 -371.367)" fill="#a0ffe6"/>
      <path id="Path_413" data-name="Path 413" d="M239.528,401.912H223.217a2.011,2.011,0,0,1-2.009-2.009V380.655a2.011,2.011,0,0,1,2.009-2.009h16.311a2.011,2.011,0,0,1,2.009,2.009V399.9A2.011,2.011,0,0,1,239.528,401.912Z" transform="translate(-206.936 -364.212)" fill="#a0ffe6"/>
      <path id="Path_414" data-name="Path 414" d="M273.007,431.643H222.565a1.786,1.786,0,0,1,0-3.571h50.442a1.786,1.786,0,1,1,0,3.571Z" transform="translate(-206.798 -381.292)" fill="#a0ffe6"/>
      <path id="Path_415" data-name="Path 415" d="M273.007,445.457H222.565a1.786,1.786,0,0,1,0-3.571h50.442a1.786,1.786,0,1,1,0,3.571Z" transform="translate(-206.798 -386.14)" fill="#a0ffe6"/>
      <path id="Path_416" data-name="Path 416" d="M273.007,459.262H222.565a1.786,1.786,0,0,1,0-3.571h50.442a1.786,1.786,0,1,1,0,3.571Z" transform="translate(-206.798 -390.985)" fill="#a0ffe6"/>
      <path id="Path_417" data-name="Path 417" d="M273.007,473.075H222.565a1.786,1.786,0,0,1,0-3.571h50.442a1.786,1.786,0,1,1,0,3.571Z" transform="translate(-206.798 -395.833)" fill="#a0ffe6"/>
      <path id="Path_418" data-name="Path 418" d="M273.007,486.881H222.565a1.786,1.786,0,0,1,0-3.571h50.442a1.786,1.786,0,1,1,0,3.571Z" transform="translate(-206.798 -400.679)" fill="#a0ffe6"/>
    </g>
    <g id="Group_514" data-name="Group 514" transform="translate(282.874 138.011)">
      <path id="Path_410-2" data-name="Path 410" d="M282.013,361.127a4.061,4.061,0,0,0-3.712-2.484H204.2a4.019,4.019,0,0,0-4.017,4.017V456.4a4.019,4.019,0,0,0,4.017,4.017h74.1a4.022,4.022,0,0,0,4.017-4.017V362.659A3.943,3.943,0,0,0,282.013,361.127Zm-.587,95.275a3.129,3.129,0,0,1-3.123,3.123H204.2a3.123,3.123,0,0,1-3.123-3.123h0V362.659a3.129,3.129,0,0,1,3.123-3.123h74.1a3.14,3.14,0,0,1,2.9,1.969,3.482,3.482,0,0,1,.117.352,3.1,3.1,0,0,1,.107.806Z" transform="translate(-200.183 -358.643)" fill="#ffd5e5"/>
      <path id="Path_411-2" data-name="Path 411" d="M286.541,389.557h-22.32a1.786,1.786,0,0,1,0-3.571h22.319a1.786,1.786,0,1,1,0,3.571Z" transform="translate(-220.177 -366.521)" fill="#ffd5e5"/>
      <path id="Path_412-2" data-name="Path 412" d="M286.541,403.367h-22.32a1.786,1.786,0,0,1,0-3.571h22.319a1.786,1.786,0,1,1,0,3.571Z" transform="translate(-220.177 -371.367)" fill="#ffd5e5"/>
      <path id="Path_413-2" data-name="Path 413" d="M239.528,401.912H223.217a2.011,2.011,0,0,1-2.009-2.009V380.655a2.011,2.011,0,0,1,2.009-2.009h16.311a2.011,2.011,0,0,1,2.009,2.009V399.9A2.011,2.011,0,0,1,239.528,401.912Z" transform="translate(-206.936 -364.212)" fill="#ffd5e5"/>
      <path id="Path_414-2" data-name="Path 414" d="M273.007,431.643H222.565a1.786,1.786,0,0,1,0-3.571h50.442a1.786,1.786,0,1,1,0,3.571Z" transform="translate(-206.798 -381.292)" fill="#ffd5e5"/>
      <path id="Path_415-2" data-name="Path 415" d="M273.007,445.457H222.565a1.786,1.786,0,0,1,0-3.571h50.442a1.786,1.786,0,1,1,0,3.571Z" transform="translate(-206.798 -386.14)" fill="#ffd5e5"/>
      <path id="Path_416-2" data-name="Path 416" d="M273.007,459.262H222.565a1.786,1.786,0,0,1,0-3.571h50.442a1.786,1.786,0,1,1,0,3.571Z" transform="translate(-206.798 -390.985)" fill="#ffd5e5"/>
      <path id="Path_417-2" data-name="Path 417" d="M273.007,473.075H222.565a1.786,1.786,0,0,1,0-3.571h50.442a1.786,1.786,0,1,1,0,3.571Z" transform="translate(-206.798 -395.833)" fill="#ffd5e5"/>
      <path id="Path_418-2" data-name="Path 418" d="M273.007,486.881H222.565a1.786,1.786,0,0,1,0-3.571h50.442a1.786,1.786,0,1,1,0,3.571Z" transform="translate(-206.798 -400.679)" fill="#ffd5e5"/>
    </g>
    <g id="Group_509" data-name="Group 509" transform="translate(164.391 66.62)">
      <g id="Group_507" data-name="Group 507" transform="translate(37.81 5.696)">
        <path id="Ellipse_44" data-name="Ellipse 44" d="M16.2,0A16.2,16.2,0,1,1,0,16.2,16.2,16.2,0,0,1,16.2,0Z" fill="#0abb92"/>
        <path id="Path_395" data-name="Path 395" d="M463.047,347.736a1.681,1.681,0,0,1-1.011-.336l-.018-.014-3.808-2.913a1.692,1.692,0,1,1,2.059-2.686l2.467,1.892,5.829-7.6a1.692,1.692,0,0,1,2.372-.313h0l-.036.05.037-.05a1.694,1.694,0,0,1,.313,2.372l-6.856,8.94a1.693,1.693,0,0,1-1.346.66Z" transform="translate(-448.448 -325.726)" fill="#fff"/>
      </g>
      <g id="Group_508" data-name="Group 508" transform="translate(0 52.715)">
        <path id="Path_336" data-name="Path 336" d="M496.455,425.345a5.159,5.159,0,0,0-4.718-3.157H397.567a5.107,5.107,0,0,0-5.1,5.1V546.428a5.108,5.108,0,0,0,5.1,5.1h94.174a5.112,5.112,0,0,0,5.1-5.1V427.294a5.013,5.013,0,0,0-.387-1.948Zm-.747,121.083a3.976,3.976,0,0,1-3.971,3.971H397.567a3.972,3.972,0,0,1-3.971-3.97V427.294a3.977,3.977,0,0,1,3.971-3.971h94.174a3.991,3.991,0,0,1,3.686,2.5,4.429,4.429,0,0,1,.149.448,3.937,3.937,0,0,1,.136,1.025Z" transform="translate(-392.462 -422.189)" fill="#a0ffe6"/>
        <path id="Path_337" data-name="Path 337" d="M502.213,461.476H473.848a2.269,2.269,0,1,1,0-4.539h28.366a2.269,2.269,0,1,1,0,4.539Z" transform="translate(-417.872 -428.867)" fill="#a0ffe6"/>
        <path id="Path_338" data-name="Path 338" d="M502.213,479.026H473.848a2.269,2.269,0,0,1,0-4.539h28.366a2.269,2.269,0,1,1,0,4.539Z" transform="translate(-417.872 -435.029)" fill="#a0ffe6"/>
        <path id="Path_339" data-name="Path 339" d="M442.466,477.177H421.736a2.556,2.556,0,0,1-2.553-2.553V450.162a2.556,2.556,0,0,1,2.553-2.553h20.729a2.556,2.556,0,0,1,2.553,2.553v24.462a2.556,2.556,0,0,1-2.553,2.553Z" transform="translate(-401.044 -426.215)" fill="#a0ffe6"/>
        <path id="Path_340" data-name="Path 340" d="M485.013,514.962H420.908a2.269,2.269,0,0,1,0-4.539h64.106a2.269,2.269,0,0,1,0,4.539Z" transform="translate(-400.869 -447.647)" fill="#a0ffe6"/>
        <path id="Path_341" data-name="Path 341" d="M485.013,532.512H420.908a2.269,2.269,0,1,1,0-4.539h64.106a2.269,2.269,0,1,1,0,4.539Z" transform="translate(-400.869 -453.809)" fill="#a0ffe6"/>
        <path id="Path_342" data-name="Path 342" d="M485.013,550.062H420.908a2.269,2.269,0,1,1,0-4.539h64.106a2.269,2.269,0,1,1,0,4.539Z" transform="translate(-400.869 -459.971)" fill="#a0ffe6"/>
        <path id="Path_343" data-name="Path 343" d="M485.013,567.612H420.908a2.269,2.269,0,1,1,0-4.539h64.106a2.269,2.269,0,1,1,0,4.539Z" transform="translate(-400.869 -466.133)" fill="#a0ffe6"/>
        <path id="Path_344" data-name="Path 344" d="M485.013,585.162H420.908a2.269,2.269,0,1,1,0-4.539h64.106a2.269,2.269,0,0,1,0,4.539Z" transform="translate(-400.869 -472.295)" fill="#a0ffe6"/>
      </g>
    </g>
    <g id="Group_17431" data-name="Group 17431" transform="translate(307.738 93.316)">
      <path id="Ellipse_44-2" data-name="Ellipse 44" d="M16.2,0A16.2,16.2,0,1,1,0,16.2,16.2,16.2,0,0,1,16.2,0Z" fill="#ffd5e5"/>
      <path id="Icon_ionic-ios-close" data-name="Icon ionic-ios-close" d="M19.589,18l4.8-4.8A1.124,1.124,0,0,0,22.8,11.616l-4.8,4.8-4.8-4.8A1.124,1.124,0,1,0,11.616,13.2l4.8,4.8-4.8,4.8A1.124,1.124,0,0,0,13.2,24.384l4.8-4.8,4.8,4.8A1.124,1.124,0,1,0,24.384,22.8Z" transform="translate(-1.795 -1.796)" fill="#d55438"/>
    </g>
    <g id="Group_17432" data-name="Group 17432" transform="translate(91.01 94.316)">
      <path id="Ellipse_44-3" data-name="Ellipse 44" d="M16.2,0A16.2,16.2,0,1,1,0,16.2,16.2,16.2,0,0,1,16.2,0Z" fill="#0abb92"/>
      <path id="Path_395-2" data-name="Path 395" d="M463.047,347.736a1.681,1.681,0,0,1-1.011-.336l-.018-.014-3.808-2.913a1.692,1.692,0,1,1,2.059-2.686l2.467,1.892,5.829-7.6a1.692,1.692,0,0,1,2.372-.313h0l-.036.05.037-.05a1.694,1.694,0,0,1,.313,2.372l-6.856,8.94a1.693,1.693,0,0,1-1.346.66Z" transform="translate(-448.448 -325.726)" fill="#fff"/>
    </g>
  </g>
</svg>
