<svg id="grants_illustration" xmlns="http://www.w3.org/2000/svg" width="281.16" height="254.585" viewBox="0 0 281.16 254.585">
  <path id="Path_293" data-name="Path 293" d="M651.758,367.683c-14.968-11.19-38.411-21.772-64.319-29.034-23.589-6.612-46.6-9.8-64.79-8.989l-.095-2.116c18.41-.825,41.657,2.394,65.456,9.065,26.149,7.329,49.846,18.037,65.015,29.377Z" transform="translate(-423.124 -265.257)" fill="#1f2f5a"/>
  <path id="Path_294" data-name="Path 294" d="M638.013,357.026a70.48,70.48,0,0,1-6.1,28.775q-.505,1.137-1.053,2.253a70.746,70.746,0,0,1-134.32-31.028q0-2.456.167-4.873.079-1.229.205-2.444a70.739,70.739,0,0,1,141.1,7.317Z" transform="translate(-410.932 -245.981)" fill="#f2f2f2"/>
  <path id="Path_295" data-name="Path 295" d="M632.061,441.741q-.505,1.137-1.053,2.253-3.1.337-6.527.489c-1.891.085-3.837.127-5.826.127-17.371,0-38.276-3.206-59.632-9.191-23.8-6.671-45.332-16-60.632-26.276q-.781-.524-1.535-1.05.079-1.229.205-2.444,1.217.867,2.51,1.737c15.119,10.151,36.435,19.382,60.024,25.994,21.17,5.934,41.878,9.113,59.05,9.113q2.945,0,5.741-.125Q628.458,442.184,632.061,441.741Z" transform="translate(-411.08 -301.922)" opacity="0.1" style="mix-blend-mode: normal;isolation: isolate"/>
  <path id="Path_296" data-name="Path 296" d="M601.447,406.364c-17.37,0-38.276-3.206-59.632-9.192-23.8-6.671-45.333-16-60.632-26.276-15.619-10.488-22.943-20.822-20.623-29.1s13.948-13.3,32.742-14.141l.095,2.116c-8.777.393-15.929,1.7-21.259,3.877s-8.526,5.108-9.539,8.72.2,7.786,3.617,12.407,8.853,9.464,16.147,14.362c15.117,10.151,36.434,19.383,60.023,25.995,21.17,5.934,41.877,9.113,59.05,9.114q2.943,0,5.74-.125c8.777-.393,15.93-1.7,21.26-3.877s8.526-5.108,9.539-8.72c1.818-6.486-3.676-14.913-15.469-23.73l1.268-1.7c6.069,4.537,10.561,9.009,13.352,13.292,2.992,4.592,3.964,8.867,2.888,12.706-2.32,8.277-13.948,13.3-32.742,14.141C605.381,406.322,603.436,406.364,601.447,406.364Z" transform="translate(-393.872 -265.369)" fill="#142243"/>
  <circle id="Ellipse_70" data-name="Ellipse 70" cx="0.811" cy="0.811" r="0.811" transform="translate(157.405 25.93)" fill="#c1d3ff"/>
  <circle id="Ellipse_71" data-name="Ellipse 71" cx="1.394" cy="1.394" r="1.394" transform="translate(49.287 59.935)" fill="#c1d3ff"/>
  <circle id="Ellipse_72" data-name="Ellipse 72" cx="2.755" cy="2.755" r="2.755" transform="translate(44.954 113.153)" fill="#c1d3ff"/>
  <circle id="Ellipse_73" data-name="Ellipse 73" cx="1.836" cy="1.836" r="1.836" transform="translate(211.228 29.768)" fill="#c1d3ff"/>
  <circle id="Ellipse_74" data-name="Ellipse 74" cx="2.981" cy="2.981" r="2.981" transform="translate(275.198 104.821)" fill="#c1d3ff"/>
  <circle id="Ellipse_75" data-name="Ellipse 75" cx="1.279" cy="1.279" r="1.279" transform="translate(253.591 58.914)" fill="#c1d3ff"/>
  <circle id="Ellipse_76" data-name="Ellipse 76" cx="1.995" cy="1.995" r="1.995" transform="translate(97.59 41.767)" fill="#c1d3ff"/>
  <circle id="Ellipse_77" data-name="Ellipse 77" cx="1.279" cy="1.279" r="1.279" transform="translate(249.115 100.479)" fill="#c1d3ff"/>
  <circle id="Ellipse_78" data-name="Ellipse 78" cx="1.592" cy="1.592" r="1.592" transform="translate(0 104.872)" fill="#c1d3ff"/>
  <circle id="Ellipse_79" data-name="Ellipse 79" cx="1.724" cy="1.724" r="1.724" transform="translate(24.05 78.544)" fill="#c1d3ff"/>
  <path id="Path_297" data-name="Path 297" d="M249.21,3.4h-3.4V0h-1.825V3.4h-3.4V5.228h3.4v3.4h1.825v-3.4h3.4Z" transform="translate(-112.752)" fill="#ccc"/>
  <path id="Path_298" data-name="Path 298" d="M400.556,350.945h-2.136V348.81h-1.146v2.135h-2.136v1.146h2.136v2.136h1.146v-2.136h2.136Z" transform="translate(-185.188 -163.476)" fill="#ccc"/>
  <path id="Path_299" data-name="Path 299" d="M494.55,330.844h-1.6v-1.6H492.1v1.6h-1.6v.858h1.6v1.6h.858v-1.6h1.6Z" transform="translate(-229.881 -154.307)" fill="#ccc"/>
  <circle id="Ellipse_80" data-name="Ellipse 80" cx="5.944" cy="5.944" r="5.944" transform="translate(105.8 93.212)" opacity="0.1" style="mix-blend-mode: normal;isolation: isolate"/>
  <circle id="Ellipse_81" data-name="Ellipse 81" cx="5.944" cy="5.944" r="5.944" transform="translate(171.455 152.923)" opacity="0.1" style="mix-blend-mode: normal;isolation: isolate"/>
  <circle id="Ellipse_82" data-name="Ellipse 82" cx="5.944" cy="5.944" r="5.944" transform="translate(151.461 102.398)" opacity="0.1" style="mix-blend-mode: normal;isolation: isolate"/>
  <circle id="Ellipse_83" data-name="Ellipse 83" cx="5.944" cy="5.944" r="5.944" transform="translate(108.772 135.091)" opacity="0.1" style="mix-blend-mode: normal;isolation: isolate"/>
  <circle id="Ellipse_84" data-name="Ellipse 84" cx="5.944" cy="5.944" r="5.944" transform="translate(183.343 70.516)" opacity="0.1" style="mix-blend-mode: normal;isolation: isolate"/>
  <circle id="Ellipse_85" data-name="Ellipse 85" cx="5.944" cy="5.944" r="5.944" transform="translate(203.067 110.774)" opacity="0.1" style="mix-blend-mode: normal;isolation: isolate"/>
  <circle id="Ellipse_86" data-name="Ellipse 86" cx="7.835" cy="7.835" r="7.835" transform="translate(181.452 43.768)" fill="#fff"/>
  <path id="Path_300" data-name="Path 300" d="M681.9,286.191a11.078,11.078,0,0,0-11.078,11.078c0,6.118,11.078,26.208,11.078,26.208s11.078-20.09,11.078-26.208A11.078,11.078,0,0,0,681.9,286.191Zm0,16.481a5.134,5.134,0,1,1,5.134-5.134,5.134,5.134,0,0,1-5.134,5.134Z" transform="translate(-492.612 -245.935)" fill="#3b7afd"/>
  <circle id="Ellipse_87" data-name="Ellipse 87" cx="7.835" cy="7.835" r="7.835" transform="translate(103.878 65.021)" fill="#fff"/>
  <path id="Path_301" data-name="Path 301" d="M535.9,326.191a11.078,11.078,0,0,0-11.078,11.078c0,6.118,11.078,26.208,11.078,26.208s11.078-20.09,11.078-26.208A11.078,11.078,0,0,0,535.9,326.19Zm0,16.481a5.134,5.134,0,1,1,5.134-5.134,5.134,5.134,0,0,1-5.134,5.134Z" transform="translate(-424.186 -264.682)" fill="#3f3d56"/>
  <circle id="Ellipse_88" data-name="Ellipse 88" cx="7.835" cy="7.835" r="7.835" transform="translate(202.174 83.086)" fill="#fff"/>
  <path id="Path_302" data-name="Path 302" d="M720.9,360.191a11.078,11.078,0,0,0-11.078,11.078c0,6.118,11.078,26.208,11.078,26.208s11.078-20.09,11.078-26.208A11.078,11.078,0,0,0,720.9,360.191Zm0,16.481a5.134,5.134,0,1,1,5.134-5.134,5.134,5.134,0,0,1-5.134,5.134Z" transform="translate(-510.89 -280.617)" fill="#ccc" style="mix-blend-mode: normal;isolation: isolate"/>
  <circle id="Ellipse_89" data-name="Ellipse 89" cx="7.835" cy="7.835" r="7.835" transform="translate(69.341 122.405)" fill="#fff"/>
  <path id="Path_303" data-name="Path 303" d="M470.9,434.19a11.078,11.078,0,0,0-11.078,11.078c0,6.118,11.078,26.208,11.078,26.208s11.078-20.09,11.078-26.208A11.078,11.078,0,0,0,470.9,434.19Zm0,16.481a5.134,5.134,0,1,1,5.134-5.134,5.134,5.134,0,0,1-5.134,5.134Z" transform="translate(-393.723 -315.298)" fill="#3b7afd"/>
  <ellipse id="Ellipse_90" data-name="Ellipse 90" cx="3.592" cy="11.442" rx="3.592" ry="11.442" transform="translate(240.089 177.919) rotate(-39.938)" fill="#0abb92"/>
  <circle id="Ellipse_91" data-name="Ellipse 91" cx="22.883" cy="22.883" r="22.883" transform="translate(202.965 157.526)" fill="#0abb92"/>
  <rect id="Rectangle_228" data-name="Rectangle 228" width="6.952" height="12.455" transform="translate(228.581 198.368)" fill="#0abb92"/>
  <rect id="Rectangle_229" data-name="Rectangle 229" width="6.952" height="12.455" transform="translate(214.678 198.368)" fill="#0abb92"/>
  <ellipse id="Ellipse_92" data-name="Ellipse 92" cx="5.793" cy="2.172" rx="5.793" ry="2.172" transform="translate(223.947 208.796)" fill="#0abb92"/>
  <ellipse id="Ellipse_93" data-name="Ellipse 93" cx="5.793" cy="2.172" rx="5.793" ry="2.172" transform="translate(210.043 208.506)" fill="#0abb92"/>
  <path id="Path_304" data-name="Path 304" d="M746.671,485.8c2.043-8.229,11.063-13.071,20.145-10.816s14.789,10.754,12.746,18.983-8.822,8.255-17.9,6S744.627,494.033,746.671,485.8Z" transform="translate(-528.008 -334.159)" fill="#3b7afd"/>
  <ellipse id="Ellipse_94" data-name="Ellipse 94" cx="3.592" cy="11.442" rx="3.592" ry="11.442" transform="translate(188.198 168.133) rotate(-64.626)" fill="#0abb92"/>
  <circle id="Ellipse_95" data-name="Ellipse 95" cx="7.629" cy="7.629" r="7.629" transform="translate(214.797 167.952)" fill="#fff"/>
  <circle id="Ellipse_96" data-name="Ellipse 96" cx="2.543" cy="2.543" r="2.543" transform="translate(216.748 170.303)" fill="#3f3d56"/>
  <path id="Path_305" data-name="Path 305" d="M754.154,568.458a5.086,5.086,0,1,1-10.008,1.822h0l0-.01c-.5-2.764,1.637-3.742,4.4-4.243S753.654,565.694,754.154,568.458Z" transform="translate(-526.942 -376.982)" fill="#fff"/>
  <ellipse id="Ellipse_97" data-name="Ellipse 97" cx="11.442" cy="3.592" rx="11.442" ry="3.592" transform="matrix(0.357, -0.934, 0.934, 0.357, 67.833, 172.536)" fill="#d55438"/>
  <circle id="Ellipse_98" data-name="Ellipse 98" cx="22.883" cy="22.883" r="22.883" transform="translate(31.239 157.526)" fill="#d55438"/>
  <rect id="Rectangle_230" data-name="Rectangle 230" width="6.952" height="12.455" transform="translate(43.695 198.368)" fill="#d55438"/>
  <rect id="Rectangle_231" data-name="Rectangle 231" width="6.952" height="12.455" transform="translate(57.598 198.368)" fill="#d55438"/>
  <ellipse id="Ellipse_99" data-name="Ellipse 99" cx="5.793" cy="2.172" rx="5.793" ry="2.172" transform="translate(43.695 208.796)" fill="#d55438"/>
  <ellipse id="Ellipse_100" data-name="Ellipse 100" cx="5.793" cy="2.172" rx="5.793" ry="2.172" transform="translate(57.598 208.506)" fill="#d55438"/>
  <circle id="Ellipse_101" data-name="Ellipse 101" cx="7.821" cy="7.821" r="7.821" transform="translate(46.881 166.795)" fill="#fff"/>
  <circle id="Ellipse_102" data-name="Ellipse 102" cx="2.607" cy="2.607" r="2.607" transform="translate(52.095 172.009)" fill="#3f3d56"/>
  <path id="Path_308" data-name="Path 308" d="M395.207,493.046c-1.848-8.275,4.059-16.636,13.192-18.676s18.036,3.015,19.883,11.29-4.205,11.327-13.339,13.366S397.054,501.321,395.207,493.046Z" transform="translate(-363.281 -333.917)" fill="#3b7afd"/>
  <ellipse id="Ellipse_103" data-name="Ellipse 103" cx="3.592" cy="11.442" rx="3.592" ry="11.442" transform="translate(16.472 168.134) rotate(-64.626)" fill="#d55438"/>
  <path id="Path_309" data-name="Path 309" d="M416.127,563.057c0,2.24,5.767,6.662,12.166,6.662s12.4-6.305,12.4-8.545-6,.434-12.4.434S416.127,560.817,416.127,563.057Z" transform="translate(-373.245 -374.392)" fill="#fff"/>
  <circle id="Ellipse_104" data-name="Ellipse 104" cx="22.883" cy="22.883" r="22.883" transform="translate(105.477 198.97)" fill="#ffb74d"/>
  <rect id="Rectangle_232" data-name="Rectangle 232" width="6.952" height="12.455" transform="translate(117.932 239.812)" fill="#ffb74d"/>
  <rect id="Rectangle_233" data-name="Rectangle 233" width="6.952" height="12.455" transform="translate(131.836 239.812)" fill="#ffb74d"/>
  <ellipse id="Ellipse_105" data-name="Ellipse 105" cx="5.793" cy="2.172" rx="5.793" ry="2.172" transform="translate(117.932 250.24)" fill="#ffb74d"/>
  <ellipse id="Ellipse_106" data-name="Ellipse 106" cx="5.793" cy="2.172" rx="5.793" ry="2.172" transform="translate(131.836 249.95)" fill="#ffb74d"/>
  <path id="Path_310" data-name="Path 310" d="M534.926,571.046c-1.848-8.275,4.059-16.636,13.192-18.676s18.036,3.015,19.883,11.29-4.205,11.327-13.339,13.366S536.774,579.321,534.926,571.046Z" transform="translate(-428.763 -370.474)" fill="#3b7afd"/>
  <path id="Path_311" data-name="Path 311" d="M559.425,614.348s1.66-7.3-1.494-6.972-7.47.5-8.632.5-7.8-.83-8.8,3.486-2.324,9.628.5,12.948c0,0,1,14.608,4.814,15.6s13.944,2.158,17.6-2.656a12.38,12.38,0,0,0,2.158-10.126h-1.66Z" transform="translate(-430.973 -396.459)" fill="#3b7afd"/>
  <path id="Path_312" data-name="Path 312" d="M545.62,641.438s2.822,1.328,8.632.5v2.49l-8.632-.664Z" transform="translate(-433.934 -412.429)" opacity="0.1" style="mix-blend-mode: normal;isolation: isolate"/>
  <path id="Path_313" data-name="Path 313" d="M580.3,635.085l-1.879-.993,8.358-15.815a3.948,3.948,0,0,0-3.385-5.792l-8.771-.236.057-2.125,8.771.236a6.074,6.074,0,0,1,5.207,8.91Z" transform="translate(-447.528 -397.753)" fill="#3b7afd"/>
  <path id="Path_314" data-name="Path 314" d="M539.3,635.085l-8.358-15.815a6.074,6.074,0,0,1,5.206-8.91l8.771-.236.057,2.125-8.771.236a3.948,3.948,0,0,0-3.385,5.792l8.358,15.815Z" transform="translate(-426.726 -397.753)" fill="#3b7afd"/>
  <ellipse id="Ellipse_107" data-name="Ellipse 107" cx="3.985" cy="12.695" rx="3.985" ry="12.695" transform="translate(133.393 219.376) rotate(-62.122)" fill="#ffb74d"/>
</svg>
