<svg xmlns="http://www.w3.org/2000/svg" xmlns:xlink="http://www.w3.org/1999/xlink" width="529" height="296" viewBox="0 0 529 296">
  <defs>
    <clipPath id="clip-path">
      <path id="Rectangle_387" data-name="Rectangle 387" d="M10,0H519a10,10,0,0,1,10,10V296a0,0,0,0,1,0,0H0a0,0,0,0,1,0,0V10A10,10,0,0,1,10,0Z" fill="#a0ffe6"/>
    </clipPath>
  </defs>
  <g id="grants" clip-path="url(#clip-path)">
    <g id="Group_372" data-name="Group 372" transform="translate(17 50.416)">
      <path id="Path_665" data-name="Path 665" d="M283.612,615.6c-10.859,8.095-13.936,22.337-13.936,22.337s14.528,1.118,25.387-6.976S309,608.627,309,608.627,294.471,607.508,283.612,615.6Z" transform="translate(-175.477 -385.913)" fill="#0abb92"/>
      <path id="Path_666" data-name="Path 666" d="M286.774,607.06C281.555,619.558,268.485,626,268.485,626s-4.609-13.823.61-26.321,18.289-18.938,18.289-18.938S291.993,594.562,286.774,607.06Z" transform="translate(-174.116 -373.57)" fill="#0abb92"/>
      <path id="Path_667" data-name="Path 667" d="M861.521,534.067h0a108.33,108.33,0,0,1-.909-23.484l.909-12.972h0C856.512,507.578,857.644,520.7,861.521,534.067Z" transform="translate(-489.986 -336.707)" fill="#767676"/>
      <path id="Path_668" data-name="Path 668" d="M869.923,549.723h0a79.635,79.635,0,0,1-.437-13.979l.437-7.721h0C867.513,533.956,868.057,541.765,869.923,549.723Z" transform="translate(-494.481 -350.193)" fill="#767676"/>
      <path id="Path_669" data-name="Path 669" d="M872.662,583.133v4.34a1.309,1.309,0,0,1-1.3,1.3h-2.17a.432.432,0,0,0-.434.434V624.8a1.309,1.309,0,0,1-1.3,1.3H840.98a1.3,1.3,0,0,1-1.3-1.3V589.209a.435.435,0,0,0-.434-.434h-2.6a1.3,1.3,0,0,1-1.3-1.3v-4.34a1.3,1.3,0,0,1,1.3-1.3H871.36A1.306,1.306,0,0,1,872.662,583.133Z" transform="translate(-479.859 -374.054)" fill="#fff"/>
      <rect id="Rectangle_306" data-name="Rectangle 306" width="29.077" height="1.302" transform="translate(359.859 215.632)" fill="#e6e6e6"/>
      <path id="Path_670" data-name="Path 670" d="M871.868,621.139a37.369,37.369,0,0,1-29.512,0v-9.172a46.345,46.345,0,0,1,29.511,0Z" transform="translate(-482.971 -386.348)" fill="#e6e6e6"/>
      <circle id="Ellipse_276" data-name="Ellipse 276" cx="39.329" cy="39.329" r="39.329" transform="translate(206.584 15.887)" fill="#feb8b8"/>
      <path id="Path_1461" data-name="Path 1461" d="M603.762,229.786a45.422,45.422,0,0,0-25.841-19.753l-4.828,3.523v-4.575a41.813,41.813,0,0,0-7.81-.455l-4.166,3.769V208.84a44.988,44.988,0,0,0-31.035,18.46c-9.046,13.041-10.573,31.184-1.676,44.33,2.442-7.506,5.407-14.549,7.85-22.055a22.216,22.216,0,0,0,5.787.028l2.971-6.934.83,6.64c9.211-.8,22.872-2.564,31.6-4.178l-.849-5.094,5.08,4.233c2.675-.616,4.263-1.174,4.132-1.6,6.494,10.469,14.442,17.156,20.935,27.625C609.214,255.532,612.053,243.257,603.762,229.786Z" transform="translate(-321.116 -208.5)" fill="#111d38"/>
      <path id="Path_671" data-name="Path 671" d="M623.189,445.32c-1.352-8.136-2.747-16.429-6.529-23.759-2.485-4.8-6.43-9.376-11.749-10.325a11.363,11.363,0,0,1-3.059-.708c-1.558-.751-22.5-12.7-25.827-14.787-2.858-1.787-7.369-5.1-9.643-5.1-2.288-.05-11.063,1.992-45.311-.685a123.691,123.691,0,0,0-16.688,8.205c-.11-.073-35.546,18.956-36.878,18.906a7.744,7.744,0,0,0-6.31,3.541,22.906,22.906,0,0,0-2.833,6.982c7.74,17.236,14.821,34.495,22.562,51.731a4.414,4.414,0,0,1,.56,2.123,5.181,5.181,0,0,1-.963,2.123c-3.8,6.1-3.675,13.767-3.26,20.933s.928,14.737-2.275,21.16c-.871,1.764-2,3.378-2.833,5.141-1.94,3.994-2.642,16.769-1.508,21.061l141.987,4.068C609.58,547.542,623.189,445.32,623.189,445.32Z" transform="translate(-292.69 -288.968)" fill="#3b7afd"/>
      <path id="Path_1421" data-name="Path 1421" d="M436.122,544.222a25.071,25.071,0,0,0-.085,6.182l2.035,29.226c.191,2.755.379,5.5.638,8.25.488,5.333,1.218,10.622,2.123,15.9a2.833,2.833,0,0,0,2.9,2.755c8.958,1.9,18.214,1.82,27.356,1.3,13.951-.779,49.643-2.252,51.824-5.085s.91-7.415-1.933-9.705-49.944-7.875-49.944-7.875c.46-3.647,1.849-7.082,3.165-10.544,2.366-6.141,4.575-12.485,4.618-19.064s-2.436-13.5-7.826-17.265c-4.433-3.094-10.141-3.668-15.543-3.541-3.931.113-10.722-.829-14.312.708C438.3,536.724,436.653,541.44,436.122,544.222Z" transform="translate(-282.723 -353.101)" fill="#fbbebe"/>
      <path id="Path_1430" data-name="Path 1430" d="M446.488,454.926a7.327,7.327,0,0,0-1.572,2.514,118.871,118.871,0,0,0-9.985,40.8,4.08,4.08,0,0,1-.46,1.976,8.646,8.646,0,0,1-1.041,1.126,3.909,3.909,0,0,0,.468,5.509q.1.081.2.157c1.168-2.2,3.965-2.918,6.452-3.109,11.9-.942,23.532,4.6,35.471,4.178-.842-2.911-2.054-5.708-2.741-8.653-3.038-13.08,4.539-27.321-.106-39.919-.928-2.521-2.479-5-4.922-6.1a13.108,13.108,0,0,0-3.151-.834c-3.017-.545-9.023-2.875-11.94-1.94-1.077.347-1.5,1.359-2.394,1.971C449.411,453.467,447.612,453.785,446.488,454.926Z" transform="translate(-281.225 -315.775)" fill="#3b7afd"/>
      <path id="Path_1421-2" data-name="Path 1421" d="M688.637,535.473c-3.59-1.537-10.381-.6-14.312-.708-5.4-.127-11.11.447-15.543,3.541-5.389,3.769-7.868,10.686-7.826,17.265s2.252,12.922,4.617,19.064c1.317,3.463,2.705,6.9,3.166,10.544,0,0-47.1,5.584-49.944,7.875s-4.114,6.872-1.933,9.705,70.222,5.677,79.18,3.781a2.833,2.833,0,0,0,2.9-2.755c.905-5.282,1.635-10.572,2.123-15.9.259-2.748.447-5.5.638-8.25l2.035-29.226a25.07,25.07,0,0,0-.085-6.182C693.125,541.44,691.478,536.724,688.637,535.473Z" transform="translate(-358.054 -353.101)" fill="#fbbebe"/>
      <path id="Path_1430-2" data-name="Path 1430" d="M714.566,452.6c-.892-.612-1.317-1.624-2.394-1.971-2.917-.935-8.923,1.4-11.94,1.94a13.108,13.108,0,0,0-3.151.834c-2.443,1.1-3.993,3.583-4.922,6.1-4.646,12.6,2.932,26.839-.106,39.919-.687,2.946-1.9,5.743-2.741,8.653,11.94.418,23.567-5.12,35.471-4.178,2.486.191,5.283.91,6.452,3.109q.1-.075.2-.157a3.909,3.909,0,0,0,.467-5.509,8.638,8.638,0,0,1-1.041-1.126,4.079,4.079,0,0,1-.46-1.976,118.872,118.872,0,0,0-9.985-40.8,7.328,7.328,0,0,0-1.572-2.514C717.72,453.785,715.921,453.467,714.566,452.6Z" transform="translate(-395.105 -315.775)" fill="#3b7afd"/>
      <circle id="Ellipse_224" data-name="Ellipse 224" cx="10.615" cy="10.615" r="10.615" transform="translate(223.65 233.605)" fill="#fbbebe"/>
      <circle id="Ellipse_225" data-name="Ellipse 225" cx="10.615" cy="10.615" r="10.615" transform="translate(247.154 233.605)" fill="#fbbebe"/>
      <path id="Path_672" data-name="Path 672" d="M620.258,609.561H474.424A6.43,6.43,0,0,1,468,603.139V514.666a6.429,6.429,0,0,1,6.422-6.422H620.258a6.43,6.43,0,0,1,6.422,6.422v88.473a6.429,6.429,0,0,1-6.422,6.422Z" transform="translate(-296.965 -341.422)" fill="#111d38"/>
      <circle id="Ellipse_263" data-name="Ellipse 263" cx="4.249" cy="4.249" r="4.249" transform="translate(245.773 213.232)" fill="#fff"/>
      <path id="Path_673" data-name="Path 673" d="M489,449.724H0v15.027H28.924v3.493H460.088v-3.493H489Z" transform="translate(0 -199.43)" fill="#f1f1f1"/>
      <path id="Path_674" data-name="Path 674" d="M528.439,309.405h0c-6.319,0-11.442-5.539-11.442-12.372h0v-6.186c0-6.833,5.123-12.372,11.442-12.372h0Z" transform="translate(-318.691 -239.531)" fill="#3b7afd"/>
      <path id="Path_675" data-name="Path 675" d="M668.779,278.476h0c6.319,0,11.442,5.539,11.442,12.372v6.186c0,6.833-5.123,12.372-11.442,12.372h0Z" transform="translate(-385.999 -239.531)" fill="#3b7afd"/>
      <path id="Path_676" data-name="Path 676" d="M610.119,264.915H608.3c0-24.894-18.731-45.148-41.756-45.148s-41.756,20.253-41.756,45.148h-1.815c0-25.977,19.546-47.111,43.571-47.111S610.119,238.938,610.119,264.915Z" transform="translate(-321.343 -212.626)" fill="#3b7afd"/>
    </g>
  </g>
</svg>
