<svg xmlns="http://www.w3.org/2000/svg" xmlns:xlink="http://www.w3.org/1999/xlink" width="529" height="296" viewBox="0 0 529 296">
  <defs>
    <clipPath id="clip-path">
      <path id="Rectangle_387" data-name="Rectangle 387" d="M10,0H519a10,10,0,0,1,10,10V296a0,0,0,0,1,0,0H0a0,0,0,0,1,0,0V10A10,10,0,0,1,10,0Z" fill="#a0ffe6"/>
    </clipPath>
  </defs>
  <g id="investments" clip-path="url(#clip-path)">
    <g id="Group_367" data-name="Group 367" transform="translate(-309.009 -3735.321)">
      <g id="Group_366" data-name="Group 366" transform="translate(424.009 3780.874)">
        <path id="Path_566" data-name="Path 566" d="M284.022,519.048H253.348c-1.729,0-3.131-2.028-3.133-4.527V368.471c0-2.5,1.4-4.524,3.133-4.527h30.673c1.729,0,3.131,2.028,3.133,4.527v146.05C287.153,517.02,285.751,519.045,284.022,519.048Z" transform="translate(-250.215 -216.602)" fill="#0abb92"/>
        <path id="Path_567" data-name="Path 567" d="M397.259,495.815H366.586c-1.729,0-3.131-2.028-3.133-4.527V287.282c0-2.5,1.4-4.524,3.133-4.527h30.673c1.729,0,3.131,2.028,3.133,4.527V491.288C400.39,493.787,398.989,495.812,397.259,495.815Z" transform="translate(-292.516 -193.369)" fill="#0abb92"/>
        <path id="Path_568" data-name="Path 568" d="M510.5,519.048H479.824c-1.729,0-3.131-2.028-3.133-4.527V368.471c0-2.5,1.4-4.524,3.133-4.527H510.5c1.729,0,3.131,2.028,3.133,4.527v146.05C513.628,517.02,512.226,519.045,510.5,519.048Z" transform="translate(-334.817 -216.602)" fill="#0abb92"/>
        <path id="Path_569" data-name="Path 569" d="M623.734,486.644H593.061c-1.69.053-3.091-1.88-3.133-4.322V255.028c.042-2.442,1.443-4.375,3.133-4.322h30.673c1.69-.053,3.091,1.88,3.133,4.322V482.322c-.042,2.442-1.443,4.375-3.133,4.322Z" transform="translate(-377.118 -184.197)" fill="#0abb92"/>
        <path id="Path_570" data-name="Path 570" d="M736.972,470.136H706.3c-1.729,0-3.131-2.028-3.133-4.527V197.547c0-2.5,1.4-4.524,3.133-4.527h30.673c1.729,0,3.131,2.028,3.133,4.527V465.609C740.1,468.108,738.7,470.133,736.972,470.136Z" transform="translate(-419.419 -167.69)" fill="#0abb92"/>
        <circle id="Ellipse_216" data-name="Ellipse 216" cx="6.332" cy="6.332" r="6.332" transform="translate(12.138 84.433)" fill="#111d38"/>
        <circle id="Ellipse_217" data-name="Ellipse 217" cx="6.332" cy="6.332" r="6.332" transform="translate(84.542 43.272)" fill="#111d38"/>
        <circle id="Ellipse_218" data-name="Ellipse 218" cx="6.332" cy="6.332" r="6.332" transform="translate(154.011 84.433)" fill="#111d38"/>
        <circle id="Ellipse_219" data-name="Ellipse 219" cx="6.332" cy="6.332" r="6.332" transform="translate(223.48 23.219)" fill="#111d38"/>
        <circle id="Ellipse_220" data-name="Ellipse 220" cx="6.332" cy="6.332" r="6.332" transform="translate(295.884 0)" fill="#111d38"/>
        <path id="Path_585" data-name="Path 585" d="M105.108,96.875l-.747-.792,72.064-42.335,70.659,41.588,71.626-61.364.128-.041,69.513-22.638.478.913L319.444,34.8,247.24,96.66,176.425,54.98Z" transform="translate(-86.819 -5.714)" fill="#111d38"/>
      </g>
    </g>
  </g>
</svg>
