<svg id="investments_illustration" xmlns="http://www.w3.org/2000/svg" width="332.208" height="205.996" viewBox="0 0 332.208 205.996">
  <g id="Group_231" data-name="Group 231" transform="translate(258.59 180.26)">
    <path id="Path_214" data-name="Path 214" d="M692.084,478.511l-3.454-.81,2.089-15.919,5.1,1.195Z" transform="translate(-678.408 -461.783)" fill="#ffb6b6"/>
    <path id="Path_215" data-name="Path 215" d="M662.484,494.807h0a1.024,1.024,0,0,0,.647,1.289l6.814,1.768a6.358,6.358,0,0,1,4.4-2.972l-.812,3.9,3.515.912,1.183-6.31s1.8-3.073.288-5.275.008-1.556.008-1.556l.228-4.036-5.474-.754-1.6,6.013-4.129,5.309-4.265.886a1.1,1.1,0,0,0-.8.82h0Z" transform="translate(-662.444 -473.973)" fill="#2f2e41"/>
  </g>
  <g id="Group_232" data-name="Group 232" transform="translate(293.458 179.007)">
    <path id="Path_216" data-name="Path 216" d="M763.684,472.8l-3.15,1.631-8.768-13.449,4.648-2.408Z" transform="translate(-751.766 -458.572)" fill="#ffb6b6"/>
    <path id="Path_217" data-name="Path 217" d="M762.183,494.632h0a1.024,1.024,0,0,0,1.329.558l6.325-3.089a6.357,6.357,0,0,1,1.413-5.122l1.923,3.493,3.263-1.593-3.206-5.562s-.631-3.505-3.212-4.194-1.006-1.186-1.006-1.186l-2.453-3.214-4.648,2.988,2.694,5.609.317,6.718-2.663,3.448a1.1,1.1,0,0,0-.078,1.146Z" transform="translate(-757.951 -468.418)" fill="#2f2e41"/>
  </g>
  <path id="b" d="M305.788,134.718h91.548a2.087,2.087,0,0,0,2.087-2.087V3.087A2.087,2.087,0,0,0,397.336,1H305.788A2.087,2.087,0,0,0,303.7,3.087V132.631A2.087,2.087,0,0,0,305.788,134.718Z" transform="translate(-185.149 -0.61)" fill="#fff"/>
  <path id="Path_218" data-name="Path 218" d="M399.2,134.5H302.7V0h96.5Zm-95.722-.781h94.941V.781H303.482Z" transform="translate(-184.539)" fill="#e6e6e6"/>
  <path id="c" d="M410.336,55.2a.673.673,0,0,1,.673.673h0v1.345a.673.673,0,0,1-.673.673H357.209a.673.673,0,0,1-.673-.673V55.869a.673.673,0,0,1,.673-.673h53.128" transform="translate(-217.359 -33.65)" fill="#e6e6e6"/>
  <path id="d" d="M410.336,71.562a.673.673,0,0,1,.673.673h0V73.58a.673.673,0,0,1-.673.673H357.209a.673.673,0,0,1-.673-.673V72.235a.673.673,0,0,1,.673-.673h53.128" transform="translate(-217.359 -43.627)" fill="#e6e6e6"/>
  <path id="e" d="M410.336,87.929a.673.673,0,0,1,.673.673h0v1.345a.673.673,0,0,1-.673.673H357.209a.673.673,0,0,1-.673-.673V88.6a.673.673,0,0,1,.673-.673h53.128" transform="translate(-217.359 -53.605)" fill="#3b7afd"/>
  <path id="f" d="M740.107,91.232h17.648a5.115,5.115,0,0,1,.513-2.4,5.98,5.98,0,0,0,.534,2.4h.8a2.223,2.223,0,0,0,2.221-2.221V77.543c0-5.615-4.8-14.032-10.018-10.51-.168-.009-2.813-1.18-2.981-1.18-4.589,0-6.167,4.145-7.553,8.52-1.579-.728-2.667,2.31-3.454,7.656-.23,1.56-.434,3.317-.617,5.234a3.053,3.053,0,0,0,2.907,3.969v0Z" transform="translate(-449.343 -40.147)" fill="#2f2e41"/>
  <path id="g" d="M655.406,281.581c-.875,2.074-.514,4.206.806,4.763s3.1-.673,3.974-2.748a5.633,5.633,0,0,0,.462-2.62l3.6-8.835-4.182-1.6-3.1,8.88a5.636,5.636,0,0,0-1.554,2.159Z" transform="translate(-399.272 -164.933)" fill="#ffb6b6"/>
  <path id="h" d="M722.581,120.923l8.435,1.764-1.294,3.881,2.588,29.686L728,165.814l-26.307-2.156,6.469-12.939s-2.588-10.782.863-12.939,9.057-12.939,9.057-12.939Z" transform="translate(-427.78 -73.72)" fill="#75d5fd"/>
  <path id="i" d="M763.448,129.838l7.473,3.026-2.588,37.952,5.606,32.776-18.113,3.019s2.156-72.453,3.45-73.747a28.742,28.742,0,0,1,4.172-3.027v0Z" transform="translate(-460.784 -79.154)" fill="#142243"/>
  <path id="j" d="M690.472,139.408s-4.862-3.076-7.489-.8-22.852,57.34-22.852,57.34l5.455,2.37L678.1,172.086Z" transform="translate(-402.444 -83.99)" fill="#142243"/>
  <path id="k" d="M694.472,284.614l-4.933,37.921,6.9.431s3.588-9.79,7.681-21.322c.871-2.445,1.764-4.968,2.648-7.5.957-2.743,1.911-5.486,2.816-8.134,2.238-6.529,4.2-12.472,5.322-16.354.194-.681.366-1.3.509-1.842,3.017-11.593,4.743-41.887,4.743-41.887l-25.013-2.156-.267.332-5.339,6.672.25,1.41,6.65,37.3-1.966,15.125Z" transform="translate(-420.372 -136.423)" fill="#142243"/>
  <path id="l" d="M696.827,279.437l-1.966,15.125,8.845,15.572.8,1.458,12.179,22.133,6.016-3.411a361.3,361.3,0,0,1-12.731-34.351c-.544-1.8-1.048-3.58-1.5-5.313-1.333-5.076.85-14.34,0-16.893-2.885-8.617-12.287-25.855-16.651-33.664l-1.639,2.044Z" transform="translate(-420.761 -146.37)" fill="#142243"/>
  <path id="m" d="M694.616,130.128l-8.733,3.347-22.857,66.847,13.8,2.156,6.469-38.814Z" transform="translate(-404.209 -79.331)" fill="#142243"/>
  <path id="n" d="M798.05,295.427c.222,2.24,1.558,3.941,2.984,3.8s2.4-2.072,2.178-4.313a5.633,5.633,0,0,0-.846-2.523l-1.061-9.479-4.438.593,1.517,9.282a5.634,5.634,0,0,0-.334,2.64Z" transform="translate(-485.804 -172.475)" fill="#ffb6b6"/>
  <path id="o" d="M786.759,137.167s5.606-1.294,7.332,1.725,2.588,61.672,2.588,61.672l-5.932.431L787.622,172.1l-.863-34.933h0Z" transform="translate(-479.641 -83.454)" fill="#142243"/>
  <circle id="p" cx="8.965" cy="8.965" r="8.965" transform="translate(290.998 28.227)" fill="#ffb6b6"/>
  <path id="q" d="M770.942,102.578h4.427a.424.424,0,0,0,.427-.4v-.025a.428.428,0,0,1,.834-.1q.092.268.209.527h.436V88.757a4.292,4.292,0,0,0-4.292-4.292h0a4.292,4.292,0,0,0-4.2,3.393s-3.009,3.69-1.236,5.765-.806,3.764-.806,3.764a4.292,4.292,0,0,0,4.2,5.192Z" transform="translate(-467.381 -51.493)" fill="#2f2e41"/>
  <path id="r" d="M381.552,158.967A2.082,2.082,0,0,0,382.06,156l-3.255-4.479a2.343,2.343,0,0,0-3.536-.3c-5.512,2.947-8.479,7.25-5.18,12.338a17.465,17.465,0,0,0,.185,2.539,2.442,2.442,0,0,0,.384,1.026,2.341,2.341,0,0,0,2.667.923l5.324-1.73a2.093,2.093,0,0,0,1.326-2.716A3.787,3.787,0,0,1,381.552,158.967Z" transform="translate(-224.78 -91.783)" fill="#f2f2f2"/>
  <path id="s" d="M429.547,198.588a2.633,2.633,0,0,0-2.84,2.65v4.593a2.345,2.345,0,0,0,2.7,2.316c7.462.92,12.561-2.325,12.867-9.444a2.341,2.341,0,0,0-1.383-3.256L436.436,194a2.634,2.634,0,0,0-3.405,2.093A2.858,2.858,0,0,1,429.547,198.588Z" transform="translate(-260.139 -118.191)" fill="#e6e6e6"/>
  <path id="t" d="M362.855,206.482c1.547,9.184,9.606,12.668,18.01,13.219a3.282,3.282,0,0,0,3.781-3.242v-7.68a3.88,3.88,0,0,0-3.909-3.843,3.83,3.83,0,0,1-3.986-2.808,3.9,3.9,0,0,0-4.951-2.481l-7.01,2.278a3.277,3.277,0,0,0-1.935,4.557Z" transform="translate(-221.008 -121.594)" fill="#0abb92"/>
  <path id="u" d="M455.938,134.649a3.279,3.279,0,0,0-4.949.417l-6.229,8.573a2.1,2.1,0,0,0,.9,3.159c2.916,1.254,2.609,4.068,1.66,5.791a1.519,1.519,0,0,0,.835,2.2l10.5,3.411a3.286,3.286,0,0,0,4.26-2.65,24.451,24.451,0,0,0,.271-3.63C464.962,145.3,462.505,139.055,455.938,134.649Z" transform="translate(-270.903 -81.517)" fill="#3b7afd"/>
  <path id="v" d="M408.7,145.178a2.626,2.626,0,0,0,3.415-.742l2.087-2.872a2.352,2.352,0,0,0,.385-1.933,2.305,2.305,0,0,0-1.192-1.521c-4.911-4.437-10.722-4.709-15.651-.023a2.365,2.365,0,0,0-1.233,1.556,2.331,2.331,0,0,0,.381,1.92l2.439,3.356a2.6,2.6,0,0,0,3.614.619,5.6,5.6,0,0,1,5.756-.361Z" transform="translate(-241.687 -82.105)" fill="#e6e6e6"/>
  <rect id="w" width="332.208" height="0.657" transform="translate(0 205.314)" fill="#c1d3ff"/>
  <path id="x" d="M356.875,305.194a1.627,1.627,0,0,1,1.787-1.024,7.625,7.625,0,0,1,1.347.213c.462.1.92.226,1.376.356.835.238,1.662.526,2.511.712a4.362,4.362,0,0,0,2.18.032,2.069,2.069,0,0,0,1.436-1.409,1.411,1.411,0,0,0-.7-1.679,1.171,1.171,0,0,0-1.591.46l-.013.025a1.763,1.763,0,0,0,.514,1.968,5.765,5.765,0,0,0,.956.726,3.557,3.557,0,0,0,1.145.513,1.652,1.652,0,0,0,1.817-.709,1.2,1.2,0,0,0,.136-.468c.02-.223-.328-.222-.348,0-.059.639-.806.937-1.366.867a2.776,2.776,0,0,1-1.059-.411,6.2,6.2,0,0,1-.877-.619,1.505,1.505,0,0,1-.6-1.727.87.87,0,0,1,1.347-.18,1.227,1.227,0,0,1,.081,1.631,2.04,2.04,0,0,1-1.645.784,6.43,6.43,0,0,1-1.991-.312c-.8-.228-1.6-.482-2.4-.7-.457-.122-.918-.232-1.384-.317a4.571,4.571,0,0,0-1.342-.093,1.818,1.818,0,0,0-1.647,1.264C356.488,305.319,356.823,305.412,356.875,305.194Z" transform="translate(-217.357 -184.264)" fill="#3f3d56"/>
  <path id="y" d="M368.978,286.541c.105,0,.19.3.19.673v1.345c0,.371-.085.673-.19.673H353.962c-.105,0-.19-.3-.19-.673v-1.345c0-.372.085-.673.19-.673h15.016" transform="translate(-215.674 -174.687)" fill="#e6e6e6"/>
  <path id="a_" data-name="a`" d="M471.846,286.541c.105,0,.19.3.19.673v1.345c0,.371-.085.673-.19.673H456.83c-.105,0-.19-.3-.19-.673v-1.345c0-.372.085-.673.19-.673h15.016" transform="translate(-278.387 -174.687)" fill="#e6e6e6"/>
  <path id="aa" d="M466.9,304.1l-2.981.985-1.49.493a3.352,3.352,0,0,1-1.451.267.979.979,0,0,1-.835-.591.859.859,0,0,1,.37-.874c.711-.541,1.611.01,2.115.57.616.685.965,1.57,1.543,2.288a5.507,5.507,0,0,0,1.91,1.522,4.438,4.438,0,0,0,4.591-.392c1.571-1.212,1.732-3.313,1.74-5.146a.319.319,0,0,0-.637,0c-.007,1.661-.1,3.7-1.616,4.737a3.968,3.968,0,0,1-4.693-.329,7.69,7.69,0,0,1-1.691-2.16,3.914,3.914,0,0,0-1.967-1.837,1.778,1.778,0,0,0-2.122.742,1.349,1.349,0,0,0,.625,1.927c1.041.5,2.232-.085,3.234-.417l3.527-1.166c.388-.128.222-.744-.169-.615Z" transform="translate(-280.129 -184.668)" fill="#3b7afd"/>
  <path id="Path_219" data-name="Path 219" d="M128.746,495.919a.168.168,0,0,0-.089-.052,1.331,1.331,0,0,0-1.158.682l-5.236,9.724a1.331,1.331,0,0,0,.012,1.345c.247.419,11.811.57,11.811.57.486,0,1.821-5.987-5.339-12.269Z" transform="translate(-74.429 -302.302)" fill="#c1d3ff"/>
  <g id="Group_233" data-name="Group 233" transform="translate(32.923 188.149)">
    <path id="Path_220" data-name="Path 220" d="M87.67,497.373l3.974-.035L93.4,481.992l-5.866.052Z" transform="translate(-86.75 -481.992)" fill="#ffb6b6"/>
    <path id="Path_221" data-name="Path 221" d="M100.059,513.981h0a3.413,3.413,0,0,1,.2,1.122h0a1.349,1.349,0,0,1-1.337,1.361l-12.308.107a.92.92,0,0,1-.928-.912l0-.512a3.934,3.934,0,0,1,.615-3.444s1.571,1.473,3.879-.876l.676-1.25,5,3.591,2.757.315c.6.069,1.137-.021,1.451.5Z" transform="translate(-85.523 -498.809)" fill="#2f2e41"/>
  </g>
  <g id="Group_234" data-name="Group 234" transform="translate(48.189 175.716)">
    <path id="Path_222" data-name="Path 222" d="M126.613,464.706l3.776,1.24,6.579-13.975-5.573-1.83Z" transform="translate(-125.377 -450.141)" fill="#ffb6b6"/>
    <path id="Path_223" data-name="Path 223" d="M137.649,486.995h0a3.412,3.412,0,0,1-.171,1.126h0a1.349,1.349,0,0,1-1.7.861l-11.694-3.84a.92.92,0,0,1-.587-1.161l.16-.487a3.934,3.934,0,0,1,1.685-3.066s1.017,1.9,3.955.413l1.04-.967,3.588,5,2.511,1.182c.549.258,1.084.344,1.215.937Z" transform="translate(-123.448 -468.267)" fill="#2f2e41"/>
  </g>
  <path id="Path_224" data-name="Path 224" d="M91.458,256.9l7.94,25.46,9.309,22.881L94.6,338.166l-7.851-3.059,7.026-28.5L81.762,285.334l-5.676,63.872-6.905-.827L60.2,271.869l1.408-16.638Z" transform="translate(-36.702 -155.6)" fill="#3b7afd"/>
  <path id="ab" d="M81.263,107.771,72.684,105.7l-2.367,5.621s-11.593,1.958-12.186,10.834c0,0-2.311,11.65-.831,14.9s5.125,14.763,5.125,14.763-5.773,14.338-4.294,15.224,33.18,4.117,33.18,2.342.362-22.863.362-22.863l-1.241-31.951-7.986-2.957-1.184-3.846h0Z" transform="translate(-34.631 -64.439)" fill="#c1d3ff"/>
  <circle id="Ellipse_39" data-name="Ellipse 39" cx="8.645" cy="8.645" r="8.645" transform="translate(36.535 24.611)" fill="#ffb6b6"/>
  <path id="Path_225" data-name="Path 225" d="M92.947,67.307c.69.377.036,2.181.467,2.337.5.18,2.315-1.889,2.337-4.206a7.859,7.859,0,0,1,0-1.869c.2-1.088.825-2.37,1.4-2.337.342.02.676.5.7.935.035.6-.552.843-.467,1.168.161.62,2.627,1.048,3.5,0,.688-.821.16-2.263.467-2.337.227-.054.471.739,1.4,1.636.351.338.873.84,1.168.7.427-.2.116-1.617.234-1.636a11.54,11.54,0,0,0,.7,1.869c.7,1.143,2.134,2.024,2.8,1.636.411-.238.443-.9.467-1.4.052-1.059,1.589-3.494,1.191-4.627-.811-2.3-2.2-.679-2.826-1.448-.85-1.041-1.613-.481-3.038-1.636-1.392-1.128-1.4-2.262-2.337-2.337-.839-.067-1.137.828-2.1.7-.818-.108-1-.8-1.636-.7-.586.093-.624.7-1.4.935-.5.147-.606-.065-1.168,0a3.362,3.362,0,0,0-2.1,1.4c-.567.77-.347,1.094-.935,1.869-.507.668-1.63.385-2.053.719-1.38,1.091-1.972,3.1-1.983,5.394a16.451,16.451,0,0,0,.669,4.436,11.486,11.486,0,0,0,2.9,4.406c.243.238.924.9,1.4.7.453-.192.467-1.054.467-1.168,0-.392-.1-.876-.935-2.1-.874-1.289-1.221-1.436-1.168-1.869.093-.767,1.319-1.469,1.869-1.168Z" transform="translate(-53.491 -32.765)" fill="#2f2e41"/>
  <g id="Group_235" data-name="Group 235" transform="translate(14.795 49.927)">
    <path id="Path_226" data-name="Path 226" d="M38.365,288.5c-.3,2.514.752,4.707,2.352,4.9s3.141-1.691,3.442-4.2a6.337,6.337,0,0,0-.315-2.976l1.142-10.668-5.018-.429-.593,10.562A6.337,6.337,0,0,0,38.365,288.5Z" transform="translate(-38.153 -217.653)" fill="#ffb6b6"/>
    <path id="Path_227" data-name="Path 227" d="M52.562,127.9s-2.6.036-4.322,3.4c-.915,1.786-6.865,33.8-6.865,33.8L39.7,175.223l.859,1.675a8.477,8.477,0,0,0-1.028,7.064h0L37.9,193.853l7.679.041,5.993-25.914,5.039-15.029L52.562,127.9Z" transform="translate(-37.902 -127.902)" fill="#c1d3ff"/>
  </g>
  <g id="Group_236" data-name="Group 236" transform="translate(50.188 49.537)">
    <path id="Path_228" data-name="Path 228" d="M165.62,287.5c.3,2.514-.752,4.707-2.352,4.9s-3.141-1.691-3.442-4.2a6.337,6.337,0,0,1,.315-2.976L159,274.55l5.018-.429.593,10.562A6.338,6.338,0,0,1,165.62,287.5Z" transform="translate(-147.122 -216.653)" fill="#ffb6b6"/>
    <path id="Path_229" data-name="Path 229" d="M132.621,126.9s2.6.036,4.322,3.4c.915,1.786,6.865,33.8,6.865,33.8l1.671,10.125-.859,1.675a8.477,8.477,0,0,1,1.028,7.064h0l1.633,9.892-7.679.041-5.993-25.914-5.039-15.029,4.051-25.05Z" transform="translate(-128.57 -126.902)" fill="#c1d3ff"/>
  </g>
  <path id="Path_230" data-name="Path 230" d="M740.734,74.789c.319.522,2.011-1.388,4.609-1.6.662-.055,2.153,2.478,3.863,2.514,1.134.023,1.832.014,3.228,0,1.65-.018,2.1-.055,2.421-.458.617-.783.109-2.175.4-2.29.246-.1.884.765,1.21,1.832.686,2.239-1.775,5.358-2.017,8.243-.258,3.109,2.283-2.848,2.017,0-.3,3.206-1.368,2.963-1.356,4.121a.78.78,0,0,0,.145.458c.085.119.169.165,1.614.458a12.985,12.985,0,0,0,2.824.458c.593-.174,1.194-1.14,1.614-1.832.694-1.131.2.009,0-1.374-.194-1.337-.8-1.511-.807-2.748-.008-1.557.948-2.029,1.614-3.663,1.23-3.022.028-6.521-.4-7.785a21.432,21.432,0,0,0-1.242-2.641,7.888,7.888,0,0,0-2.088-2.585A9.742,9.742,0,0,0,754,63.929a6.157,6.157,0,0,0-2.651.166l-2.248.613a7.012,7.012,0,0,0-2.622,1.375h0a1.771,1.771,0,0,0-1.618,1.321c-.026.082-.05.129-.07.122-4.053-1.438-4.05,2.821-4.006,5.482a4.241,4.241,0,0,1-.035.709v.014a2.13,2.13,0,0,0-.012,1.058Z" transform="translate(-451.547 -38.927)" fill="#2f2e41"/>
  <rect id="Rectangle_226" data-name="Rectangle 226" width="42.669" height="0.781" transform="translate(193.832 59.384)" fill="#3f3d56"/>
  <path id="Path_231" data-name="Path 231" d="M619.321,149.029a5.465,5.465,0,1,1,5.465-5.465A5.471,5.471,0,0,1,619.321,149.029Zm0-10.149A4.684,4.684,0,1,0,624,143.564,4.69,4.69,0,0,0,619.321,138.879Z" transform="translate(-374.232 -84.191)" fill="#3f3d56"/>
  <circle id="Ellipse_40" data-name="Ellipse 40" cx="2.733" cy="2.733" r="2.733" transform="translate(242.356 56.64)" fill="#3b7afd"/>
  <rect id="Rectangle_227" data-name="Rectangle 227" width="42.669" height="0.781" transform="translate(96.362 88.271)" fill="#3f3d56"/>
  <path id="Path_232" data-name="Path 232" d="M210.856,217.564a5.465,5.465,0,1,1,5.465,5.465A5.471,5.471,0,0,1,210.856,217.564Zm.781,0a4.684,4.684,0,1,0,4.684-4.684A4.69,4.69,0,0,0,211.636,217.564Z" transform="translate(-128.546 -129.304)" fill="#3f3d56"/>
  <circle id="Ellipse_41" data-name="Ellipse 41" cx="2.733" cy="2.733" r="2.733" transform="translate(85.042 85.527)" fill="#0abb92"/>
</svg>
