<svg xmlns="http://www.w3.org/2000/svg" xmlns:xlink="http://www.w3.org/1999/xlink" width="518" height="164" viewBox="0 0 518 164">
  <defs>
    <clipPath id="clip-path">
      <rect id="Rectangle_368" data-name="Rectangle 368" width="518" height="164" rx="10" transform="translate(150 150)" fill="#3b7afd"/>
    </clipPath>
  </defs>
  <g id="ownershipshare" transform="translate(-150 -150)" clip-path="url(#clip-path)">
    <g id="Group_482" data-name="Group 482" transform="translate(115.44 -28.642)">
      <path id="Path_861" data-name="Path 861" d="M786.515,148.4a109.366,109.366,0,0,1,75.7-34.9V225.029Z" transform="translate(-402.205 107.082)" fill="#ffd"/>
      <path id="Path_862" data-name="Path 862" d="M816.606,201.87,892.3,278.5H786.515A111.979,111.979,0,0,1,816.606,201.87Z" transform="translate(-431.112 66.949)" fill="#a0ffe6"/>
      <path id="Path_863" data-name="Path 863" d="M786.51,355.18a113.237,113.237,0,0,0,1.9,20.72c.1.541.2,1.077.311,1.612a111.555,111.555,0,0,0,12.762,33.854c.321.563.655,1.126.987,1.678v.005a111.634,111.634,0,0,0,22.142,26.517c.431.381.862.756,1.3,1.126a109.031,109.031,0,0,0,66.5,26.015V355.18Z" transform="translate(-431.22 -1.72)" fill="#81f5ff"/>
      <path id="Path_864" data-name="Path 864" d="M632.36,466.8c-1.464,0-2.92-.038-4.371-.1V355.175l80.125,81.111A109.173,109.173,0,0,1,632.36,466.8Z" transform="translate(-160.469 -1.718)" fill="#cacaca"/>
      <path id="Path_865" data-name="Path 865" d="M569.46,138.473c60.9,0,110.271,49.978,110.271,111.628H564.975V138.572C566.464,138.512,567.957,138.473,569.46,138.473Z" transform="translate(-97.719 95.345)" fill="#a0ffe6"/>
      <path id="Path_866" data-name="Path 866" d="M508.72,355.18,531.9,378.649l.758.767.016.017L552.9,399.894l.769.778,21.842,22.111.769.778v.005l12.571,12.72a111.96,111.96,0,0,0,34.517-81.108Z" transform="translate(-10.671 -1.72)" fill="#6c63ff"/>
    </g>
  </g>
</svg>
