<svg xmlns="http://www.w3.org/2000/svg" xmlns:xlink="http://www.w3.org/1999/xlink" width="529" height="296" viewBox="0 0 529 296">
  <defs>
    <clipPath id="clip-path">
      <path id="Rectangle_387" data-name="Rectangle 387" d="M10,0H519a10,10,0,0,1,10,10V296a0,0,0,0,1,0,0H0a0,0,0,0,1,0,0V10A10,10,0,0,1,10,0Z" fill="#a0ffe6"/>
    </clipPath>
  </defs>
  <g id="socialdao" clip-path="url(#clip-path)">
    <g id="Group_505" data-name="Group 505" transform="translate(62.862 54.988)">
      <path id="Path_966" data-name="Path 966" d="M461.459,661.944c-16.11-7.415-29.333-23.061-29.709-40.792a81.71,81.71,0,0,0,53.467,16.985c7.43-.345,15.657-1.5,21.624,2.938,3.712,2.763,5.784,7.3,6.529,11.864s.308,9.236-.13,13.843l.432,1.071C496.042,669.787,477.569,669.359,461.459,661.944Z" transform="translate(-313.5 -399.749)" fill="#f0f0f0"/>
      <path id="Path_967" data-name="Path 967" d="M431.709,620.827a69.84,69.84,0,0,0,32.2,28.45,30.074,30.074,0,0,0,9.078,2.526,17.25,17.25,0,0,0,8.924-1.666c2.61-1.2,5.142-2.729,8-3.273a10.562,10.562,0,0,1,8.374,2.119c2.969,2.225,4.962,5.385,6.8,8.542,2.044,3.506,4.112,7.179,7.565,9.49.418.28-.041.913-.458.633-6.007-4.021-7.724-11.638-12.711-16.595-2.327-2.313-5.364-3.939-8.725-3.531-2.939.356-5.551,1.931-8.183,3.168a18.406,18.406,0,0,1-8.665,1.954,27.8,27.8,0,0,1-9.142-2.167,67.756,67.756,0,0,1-18.125-10.952,71.077,71.077,0,0,1-15.65-18.383C430.738,620.711,431.455,620.4,431.709,620.827Z" transform="translate(-313.091 -399.481)" fill="#fff"/>
      <path id="Path_968" data-name="Path 968" d="M475.149,674.5a10.478,10.478,0,0,1-12.876,4.278c-.466-.19-.193-.922.274-.732a9.7,9.7,0,0,0,11.97-4C474.775,673.611,475.407,674.072,475.149,674.5Z" transform="translate(-328.773 -426.338)" fill="#fff"/>
      <path id="Path_969" data-name="Path 969" d="M522.611,668.7a20.2,20.2,0,0,0-8.354-12.117c-.417-.281.042-.914.458-.633a21.007,21.007,0,0,1,8.668,12.627C523.5,669.071,522.724,669.192,522.611,668.7Z" transform="translate(-355.031 -417.266)" fill="#fff"/>
      <path id="Path_970" data-name="Path 970" d="M451.853,641.368a5.931,5.931,0,0,0,1.43-5.443c-.12-.489.653-.61.772-.124a6.647,6.647,0,0,1-1.569,6.025.4.4,0,0,1-.546.087.393.393,0,0,1-.087-.546Z" transform="translate(-323.602 -406.981)" fill="#fff"/>
      <path id="Path_971" data-name="Path 971" d="M515.866,541.981c.084.3.167.607.257.912a78.114,78.114,0,0,0,4.407,11.88c.134.3.273.6.415.893a82.346,82.346,0,0,0,17.916,24.458,79.976,79.976,0,0,0,9.475,7.607c4.622,3.165,9.885,6.228,13.1,10.606a13.72,13.72,0,0,1,.934,1.418l-8.756,27.556c-.051.053-.1.108-.148.16l-.3,1.116c-.181-.106-.366-.22-.547-.326-.105-.061-.208-.128-.314-.189-.07-.043-.139-.086-.2-.12-.023-.014-.046-.029-.063-.041-.065-.035-.122-.074-.181-.106q-1.556-.951-3.1-1.928c-.006,0-.006,0-.011-.01a117.583,117.583,0,0,1-21.762-17.3c-.193-.2-.392-.4-.58-.614a76.31,76.31,0,0,1-7.833-9.681,67.472,67.472,0,0,1-3.537-5.838,56.1,56.1,0,0,1-5.771-16.563c-2.078-11.541-.441-23.619,6.1-33.169C515.526,542.462,515.692,542.224,515.866,541.981Z" transform="translate(-352.165 -359.817)" fill="#f0f0f0"/>
      <path id="Path_972" data-name="Path 972" d="M522.9,541.848a69.84,69.84,0,0,0,8.583,42.1,30.075,30.075,0,0,0,5.728,7.482,17.25,17.25,0,0,0,8.129,4.043c2.806.614,5.748.917,8.357,2.2a10.562,10.562,0,0,1,5.41,6.734c1.031,3.564.72,7.286.289,10.916-.478,4.03-1.039,8.208.326,12.132.165.475-.582.7-.747.23-2.375-6.827.839-13.943-.157-20.9-.465-3.247-1.912-6.374-4.841-8.073-2.561-1.485-5.594-1.8-8.441-2.4a18.406,18.406,0,0,1-8.1-3.657,27.8,27.8,0,0,1-5.995-7.235,67.757,67.757,0,0,1-7.878-19.657,71.079,71.079,0,0,1-1.428-24.1C522.192,541.171,522.952,541.353,522.9,541.848Z" transform="translate(-358.865 -359.51)" fill="#fff"/>
      <path id="Path_973" data-name="Path 973" d="M523.119,614.226a10.478,10.478,0,0,1-12.856-4.337c-.258-.432.4-.852.659-.42a9.7,9.7,0,0,0,11.967,4.01C523.356,613.291,523.583,614.039,523.119,614.226Z" transform="translate(-353.07 -393.764)" fill="#fff"/>
      <path id="Path_974" data-name="Path 974" d="M566.4,634.821a20.2,20.2,0,0,0,.625-14.7c-.164-.476.584-.705.747-.23a21.007,21.007,0,0,1-.682,15.3c-.2.46-.894.092-.691-.366Z" transform="translate(-381.397 -398.978)" fill="#fff"/>
      <path id="Path_975" data-name="Path 975" d="M523.516,571.278a5.931,5.931,0,0,0,4.419-3.485c.2-.463.888-.094.691.366a6.646,6.646,0,0,1-4.88,3.866.4.4,0,0,1-.488-.259.393.393,0,0,1,.259-.488Z" transform="translate(-359.645 -372.728)" fill="#fff"/>
      <path id="Path_976" data-name="Path 976" d="M905.286,678.147a36.275,36.275,0,0,1-6.453,9.313q-.885.922-1.819,1.784c-.431.4-.872.793-1.323,1.18H865.165c.025-.4.069-.788.129-1.18a9.726,9.726,0,0,1,1.3-3.578c2.537-4.084,7.756-5.338,12.306-6.889,1.086-.372,2.161-.778,3.217-1.224,1.363-.57,2.7-1.2,4-1.883A53.215,53.215,0,0,0,901.5,663.536c.139-.159.273-.317.406-.481a50.566,50.566,0,0,0,4.8-6.646c.109-.169.208-.342.312-.515.064.178.129.362.193.54C909.647,663.517,908.577,671.323,905.286,678.147Z" transform="translate(-532.104 -417.272)" fill="#f0f0f0"/>
      <path id="Path_977" data-name="Path 977" d="M914.823,655.781c-.025.159-.049.317-.079.471a45.634,45.634,0,0,1-2.9,9.972,46.133,46.133,0,0,1-2.077,4.322,45.586,45.586,0,0,1-5.258,7.677c-.109.129-.223.258-.332.387q-1.293,1.479-2.711,2.815a18.036,18.036,0,0,1-4.981,3.469,11.337,11.337,0,0,1-4.748.912c-.307,0-.614-.015-.927-.035-1.249-.079-2.528-.248-3.787-.213a8.081,8.081,0,0,0-1.883.248,6.511,6.511,0,0,0-3.94,3.256,9.216,9.216,0,0,0-.471.937c-.035.079-.069.164-.1.243h-.545a10.494,10.494,0,0,1,.535-1.18c.1-.2.218-.4.337-.595a6.834,6.834,0,0,1,4.535-3.256,9.289,9.289,0,0,1,1.735-.154c1.284-.02,2.572.159,3.851.228.134,0,.268.015.4.015.168,0,.342,0,.51,0a10.873,10.873,0,0,0,4.847-1.135A19.608,19.608,0,0,0,901.7,680.5c.768-.758,1.507-1.551,2.211-2.369.035-.035.065-.069.094-.1a44.667,44.667,0,0,0,7.276-11.751c.069-.154.134-.307.2-.461a45.336,45.336,0,0,0,2.761-9.59c.03-.154.054-.312.079-.466C914.367,655.444,914.873,655.464,914.823,655.781Z" transform="translate(-539.629 -417.09)" fill="#fff"/>
      <path id="Path_978" data-name="Path 978" d="M928.2,700.863a6.772,6.772,0,0,0,8.756-.479c.235-.224-.1-.6-.338-.376a6.271,6.271,0,0,1-8.146.429C928.211,700.24,927.94,700.666,928.2,700.863Z" transform="translate(-563.843 -439.487)" fill="#fff"/>
      <path id="Path_979" data-name="Path 979" d="M903.493,706.1a13.052,13.052,0,0,1,2.152-9.266c.184-.268-.242-.54-.426-.272A13.576,13.576,0,0,0,903,706.2c.048.322.541.212.493-.109Z" transform="translate(-551.112 -437.726)" fill="#fff"/>
      <path id="Path_980" data-name="Path 980" d="M941.012,673.242a3.833,3.833,0,0,1-2.15-2.934c-.044-.323-.537-.212-.493.109a4.3,4.3,0,0,0,2.371,3.251.261.261,0,0,0,.349-.077A.254.254,0,0,0,941.012,673.242Z" transform="translate(-569.024 -424.444)" fill="#fff"/>
      <path id="Path_981" data-name="Path 981" d="M873.669,660.158c-.178,1.467-.426,2.909-.743,4.342v0a49.253,49.253,0,0,1-2.419,7.677v.005c-.064.173-.134.337-.2.5-.491,1.185-1.021,2.349-1.586,3.5-.193.4-.392.788-.595,1.18H848.233l-.961-1.18-.337-.416a8.781,8.781,0,0,1,.228-1.075c.892-3.4,3.331-6.483,5.363-9.481a51.487,51.487,0,0,0,3.891-6.82,53.146,53.146,0,0,0,4.981-18.948c.015-.213.025-.426.035-.639a50.746,50.746,0,0,0-.164-8.188v-.01c-.02-.2-.04-.4-.064-.6.158.109.317.208.471.312h0a.005.005,0,0,1,0,0h0c6.181,4.183,10.026,11.038,11.518,18.452,0,.015,0,.03.01.045a36.418,36.418,0,0,1,.456,11.33Z" transform="translate(-522.909 -404.218)" fill="#f0f0f0"/>
      <path id="Path_982" data-name="Path 982" d="M873.989,653.816c-.01.168-.02.332-.035.5-.094,1.3-.248,2.6-.466,3.886a18.065,18.065,0,0,1-1.893,5.769,11.3,11.3,0,0,1-3.241,3.583q-.372.283-.758.535a17.931,17.931,0,0,0-4.51,3.44,6.283,6.283,0,0,0-1.239,4.436,8.634,8.634,0,0,0,.159,1.18h-.51a9.193,9.193,0,0,1-.144-.971q-.008-.1-.015-.208a6.793,6.793,0,0,1,1.675-5.125,23.074,23.074,0,0,1,4.5-3.306c.114-.074.223-.154.332-.233.139-.094.278-.2.411-.3a10.709,10.709,0,0,0,3.187-3.821,19.414,19.414,0,0,0,1.67-5.853q.231-1.606.347-3.222c0-.05,0-.094,0-.144v0A45,45,0,0,0,872.21,640.2c-.045-.164-.089-.322-.129-.486a45.16,45.16,0,0,0-3.564-9.313v-.01c-.074-.139-.144-.278-.218-.416-.154-.282.263-.575.411-.287.074.139.144.278.213.416h0a0,0,0,0,1,0,0,45.3,45.3,0,0,1,3.707,9.779,44.191,44.191,0,0,1,.927,4.629,45.583,45.583,0,0,1,.426,9.3Z" transform="translate(-530.158 -403.992)" fill="#fff"/>
      <path id="Path_983" data-name="Path 983" d="M886.07,673.462a6.772,6.772,0,0,0,6.7-5.654c.053-.321-.443-.417-.5-.1a6.271,6.271,0,0,1-6.246,5.247c-.325,0-.284.5.039.5Z" transform="translate(-542.515 -423.132)" fill="#fff"/>
      <path id="Path_984" data-name="Path 984" d="M871.1,696.251a13.052,13.052,0,0,1-3.861-8.694c-.014-.325-.518-.286-.5.039a13.576,13.576,0,0,0,4.036,9.038c.232.228.56-.157.329-.384Z" transform="translate(-532.898 -433.128)" fill="#fff"/>
      <path id="Path_985" data-name="Path 985" d="M879.4,648.839a3.833,3.833,0,0,1-3.483-1.048c-.229-.231-.556.154-.329.384a4.3,4.3,0,0,0,3.851,1.168.261.261,0,0,0,.232-.271.254.254,0,0,0-.271-.232Z" transform="translate(-537.322 -413.149)" fill="#fff"/>
      <path id="Path_986" data-name="Path 986" d="M197.306,247.87c.481-17.728,9.664-36.04,25.817-43.359a81.71,81.71,0,0,0,5.416,55.837c3.24,6.695,7.541,13.8,5.8,21.036-1.08,4.5-4.433,8.188-8.339,10.669s-8.37,3.916-12.778,5.326l-.815.819C203.7,282.751,196.825,265.6,197.306,247.87Z" transform="translate(-195.24 -189.605)" fill="#f0f0f0"/>
      <path id="Path_987" data-name="Path 987" d="M235.3,204.457a69.84,69.84,0,0,0-13.489,40.8,30.075,30.075,0,0,0,1.249,9.34,17.25,17.25,0,0,0,5.042,7.55c2.13,1.928,4.531,3.654,6.155,6.066a10.562,10.562,0,0,1,1.345,8.532c-.878,3.605-3,6.68-5.177,9.615-2.419,3.258-4.983,6.6-5.75,10.688-.093.495-.855.322-.762-.172,1.334-7.1,7.661-11.68,10.257-18.213,1.211-3.049,1.511-6.481-.186-9.411-1.484-2.562-3.959-4.344-6.132-6.277a18.407,18.407,0,0,1-5.205-7.2,27.8,27.8,0,0,1-1.6-9.258,67.758,67.758,0,0,1,2.939-20.972,71.078,71.078,0,0,1,10.745-21.619c.3-.4.866.132.571.534Z" transform="translate(-207.22 -189.236)" fill="#fff"/>
      <path id="Path_988" data-name="Path 988" d="M212.948,267.184a10.478,10.478,0,0,1-9-10.156c-.009-.5.772-.54.781-.037a9.7,9.7,0,0,0,8.389,9.43c.5.069.323.831-.172.762Z" transform="translate(-198.603 -215.894)" fill="#fff"/>
      <path id="Path_989" data-name="Path 989" d="M232.689,306.886a20.2,20.2,0,0,0,7.855-12.447c.095-.494.857-.322.762.172a21.007,21.007,0,0,1-8.2,12.936c-.407.3-.822-.365-.417-.661Z" transform="translate(-213.015 -234.813)" fill="#fff"/>
      <path id="Path_990" data-name="Path 990" d="M232.79,232.446a5.931,5.931,0,0,0,5.567-.826c.4-.3.817.36.417.661a6.646,6.646,0,0,1-6.157.928.4.4,0,0,1-.3-.467.393.393,0,0,1,.467-.3Z" transform="translate(-212.91 -203.239)" fill="#fff"/>
      <path id="Path_991" data-name="Path 991" d="M292.181,256.765c-.246.2-.492.392-.738.6a78.108,78.108,0,0,0-9.188,8.725c-.222.24-.443.487-.658.733a82.347,82.347,0,0,0-15.439,26.092,79.969,79.969,0,0,0-3.267,11.7c-1.091,5.494-1.838,11.538-4.6,16.213a13.717,13.717,0,0,1-.936,1.416l-28.779,2.789c-.069-.026-.137-.046-.206-.073l-1.144.164c.026-.208.058-.423.085-.631.015-.121.036-.242.051-.363.012-.081.024-.161.03-.235,0-.027.008-.054.013-.074.006-.074.02-.141.026-.208.175-1.2.356-2.407.551-3.612,0-.007,0-.007.005-.014a117.584,117.584,0,0,1,7.343-26.812c.108-.256.215-.518.336-.775a76.308,76.308,0,0,1,5.819-11.009,67.462,67.462,0,0,1,3.976-5.548,56.1,56.1,0,0,1,12.958-11.821c9.794-6.45,21.541-9.7,32.9-7.437C291.605,256.642,291.89,256.7,292.181,256.765Z" transform="translate(-210.343 -215.508)" fill="#f0f0f0"/>
      <path id="Path_992" data-name="Path 992" d="M292.214,257.627a69.84,69.84,0,0,0-35.333,24.453,30.076,30.076,0,0,0-4.626,8.21,17.25,17.25,0,0,0-.52,9.064c.54,2.822,1.418,5.645,1.262,8.549a10.562,10.562,0,0,1-4.063,7.623c-2.871,2.35-6.416,3.528-9.922,4.56-3.893,1.145-7.955,2.273-11.026,5.072-.372.339-.876-.258-.5-.6,5.342-4.869,13.149-4.713,19.155-8.367,2.8-1.705,5.109-4.265,5.518-7.626.358-2.939-.546-5.852-1.117-8.7a18.407,18.407,0,0,1,.178-8.881,27.8,27.8,0,0,1,4.293-8.357,67.758,67.758,0,0,1,14.973-14.976,71.079,71.079,0,0,1,21.6-10.793c.48-.145.612.626.135.77Z" transform="translate(-210.406 -215.998)" fill="#fff"/>
      <path id="Path_993" data-name="Path 993" d="M289.171,285.92a10.478,10.478,0,0,1-1.07-13.526c.3-.407.942.034.646.441a9.7,9.7,0,0,0,1.021,12.58C290.124,285.77,289.526,286.273,289.171,285.92Z" transform="translate(-240.047 -223.762)" fill="#fff"/>
      <path id="Path_994" data-name="Path 994" d="M275.2,334.4a20.2,20.2,0,0,0,13.765-5.209c.373-.338.878.259.505.6a21.007,21.007,0,0,1-14.335,5.392C274.63,335.173,274.7,334.394,275.2,334.4Z" transform="translate(-234.332 -252.44)" fill="#fff"/>
      <path id="Path_995" data-name="Path 995" d="M327.324,270.859a5.931,5.931,0,0,0,4.942,2.692c.5,0,.436.78-.065.779a6.646,6.646,0,0,1-5.474-2.966.4.4,0,0,1,.046-.551.393.393,0,0,1,.551.046Z" transform="translate(-260.485 -223)" fill="#fff"/>
      <path id="Path_996" data-name="Path 996" d="M669.365,559.165H587.087a17.365,17.365,0,0,1-17.345-17.345V414.937a17.365,17.365,0,0,1,17.345-17.345h82.278a17.365,17.365,0,0,1,17.345,17.345V541.82a17.365,17.365,0,0,1-17.345,17.345Z" transform="translate(-383.1 -286.99)" fill="#fff"/>
      <path id="Path_997" data-name="Path 997" d="M669.775,559.388H605.34a17.117,17.117,0,0,1-17.1-17.1V440.112a17.116,17.116,0,0,1,17.1-17.1h64.435a17.117,17.117,0,0,1,17.1,17.1V542.291A17.117,17.117,0,0,1,669.775,559.388Z" transform="translate(-392.431 -299.813)" fill="#ffb74d"/>
      <rect id="Rectangle_397" data-name="Rectangle 397" width="115.976" height="26.764" transform="translate(187.372 222.386)" fill="#3f3d56"/>
      <path id="Path_998" data-name="Path 998" d="M216.1,333.928l-19.639-25.249a15.725,15.725,0,0,1,2.758-22.068l79.543-61.867a30.032,30.032,0,0,1,16.158-6.254l6.709-.519L359.4,184.134a4.954,4.954,0,0,1,8.415-5.106l16.431,21.126a4.955,4.955,0,0,1-7.047,6.879l-47.254,47.254a29.91,29.91,0,0,1-11.37,19.863l-80.4,62.537a15.725,15.725,0,0,1-22.068-2.759Z" transform="translate(-193.155 -175.787)" fill="#fff"/>
      <path id="Path_999" data-name="Path 999" d="M669.365,559.165H587.087a17.365,17.365,0,0,1-17.345-17.345V414.937a17.365,17.365,0,0,1,17.345-17.345h82.278a17.365,17.365,0,0,1,17.345,17.345V541.82a17.365,17.365,0,0,1-17.345,17.345ZM587.087,398.583a16.372,16.372,0,0,0-16.354,16.354V541.82a16.372,16.372,0,0,0,16.354,16.354h82.278a16.372,16.372,0,0,0,16.354-16.354V414.937a16.372,16.372,0,0,0-16.354-16.354Z" transform="translate(-383.1 -286.99)" fill="#3f3d56"/>
      <path id="Path_1000" data-name="Path 1000" d="M570.631,184.372a29.811,29.811,0,0,1,27.512,2.593c8.3,5.33,14.486,14.931,16.552,25.7,1.012,5.276,1.379,11.412,5.069,14.7,2.7,2.405,6.384,2.468,9.637,3.631,9.621,3.439,14.586,16.79,13.185,28.385s-7.64,21.58-14.335,30.322c2.129-4.7-.635-10.79-4.678-13.255s-8.862-2.258-13.413-1.85-9.294.925-13.539-1.03c-7.252-3.341-10.923-13.023-11.471-22.075s1.262-18.073,1.392-27.145-1.885-19.012-8.151-24.415c-2.882-2.485-6.448-3.81-9.129-6.583s-4.12-8.036-1.615-11.024" transform="translate(-381.388 -178.33)" fill="#ffb74d"/>
      <path id="Path_1001" data-name="Path 1001" d="M664.73,361.9c-.259,0-.517.009-.772.024A13.385,13.385,0,0,0,645.6,345.35c-2.145-6.038-6.755-10.215-12.1-10.215s-9.954,4.177-12.1,10.215a13.4,13.4,0,0,0-11.487,0c-2.145-6.038-6.755-10.215-12.1-10.215s-9.954,4.177-12.1,10.215a13.385,13.385,0,0,0-18.35,16.581c-.257-.02-.515-.032-.775-.032-7.391,0-13.382,7.988-13.382,17.843s5.991,17.842,13.382,17.842c6.087,0,11.221-5.421,12.844-12.837a13.388,13.388,0,0,0,15.2,2.623c2.145,6.038,6.755,10.215,12.1,10.215,6.087,0,11.221-5.421,12.844-12.837a13.388,13.388,0,0,0,15.2,2.623c2.145,6.038,6.755,10.215,12.1,10.215s9.954-4.177,12.1-10.215a13.383,13.383,0,1,0,5.744-25.47Z" transform="translate(-374.764 -255.489)" fill="#f0f0f0"/>
      <circle id="Ellipse_307" data-name="Ellipse 307" cx="2.478" cy="2.478" r="2.478" transform="translate(216.119 139.617)" fill="#fff"/>
      <circle id="Ellipse_308" data-name="Ellipse 308" cx="2.478" cy="2.478" r="2.478" transform="translate(231.483 181.745)" fill="#fff"/>
      <circle id="Ellipse_309" data-name="Ellipse 309" cx="2.478" cy="2.478" r="2.478" transform="translate(247.343 152.999)" fill="#fff"/>
      <circle id="Ellipse_310" data-name="Ellipse 310" cx="2.478" cy="2.478" r="2.478" transform="translate(229.501 161.92)" fill="#fff"/>
      <circle id="Ellipse_311" data-name="Ellipse 311" cx="2.478" cy="2.478" r="2.478" transform="translate(260.725 188.684)" fill="#fff"/>
      <circle id="Ellipse_312" data-name="Ellipse 312" cx="2.478" cy="2.478" r="2.478" transform="translate(269.646 139.617)" fill="#fff"/>
      <path id="Path_1002" data-name="Path 1002" d="M804.742,546.03v-.991a46.228,46.228,0,0,0,0-92.456v-.991a47.219,47.219,0,1,1,0,94.438Z" transform="translate(-501.628 -314.226)" fill="#3f3d56"/>
      <path id="Path_1003" data-name="Path 1003" d="M804.711,550.02h-.5v-1.25h.991v.255a35.423,35.423,0,1,0-.5-70.845v-.99a36.415,36.415,0,0,1,0,72.83Z" transform="translate(-501.362 -327.138)" fill="#3f3d56"/>
      <path id="Path_1004" data-name="Path 1004" d="M227.786,348.183,210.9,326.474a13.342,13.342,0,0,1,2.34-18.724l68.389-53.191a25.644,25.644,0,0,1,13.8-5.34l5.809-.45,53.545-31.363,14.395,18.508-43.822,43.822a25.54,25.54,0,0,1-9.716,17.02l-69.129,53.767A13.342,13.342,0,0,1,227.786,348.183Z" transform="translate(-200.691 -196.11)" fill="#ffb74d"/>
      <path id="Path_1005" data-name="Path 1005" d="M532.5,199.4a6.46,6.46,0,0,0,5.522-1.377c2.593-2.017,3.469-5.228,1.956-7.172a3.442,3.442,0,0,0-1.005-.87,3.986,3.986,0,0,0-.56-3.564,3.4,3.4,0,0,0-.684-.659c1.705-2.361,2.345-4.471,1.466-5.6a2.5,2.5,0,0,0-2.025-.8,3.744,3.744,0,0,0-.714-2.717c-1.277-1.642-3.848-1.85-6.179-.663-.028-.039-.051-.081-.081-.12-1.513-1.945-4.84-1.886-7.433.13a6.909,6.909,0,0,0-2.59,3.936,6.909,6.909,0,0,0-4.452,1.541c-2.593,2.017-3.469,5.228-1.956,7.172.067.086.141.163.215.241l-.031.032c-.058-.092-.116-.185-.184-.273-1.513-1.945-4.84-1.886-7.433.13a6.909,6.909,0,0,0-2.59,3.936,6.909,6.909,0,0,0-4.452,1.541c-2.593,2.017-3.469,5.228-1.956,7.172s4.84,1.886,7.433-.13a4.454,4.454,0,0,0,.827,7.547c-.548,1.318-.6,2.43-.044,3.146.879,1.13,3.081,1.03,5.789-.042a3.405,3.405,0,0,0,.471.825c1.512,1.945,4.84,1.886,7.433-.13a6.91,6.91,0,0,0,2.59-3.936,6.91,6.91,0,0,0,4.452-1.541,7.68,7.68,0,0,0,1.56-1.628,7.679,7.679,0,0,0,1.961-1.111A6.46,6.46,0,0,0,532.5,199.4Z" transform="translate(-346.207 -174.436)" fill="#f0f0f0"/>
      <path id="Path_1006" data-name="Path 1006" d="M216.1,333.928l-19.639-25.249a15.725,15.725,0,0,1,2.758-22.068l79.543-61.867a30.032,30.032,0,0,1,16.158-6.254l6.709-.519L359.4,184.134a4.954,4.954,0,0,1,8.415-5.106l16.431,21.126a4.955,4.955,0,0,1-7.047,6.879l-47.254,47.254a29.91,29.91,0,0,1-11.37,19.863l-80.4,62.537a15.725,15.725,0,0,1-22.068-2.759ZM367.031,179.637a3.963,3.963,0,0,0-6.548,4.436l.251.428-58.8,34.44-6.936.537a29.045,29.045,0,0,0-15.626,6.048L199.83,287.393a14.734,14.734,0,0,0-2.585,20.677l19.639,25.249a14.734,14.734,0,0,0,20.677,2.585l80.4-62.537a28.928,28.928,0,0,0,11.017-19.373l.021-.169,48.178-48.178.35.351a3.963,3.963,0,0,0,5.931-5.236Z" transform="translate(-193.155 -175.787)" fill="#3f3d56"/>
      <rect id="Rectangle_398" data-name="Rectangle 398" width="35.685" height="62.449" transform="translate(39.925 85.116) rotate(-37.875)" fill="#3f3d56"/>
      <path id="Path_1007" data-name="Path 1007" d="M275.121,324.67l37.731,48.512,27.385-21.3L302.506,303.37Z" transform="translate(-234.5 -239.467)" fill="#3f3d56"/>
      <circle id="Ellipse_313" data-name="Ellipse 313" cx="2.478" cy="2.478" r="2.478" transform="translate(148.262 36.109)" fill="#fff"/>
      <circle id="Ellipse_314" data-name="Ellipse 314" cx="2.478" cy="2.478" r="2.478" transform="translate(128.701 40.021)" fill="#fff"/>
      <circle id="Ellipse_315" data-name="Ellipse 315" cx="2.478" cy="2.478" r="2.478" transform="translate(129.875 56.062)" fill="#fff"/>
      <circle id="Ellipse_316" data-name="Ellipse 316" cx="2.478" cy="2.478" r="2.478" transform="translate(110.313 59.974)" fill="#fff"/>
      <circle id="Ellipse_317" data-name="Ellipse 317" cx="2.478" cy="2.478" r="2.478" transform="translate(212.154 30.58)" fill="#fff"/>
      <circle id="Ellipse_318" data-name="Ellipse 318" cx="2.478" cy="2.478" r="2.478" transform="translate(221.075 43.961)" fill="#fff"/>
      <circle id="Ellipse_319" data-name="Ellipse 319" cx="2.478" cy="2.478" r="2.478" transform="translate(221.075 66.264)" fill="#fff"/>
      <path id="Path_1008" data-name="Path 1008" d="M379.853,173.478Z" transform="translate(-191.592 -87.498)" fill="#f2f2f2"/>
      <path id="Path_1009" data-name="Path 1009" d="M550.329,347.945c-2.742.086-11.522.661-16.084,4.492-5.449,4.577-5.45,8.924-2.809,12.068s6.922,3.895,12.372-.682c4.62-3.88,6.7-12.6,7.224-15.166Z" transform="translate(-362.91 -261.95)" fill="#f2f2f2"/>
      <path id="Path_1010" data-name="Path 1010" d="M519.263,60.981Z" transform="translate(-261.907 -30.757)" fill="#f2f2f2"/>
      <path id="Path_1011" data-name="Path 1011" d="M713.482,231.842c1.744,2.117,7.568,8.713,13.389,9.979,6.954,1.513,10.394-1.145,11.267-5.157s-1.151-7.859-8.105-9.372c-5.895-1.283-14.064,2.4-16.418,3.558Z" transform="translate(-455.598 -200.96)" fill="#f2f2f2"/>
      <path id="Path_1012" data-name="Path 1012" d="M610.106,191.619Z" transform="translate(-307.726 -96.648)" fill="#f2f2f2"/>
      <path id="Path_1013" data-name="Path 1013" d="M803.439,366.971c.322,2.724,1.653,11.422,5.864,15.636,5.031,5.034,9.361,4.659,12.266,1.756s3.282-7.233-1.748-12.267c-4.264-4.267-13.13-5.585-15.733-5.887Z" transform="translate(-500.97 -271.162)" fill="#f2f2f2"/>
      <path id="Path_1014" data-name="Path 1014" d="M679.162,723.774a.592.592,0,0,1-.595.59H357.755a.59.59,0,1,1,0-1.18H678.568A.592.592,0,0,1,679.162,723.774Z" transform="translate(-275.881 -451.211)" fill="#3f3d56"/>
    </g>
  </g>
</svg>
