<svg xmlns="http://www.w3.org/2000/svg" width="409" height="240.382" viewBox="0 0 409 240.382">
  <g id="party_illustration" transform="translate(-463 -521.846)">
    <circle id="Ellipse_113" data-name="Ellipse 113" cx="1.394" cy="1.394" r="1.394" transform="translate(512.287 563.076)" fill="#c1d3ff"/>
    <circle id="Ellipse_114" data-name="Ellipse 114" cx="2.755" cy="2.755" r="2.755" transform="translate(507.955 634.491)" fill="#c1d3ff"/>
    <circle id="Ellipse_115" data-name="Ellipse 115" cx="1.836" cy="1.836" r="1.836" transform="translate(765.452 521.846)" fill="#ccc"/>
    <circle id="Ellipse_116" data-name="Ellipse 116" cx="2.981" cy="2.981" r="2.981" transform="translate(866.038 634.039)" fill="#c1d3ff"/>
    <circle id="Ellipse_117" data-name="Ellipse 117" cx="1.279" cy="1.279" r="1.279" transform="translate(836.432 561.694)" fill="#c1d3ff"/>
    <circle id="Ellipse_118" data-name="Ellipse 118" cx="1.995" cy="1.995" r="1.995" transform="translate(602.785 539.067)" fill="#ccc"/>
    <circle id="Ellipse_119" data-name="Ellipse 119" cx="1.279" cy="1.279" r="1.279" transform="translate(838.989 615.816)" fill="#c1d3ff"/>
    <circle id="Ellipse_120" data-name="Ellipse 120" cx="1.592" cy="1.592" r="1.592" transform="translate(463 626.209)" fill="#c1d3ff"/>
    <circle id="Ellipse_121" data-name="Ellipse 121" cx="1.724" cy="1.724" r="1.724" transform="translate(487.05 587.864)" fill="#c1d3ff"/>
    <g id="Group_263" data-name="Group 263" transform="translate(529.983 521.846)">
      <path id="Path_390" data-name="Path 390" d="M884.792,419.941c6.23-9.747,3.855-22.394-2.769-26.629s-19.1-1.079-25.33,8.667c-5.767,9.022-3.862,20.713,1.4,25.565a.8.8,0,0,0-.286.1l-1.541.966a.813.813,0,0,0,.009,1.384l3.309,2.016a.813.813,0,0,0,1.234-.627l.152-1.812a.8.8,0,0,0-.011-.189C867.574,432.163,879.013,428.983,884.792,419.941Z" transform="translate(-598.694 -295.086)" fill="#d55438"/>
      <path id="Path_391" data-name="Path 391" d="M910.9,413.1a13.386,13.386,0,0,1-7.979,16.479c-.725.279-.41,1.46.324,1.176a14.645,14.645,0,0,0,8.831-17.98c-.227-.749-1.405-.43-1.177.324Z" transform="translate(-627.972 -307.469)" fill="#fff"/>
      <path id="Path_392" data-name="Path 392" d="M370.156,361.862c6.432-8.607,18.2-10.685,24.054-6.314s7.194,16.249.762,24.857c-5.954,7.967-16.74,10.14-22.681,7.155a.746.746,0,0,1,0,.283l-.335,1.656a.756.756,0,0,1-1.206.446l-2.836-2.216a.756.756,0,0,1,.141-1.278l1.526-.726a.748.748,0,0,1,.168-.053C365.171,380.831,364.189,369.846,370.156,361.862Z" transform="translate(-309.657 -272.454)" fill="#c1d3ff"/>
      <path id="Path_393" data-name="Path 393" d="M393.887,364.711A12.431,12.431,0,0,0,383.476,378.3c.069.726-1.065.721-1.133,0a13.592,13.592,0,0,1,11.243-14.683C394.3,363.5,394.606,364.589,393.887,364.711Z" transform="translate(-319.319 -278.553)" fill="#fff"/>
      <path id="Path_394" data-name="Path 394" d="M736.827,639.428c5.055-7.908,3.128-18.171-2.247-21.607s-15.5-.876-20.553,7.033c-4.679,7.32-3.133,16.807,1.136,20.744a.651.651,0,0,0-.232.084l-1.25.784a.66.66,0,0,0,.007,1.123l2.685,1.636a.66.66,0,0,0,1-.508l.123-1.471a.653.653,0,0,0-.009-.153C722.856,649.344,732.138,646.764,736.827,639.428Z" transform="translate(-514.446 -428.492)" fill="#75d5fd"/>
      <path id="Path_395" data-name="Path 395" d="M526.254,233.949H231.7a4.238,4.238,0,0,0-4.234,4.234V437.774a4.238,4.238,0,0,0,4.234,4.234h294.55a4.238,4.238,0,0,0,4.234-4.234V238.182a4.239,4.239,0,0,0-4.234-4.234Zm3.024,203.826a3.025,3.025,0,0,1-3.024,3.024H231.7a3.025,3.025,0,0,1-3.024-3.024V238.182a3.025,3.025,0,0,1,3.024-3.024h294.55a3.025,3.025,0,0,1,3.024,3.024Z" transform="translate(-227.47 -201.626)" fill="#c1d3ff"/>
      <rect id="Rectangle_238" data-name="Rectangle 238" width="301.807" height="1.21" transform="translate(0.605 49.282)" fill="#c1d3ff"/>
      <circle id="Ellipse_132" data-name="Ellipse 132" cx="3.629" cy="3.629" r="3.629" transform="translate(7.258 37.766)" fill="#d55438"/>
      <circle id="Ellipse_133" data-name="Ellipse 133" cx="3.629" cy="3.629" r="3.629" transform="translate(17.691 37.766)" fill="#ffb74d"/>
      <circle id="Ellipse_134" data-name="Ellipse 134" cx="3.629" cy="3.629" r="3.629" transform="translate(28.124 37.766)" fill="#0abb92"/>
      <circle id="Ellipse_135" data-name="Ellipse 135" cx="12.345" cy="12.345" r="12.345" transform="translate(137.991 87.008)" fill="#2f2e41"/>
      <path id="Path_396" data-name="Path 396" d="M399.194,512.265l-4.485,2.179-10.54-16.26,6.619-3.217Z" transform="translate(-227.927 -293.663)" fill="#a0616a"/>
      <path id="Path_397" data-name="Path 397" d="M6.055,0h9.616V6.055H0A6.054,6.054,0,0,1,6.055,0Z" transform="matrix(0.899, -0.437, 0.437, 0.899, 157.51, 223.703)" fill="#2f2e41"/>
      <path id="Path_398" data-name="Path 398" d="M606.258,642.254a1.872,1.872,0,0,1-.431-.05,1.9,1.9,0,0,1-1.257-1l-12.034-23.852a1.976,1.976,0,0,1,.481-2.383l6.7-5.637a1.852,1.852,0,0,1,1.662-.386,1.892,1.892,0,0,1,1.305,1.152l10.286,25.828a1.957,1.957,0,0,1-.646,2.3l-4.954,3.66a1.874,1.874,0,0,1-1.114.368Z" transform="translate(-443.939 -424.077)" fill="#3b7afd"/>
      <path id="Path_399" data-name="Path 399" d="M367.816,539.852l-4.595,1.936-9.655-16.8,6.781-2.858Z" transform="translate(-209.77 -309.779)" fill="#a0616a"/>
      <path id="Path_400" data-name="Path 400" d="M6.055,0h9.616V6.055H0A6.054,6.054,0,0,1,6.055,0Z" transform="translate(144.037 234.431) rotate(-22.852)" fill="#2f2e41"/>
      <path id="Path_401" data-name="Path 401" d="M575.45,607.257a1.825,1.825,0,0,1-1.59-.928c-1.673-2.963-6.2-11.2-12.118-23.654-7.022-14.783,8.531-31.167,11.72-34.3a1.42,1.42,0,0,0,.42-1.091l-.691-12.433a1.826,1.826,0,0,1,1.534-1.908l18.364-2.979a1.846,1.846,0,0,1,1.714.649c3.1,3.766,4.435,7.817,3.962,12.041-.967,8.625-9.092,15.136-10.016,15.85a1.279,1.279,0,0,0-.108.093l-16.623,15.85a1.416,1.416,0,0,0-.336,1.567l10.284,25.242a1.825,1.825,0,0,1-.623,2.174l-4.819,3.48A1.835,1.835,0,0,1,575.45,607.257Z" transform="translate(-424.724 -377.237)" fill="#3b7afd"/>
      <path id="Path_402" data-name="Path 402" d="M526.608,479.567a1.831,1.831,0,0,1-1.134-.391l-14.818-11.645a4.175,4.175,0,0,1-.422.124,4.474,4.474,0,1,1,3.331-5.378h0a4.315,4.315,0,0,1,.093.59l12.667,9.2,4.843-4.965,4.763,6.236-8.262,5.888A1.827,1.827,0,0,1,526.608,479.567Z" transform="translate(-391.972 -335.045)" fill="#a0616a"/>
      <circle id="Ellipse_136" data-name="Ellipse 136" cx="9.989" cy="9.989" r="9.989" transform="translate(138.85 94.855)" fill="#a0616a"/>
      <path id="Path_403" data-name="Path 403" d="M588.76,487.469a6.568,6.568,0,0,1-2.379-.426,5.306,5.306,0,0,1-2.684-2.31c-3.085-5.383-9.735-22.064-3.542-34.451,4.17-8.341,8.783-10.323,11.919-10.518,2.895-.179,3.455.462,4.423,3.067h0c.536,1.445,1.58,3.509,2.788,5.9,4.336,8.584,10.89,21.555,5.406,28.006C598.77,483.7,593.123,487.469,588.76,487.469Z" transform="translate(-435.205 -323.719)" fill="#75d5fd"/>
      <path id="Path_404" data-name="Path 404" d="M571.831,475.41a1.333,1.333,0,0,1-.809-.274l-7.786-5.942a1.336,1.336,0,0,1-.116-2.024l7.483-7.208A3.249,3.249,0,0,1,576,463.1l-2.877,11.3a1.337,1.337,0,0,1-1.3,1.006Z" transform="translate(-426.367 -335.181)" fill="#75d5fd"/>
      <path id="Path_405" data-name="Path 405" d="M596.18,489.342a4.475,4.475,0,0,1-.743-8.885h0a4.367,4.367,0,0,1,.6-.056l13.215-16.322-4.413-4.755,6.516-4.371,5.37,8.608a1.839,1.839,0,0,1-.188,2.188L600.5,483.684a4.143,4.143,0,0,1,.1.428,4.475,4.475,0,0,1-4.161,5.222C596.353,489.339,596.266,489.342,596.18,489.342Z" transform="translate(-443.577 -332.747)" fill="#a0616a"/>
      <path id="Path_406" data-name="Path 406" d="M614.027,454.637A1.339,1.339,0,0,1,612.89,454l-5.452-8.845a3.26,3.26,0,0,1,.213-3.714h0a3.262,3.262,0,0,1,4.005-.9l10.43,5.215a1.336,1.336,0,0,1,.268,2.212l-7.461,6.345A1.335,1.335,0,0,1,614.027,454.637Z" transform="translate(-452.619 -323.999)" fill="#75d5fd"/>
      <path id="Path_407" data-name="Path 407" d="M567.776,430.391l7.01-4.318-.513-.833-6.6,4.065a1.955,1.955,0,1,0,.1,1.085Z" transform="translate(-427.074 -315.119)" fill="#3f3d56"/>
      <path id="Path_408" data-name="Path 408" d="M581.285,374.329s-4.682,4.6-14.846,6.051S564.26,397.8,564.26,397.8s-2.9-5.808,2.9-10.89S581.285,380.863,581.285,374.329Z" transform="translate(-425.518 -284.914)" fill="#2f2e41"/>
      <path id="Path_409" data-name="Path 409" d="M597.823,366.329s2.9,10.164,7.26,11.616,2.178,16.7-5.082,18.15c0,0,6.171-8.349,2.541-14.883S596.734,369.6,597.823,366.329Z" transform="translate(-447.033 -280.167)" fill="#2f2e41"/>
      <path id="Path_410" data-name="Path 410" d="M596.978,363.671a1.162,1.162,0,0,1-.133-.036l-11.382-3.886a1.119,1.119,0,0,1-.4-1.883l9.121-8.38a1.119,1.119,0,0,1,1.858.621l2.261,12.266a1.119,1.119,0,0,1-1.33,1.3Z" transform="translate(-439.417 -269.999)" fill="#ffb74d"/>
      <path id="Path_411" data-name="Path 411" d="M374.411,200.265l4.675.995-.253-1.375-3.254-.693Z" transform="translate(-222.137 -118.181)" fill="#142243"/>
      <path id="Path_412" data-name="Path 412" d="M370.318,204.028l5.858,1.247.253,1.375-7.28-1.549Z" transform="translate(-219.016 -121.049)" fill="#142243"/>
      <path id="Path_413" data-name="Path 413" d="M597.312,333.111l1.492,4.614a.623.623,0,0,0,.75.426.617.617,0,0,0,.426-.75l-1.492-4.614a.623.623,0,0,0-.75-.426A.616.616,0,0,0,597.312,333.111Z" transform="translate(-446.884 -260.002)" fill="#c1d3ff"/>
      <path id="Path_414" data-name="Path 414" d="M613.041,329.76l-1.421,4.831a.611.611,0,0,0,1.177.324l1.421-4.831A.611.611,0,0,0,613.041,329.76Z" transform="translate(-455.369 -258.216)" fill="#c1d3ff"/>
      <path id="Path_415" data-name="Path 415" d="M622.7,340.988l-3.514,3.607c-.549.563.341,1.4.888.837l3.514-3.607C624.141,341.261,623.251,340.426,622.7,340.988Z" transform="translate(-459.774 -265.022)" fill="#c1d3ff"/>
      <path id="Path_416" data-name="Path 416" d="M758.014,633.874a10.862,10.862,0,0,1-6.474,13.371c-.588.227-.333,1.184.263.955a11.883,11.883,0,0,0,7.165-14.589C758.785,633,757.829,633.262,758.014,633.874Z" transform="translate(-538.202 -438.54)" fill="#fff"/>
      <path id="Path_417" data-name="Path 417" d="M806.792,182.941c6.23-9.747,3.855-22.394-2.769-26.629s-19.1-1.079-25.33,8.667c-5.767,9.022-3.862,20.713,1.4,25.565a.8.8,0,0,0-.286.1l-1.541.966a.813.813,0,0,0,.009,1.384l3.309,2.016a.814.814,0,0,0,1.234-.627l.152-1.812a.8.8,0,0,0-.011-.189C789.574,195.163,801.013,191.983,806.792,182.941Z" transform="translate(-552.417 -154.474)" fill="#0abb92"/>
      <path id="Path_418" data-name="Path 418" d="M832.9,176.1a13.386,13.386,0,0,1-7.979,16.479c-.725.28-.41,1.46.324,1.177a14.645,14.645,0,0,0,8.831-17.98c-.227-.749-1.405-.43-1.177.324Z" transform="translate(-581.695 -166.857)" fill="#fff"/>
      <path id="Path_419" data-name="Path 419" d="M385.529,199.593c-6.924-9.266-19.6-11.5-25.9-6.8s-7.744,17.493-.82,26.76c6.409,8.577,18.021,10.916,24.417,7.7a.8.8,0,0,0,0,.3l.361,1.783a.813.813,0,0,0,1.3.48l3.054-2.386a.813.813,0,0,0-.151-1.376l-1.643-.781a.806.806,0,0,0-.181-.057C390.895,220.015,391.952,208.189,385.529,199.593Z" transform="translate(-302.676 -175.793)" fill="#ffb74d"/>
      <path id="Path_420" data-name="Path 420" d="M393.3,202.66a13.382,13.382,0,0,1,11.208,14.631c-.074.781,1.146.776,1.22,0a14.633,14.633,0,0,0-12.1-15.807C392.86,201.353,392.53,202.529,393.3,202.66Z" transform="translate(-325.597 -182.359)" fill="#fff"/>
      <path id="Path_421" data-name="Path 421" d="M361.981,524.715A19.2,19.2,0,0,1,377,533.609c.455.727,1.048,1.525.733,2.42a1.591,1.591,0,0,1-1.648,1.1,2.085,2.085,0,0,1-.215-4.018c2.1-.9,4.218.488,5.928,1.593,3.9,2.517,8.184,4.794,12.906,5.08,4.369.265,9.054-1.448,11.485-5.237.425-.663-.63-1.275-1.054-.616-2.41,3.758-7.282,5.107-11.519,4.526a22.394,22.394,0,0,1-7.208-2.447c-1.164-.6-2.294-1.274-3.4-1.978a21.689,21.689,0,0,0-3.335-1.912c-1.945-.8-4.519-.737-5.877,1.1a3.349,3.349,0,0,0,1.832,5.055,2.864,2.864,0,0,0,3.355-3.407,8.354,8.354,0,0,0-1.561-2.825,20.418,20.418,0,0,0-15.436-8.552c-.785-.039-.783,1.181,0,1.22Z" transform="translate(-306.926 -373.413)" fill="#0abb92"/>
      <path id="Path_422" data-name="Path 422" d="M749.78,517.317a19.162,19.162,0,0,1-18.153-.061,1.945,1.945,0,0,1-1.232-1.515,1.584,1.584,0,0,1,.834-1.585,2.088,2.088,0,0,1,2.466.8,2.126,2.126,0,0,1-.192,2.544c-1.409,1.913-4.073,1.731-6.181,1.689-4.54-.092-9.313.271-13.38,2.476-3.821,2.072-6.89,5.959-6.975,10.432a.61.61,0,0,0,1.22,0c.084-4.413,3.419-8.051,7.26-9.822a21.836,21.836,0,0,1,7.527-1.771c1.266-.094,2.537-.119,3.807-.1a25.592,25.592,0,0,0,3.8-.081c2.177-.3,4.518-1.7,4.679-4.123a3.336,3.336,0,0,0-4.4-3.206,2.86,2.86,0,0,0-1.234,4.159,5.466,5.466,0,0,0,2.4,1.678,20.382,20.382,0,0,0,18.37-.458C751.084,517.993,750.469,516.939,749.78,517.317Z" transform="translate(-511.954 -367.058)" fill="#d55438"/>
      <path id="Path_423" data-name="Path 423" d="M675.638,327.636a15.039,15.039,0,0,1,9.659,13.18c.166,2.908-.524,6.269-2.693,8.361a4.2,4.2,0,0,1-3.8,1.25,3.212,3.212,0,0,1-2.652-2.374,2.876,2.876,0,0,1,1.7-2.859,4.982,4.982,0,0,1,3.885-.369,14.322,14.322,0,0,1,4.495,2.746,33.19,33.19,0,0,0,4.244,2.992,26.016,26.016,0,0,0,35.191-8.991q.644-1.043,1.181-2.145c.344-.7-.708-1.322-1.053-.616a24.823,24.823,0,0,1-36.24,9.749c-2.84-1.9-5.563-5.173-9.257-5.2-2.72-.017-5.991,2.039-5.294,5.133a4.3,4.3,0,0,0,2.811,2.909,5.116,5.116,0,0,0,4.313-.354c2.88-1.617,4.138-5.208,4.377-8.328a16.437,16.437,0,0,0-8.441-15.363,14.794,14.794,0,0,0-2.1-.9c-.744-.256-1.064.922-.324,1.177Z" transform="translate(-492.931 -256.491)" fill="#c1d3ff"/>
    </g>
  </g>
</svg>
