<svg xmlns="http://www.w3.org/2000/svg" width="444.473" height="287.898" viewBox="0 0 444.473 287.898">
  <g id="settingup_img" transform="translate(-26.117 -110.309)">
    <circle id="Ellipse_378" data-name="Ellipse 378" cx="53.618" cy="53.618" r="53.618" transform="translate(363.355 110.309)" fill="#ff6584"/>
    <path id="Path_5377" data-name="Path 5377" d="M335.954,783.868s.784-16.434,16.862-14.524" transform="translate(-241.103 -397.04)" fill="#0abb92"/>
    <circle id="Ellipse_379" data-name="Ellipse 379" cx="8.047" cy="8.047" r="8.047" transform="translate(82.261 355.095)" fill="#a0ffe6"/>
    <rect id="Rectangle_3003" data-name="Rectangle 3003" width="2.271" height="15.9" transform="translate(88.999 376.693)" fill="#0abb92"/>
    <path id="Path_5378" data-name="Path 5378" d="M838.4,789.19s.784-16.434,16.862-14.524" transform="translate(-478.549 -399.555)" fill="#0abb92"/>
    <circle id="Ellipse_380" data-name="Ellipse 380" cx="8.047" cy="8.047" r="8.047" transform="translate(347.261 357.902)" fill="#a0ffe6"/>
    <rect id="Rectangle_3004" data-name="Rectangle 3004" width="2.271" height="15.9" transform="translate(353.999 379.5)" fill="#0abb92"/>
    <path id="Path_5379" data-name="Path 5379" d="M911.851,794.513s.784-16.434,16.862-14.524" transform="translate(-513.261 -402.071)" fill="#0abb92"/>
    <circle id="Ellipse_381" data-name="Ellipse 381" cx="8.047" cy="8.047" r="8.047" transform="translate(386.001 360.71)" fill="#a0ffe6"/>
    <rect id="Rectangle_3005" data-name="Rectangle 3005" width="2.271" height="15.9" transform="translate(392.738 382.307)" fill="#0abb92"/>
    <path id="Path_5380" data-name="Path 5380" d="M456.243,768.965s.784-16.434,16.862-14.523" transform="translate(-297.949 -389.997)" fill="#0abb92"/>
    <circle id="Ellipse_382" data-name="Ellipse 382" cx="8.047" cy="8.047" r="8.047" transform="translate(145.704 347.235)" fill="#a0ffe6"/>
    <rect id="Rectangle_3006" data-name="Rectangle 3006" width="2.271" height="15.9" transform="translate(152.442 368.832)" fill="#0abb92"/>
    <path id="Path_5381" data-name="Path 5381" d="M229.5,774.287s.784-16.434,16.862-14.523" transform="translate(-190.796 -392.512)" fill="#0abb92"/>
    <circle id="Ellipse_383" data-name="Ellipse 383" cx="8.047" cy="8.047" r="8.047" transform="translate(26.117 350.042)" fill="#a0ffe6"/>
    <rect id="Rectangle_3007" data-name="Rectangle 3007" width="2.271" height="15.9" transform="translate(32.855 371.64)" fill="#0abb92"/>
    <circle id="Ellipse_384" data-name="Ellipse 384" cx="87.672" cy="87.672" r="87.672" transform="translate(145.593 177.874)" fill="#6c63ff"/>
    <path id="Path_5382" data-name="Path 5382" d="M486.588,540.593a23.2,23.2,0,0,1,35.611,0,25.786,25.786,0,1,0-35.611,0Z" transform="translate(-308.518 -268.009)" fill="#fff"/>
    <path id="Path_5383" data-name="Path 5383" d="M618.593,540.593a23.2,23.2,0,0,1,35.611,0,25.786,25.786,0,1,0-35.611,0Z" transform="translate(-370.901 -268.01)" fill="#fff"/>
    <circle id="Ellipse_385" data-name="Ellipse 385" cx="8.87" cy="8.87" r="8.87" transform="translate(178.209 236.282)" fill="#111d38"/>
    <circle id="Ellipse_386" data-name="Ellipse 386" cx="8.87" cy="8.87" r="8.87" transform="translate(247.829 236.282)" fill="#111d38"/>
    <circle id="Ellipse_387" data-name="Ellipse 387" cx="10.314" cy="10.314" r="10.314" transform="translate(159.776 277.15)" fill="#c9cbff"/>
    <circle id="Ellipse_388" data-name="Ellipse 388" cx="10.314" cy="10.314" r="10.314" transform="translate(278.391 277.15)" fill="#c9cbff"/>
    <path id="Path_5384" data-name="Path 5384" d="M428.012,505.926l-7.736,33.522,12.893-12.893Z" transform="translate(-198.614 -239.091)" fill="#c9cbff"/>
    <path id="Path_5385" data-name="Path 5385" d="M484.909,704.135l-8.783-7.371.2,7.371H473.6l-.218-7.794-11.858,7.794h-4.964l16.733-11-.648-23.1-.484-17.442,2.721-.075.491,17.517.648,23.075,13.126,11.019Z" transform="translate(-215.763 -308.37)" fill="#111d38"/>
    <path id="Path_5386" data-name="Path 5386" d="M406.684,704.135l-8.783-7.371.2,7.371h-2.72l-.218-7.794-11.858,7.794h-4.964l16.727-11-.648-23.1L393.94,652.6l2.727-.075.491,17.517.641,23.075,13.126,11.019Z" transform="translate(-178.799 -308.37)" fill="#111d38"/>
    <path id="Path_5387" data-name="Path 5387" d="M575.42,379.374c-2.406,0-4.528,1.869-5.947,4.739-1.251-4.316-3.878-7.317-6.946-7.317a4.667,4.667,0,0,0-.619.1c-1.179-4.608-3.921-7.84-7.116-7.84-4.272,0-7.736,5.772-7.736,12.893s3.463,12.893,7.736,12.893a4.668,4.668,0,0,0,.619-.1c1.179,4.608,3.921,7.84,7.116,7.84,2.406,0,4.528-1.869,5.947-4.739,1.251,4.316,3.878,7.317,6.946,7.317,4.272,0,7.736-5.772,7.736-12.893S579.692,379.374,575.42,379.374Z" transform="translate(-340.865 -207.946)" fill="#6c63ff"/>
    <path id="Path_5388" data-name="Path 5388" d="M0,0H0A25.786,25.786,0,0,1,25.786,25.786V38.679A25.786,25.786,0,0,1,0,64.465H0Z" transform="translate(150.974 298.77) rotate(180)" fill="#c9cbff"/>
    <path id="Path_5389" data-name="Path 5389" d="M598.3,444.248h0a25.786,25.786,0,0,1,25.786,25.786v12.893A25.786,25.786,0,0,1,598.3,508.713h0Z" transform="translate(-282.747 -209.943)" fill="#c9cbff"/>
    <path id="Path_5390" data-name="Path 5390" d="M604.075,472.584h-4.091a94.1,94.1,0,1,0-188.2,0h-4.091a98.19,98.19,0,1,1,196.38,0Z" transform="translate(-275.006 -210.467)" fill="#c9cbff"/>
    <path id="Path_5391" data-name="Path 5391" d="M131.69,368Z" transform="translate(-62.234 -173.908)" fill="#3f3d56"/>
    <path id="Path_5392" data-name="Path 5392" d="M312.369,406.166v0l-1.922-.8-8.11-3.428-2.907-1.229-.223.563h0l-3.9,9.86,10.99,4.651.058.052-.741,1.746a3.089,3.089,0,0,0-.258.5,2.424,2.424,0,0,0,1.387,2.98c.926.367,2.1-.4,2.616-1.707.512-1.292.012-2.933-.891-3.33v0l-1.922-.8-6.575-2.556,3.757-9.486-.557-.22-3.758,9.489-.813-.316,3.773-9.526.1.042,7.729,3.271.058.052-.74,1.746a3.084,3.084,0,0,0-.258.5,2.424,2.424,0,0,0,1.387,2.98c.926.367,2.1-.4,2.616-1.707C313.772,408.2,313.272,406.563,312.369,406.166Z" transform="translate(-221.892 -222.902)" fill="#c9cbff"/>
    <path id="Path_5393" data-name="Path 5393" d="M382.168,444.515c-3.989-2.281-3.191-7.286-3.191-7.286-.1-3.252-2.787-2.791-2.787-2.791l-.978.223a2.968,2.968,0,0,0-1.454-.269l-1.487.25c3.387.8,3.108,3.629,3.108,3.629l.474,3.313L366.98,438,368,435.6a4.29,4.29,0,0,0,.359-.7,3.366,3.366,0,0,0-1.927-4.138c-1.286-.51-2.913.552-3.634,2.372-.711,1.794-.016,4.074,1.238,4.625v0l2.67,1.112.02-.063Zm-4.507-5.821.285,3.171a7.313,7.313,0,0,1-1.332-4.856,3.071,3.071,0,0,0-.594-1.7,3.6,3.6,0,0,1,1.642,3.386Z" transform="translate(-253.654 -237.046)" fill="#c9cbff"/>
    <path id="Path_5394" data-name="Path 5394" d="M255.054,358.2v0l-2.67-1.112-11.157-4.337,2.816-2.505a3.557,3.557,0,0,1,4.861-.8l-.874-1.3s-1.643-2.175-3.942.126c0,0-2.845,4.195-7.315,3.125l15.264,6.46.08.073-1.029,2.425a4.286,4.286,0,0,0-.359.7,3.366,3.366,0,0,0,1.927,4.138c1.286.51,2.913-.552,3.634-2.372C257,361.031,256.307,358.751,255.054,358.2Z" transform="translate(-194.232 -197.625)" fill="#c9cbff"/>
    <path id="Path_5395" data-name="Path 5395" d="M335.131,322.3l-1.029,2.425a4.291,4.291,0,0,0-.359.7,3.366,3.366,0,0,0,1.927,4.138c1.286.51,2.914-.552,3.634-2.371.711-1.794.016-4.074-1.237-4.625v0l-2.67-1.112-9.132-3.55,5.218-13.175-.773-.306-5.22,13.18-1.129-.439,5.24-13.231.138.058,10.735,4.543.08.073-1.029,2.425a4.291,4.291,0,0,0-.359.7,3.366,3.366,0,0,0,1.927,4.138c1.286.509,2.914-.552,3.634-2.372.711-1.794.016-4.074-1.237-4.625v0l-2.67-1.112-10.91-4.612h0l-.354-.15-4.037-1.707-5.733,14.476,15.264,6.46ZM325.211,302.074Z" transform="translate(-233.463 -175.921)" fill="#c9cbff"/>
  </g>
</svg>
