<svg xmlns="http://www.w3.org/2000/svg" width="223.39" height="200.816" viewBox="0 0 223.39 200.816">
  <g id="token_image" transform="translate(-20.631 15.018)">
    <g id="Group_496" data-name="Group 496" transform="translate(161.631 79.982)">
      <path id="Path_918" data-name="Path 918" d="M555.546,396.658a41.406,41.406,0,0,1-9.286-1.056,40.869,40.869,0,0,1-4.631-1.365h0l-.063-.022a41.127,41.127,0,0,1-5.65-2.545c-.467-.251-.939-.52-1.4-.8-.318-.188-.632-.381-.945-.578a41.193,41.193,0,1,1,63.2-34.826h0a41.4,41.4,0,0,1-19.782,35.194c-.708.432-1.437.845-2.23,1.264-1.078.571-2.18,1.09-3.278,1.546l-.2.087c-.38.157-.76.307-1.143.449-.175.068-.358.137-.541.2a41.171,41.171,0,0,1-14,2.446Zm-13.791-3.142.06.02a40.085,40.085,0,0,0,4.6,1.361,40.676,40.676,0,0,0,9.13,1.039h.04a40.454,40.454,0,0,0,13.755-2.4c.178-.064.355-.132.53-.2.3-.113.6-.229.9-.35h0l.225-.1c1.144-.467,2.294-1,3.418-1.6.78-.412,1.5-.819,2.192-1.243a40.671,40.671,0,0,0,19.435-34.577h0a40.47,40.47,0,1,0-62.088,34.215c.307.193.615.383.93.569.455.274.916.537,1.375.784A40.413,40.413,0,0,0,541.755,393.516Z" transform="translate(-514.374 -314.273)" fill="#ffd"/>
      <circle id="Ellipse_300" data-name="Ellipse 300" cx="5.723" cy="5.723" r="5.723" transform="translate(66.992 11.624)" fill="#ffd"/>
      <circle id="Ellipse_302" data-name="Ellipse 302" cx="19.337" cy="19.337" r="19.337" transform="translate(20.494 24.879)" fill="#ffd5e5"/>
      <path id="Path_927" data-name="Path 927" d="M584.748,368.333c-2.257-.532-4.694-1.249-6.3-3.026-1.37-1.513-2.013-3.847-.8-5.641,1.109-1.638,3.3-2.238,5.137-2.546,2.14-.357,4.339-.409,6.347-1.32a6.567,6.567,0,0,0,2.5-1.987,17.089,17.089,0,0,0,1.585-2.727,9.943,9.943,0,0,1,1.663-2.554,5.034,5.034,0,0,1,2.852-1.393c2.422-.368,4.722.751,6.628,2.142a28.784,28.784,0,0,1,4.988,4.733,31.3,31.3,0,0,1,6.676,13.785c.141.683,1.186.394,1.045-.288a32.325,32.325,0,0,0-6.095-13.2,31.263,31.263,0,0,0-5.1-5.223A12.129,12.129,0,0,0,599.063,346a7.022,7.022,0,0,0-3.465.688,6.3,6.3,0,0,0-2.414,2.248c-1.217,1.846-1.8,4.232-3.768,5.48-1.989,1.265-4.48,1.277-6.736,1.629-2.007.313-4.241.974-5.6,2.586a5.342,5.342,0,0,0-.324,6.179c1.247,2.185,3.565,3.377,5.892,4.088.6.183,1.2.337,1.811.48C585.138,369.539,585.427,368.494,584.748,368.333Z" transform="translate(-553.689 -334.529)" fill="#111d38"/>
      <path id="Path_928" data-name="Path 928" d="M622.292,432.772l-.02-.723a5.976,5.976,0,0,0,3.42-.772,2.221,2.221,0,0,0,.861-1.636,1.27,1.27,0,0,0-.417-1.046,2.189,2.189,0,0,0-2.236-.02l-.6.274,1.147-8.379.716.1-.975,7.128a2.551,2.551,0,0,1,2.413.347,1.977,1.977,0,0,1,.672,1.623,2.939,2.939,0,0,1-1.156,2.194A6.651,6.651,0,0,1,622.292,432.772Z" transform="translate(-583.286 -382.099)" fill="#2f2e41"/>
      <rect id="Rectangle_391" data-name="Rectangle 391" width="3.892" height="0.723" transform="translate(45.419 39.084)" fill="#2f2e41"/>
      <rect id="Rectangle_392" data-name="Rectangle 392" width="3.892" height="0.723" transform="translate(33.134 39.084)" fill="#2f2e41"/>
    </g>
    <g id="Group_17425" data-name="Group 17425" transform="translate(20.631 -15.018)">
      <path id="Path_918-2" data-name="Path 918" d="M555.546,396.658a41.406,41.406,0,0,1-9.286-1.056,40.869,40.869,0,0,1-4.631-1.365h0l-.063-.022a41.127,41.127,0,0,1-5.65-2.545c-.467-.251-.939-.52-1.4-.8-.318-.188-.632-.381-.945-.578a41.193,41.193,0,1,1,63.2-34.826h0a41.4,41.4,0,0,1-19.782,35.194c-.708.432-1.437.845-2.23,1.264-1.078.571-2.18,1.09-3.278,1.546l-.2.087c-.38.157-.76.307-1.143.449-.175.068-.358.137-.541.2a41.171,41.171,0,0,1-14,2.446Zm-13.791-3.142.06.02a40.085,40.085,0,0,0,4.6,1.361,40.676,40.676,0,0,0,9.13,1.039h.04a40.454,40.454,0,0,0,13.755-2.4c.178-.064.355-.132.53-.2.3-.113.6-.229.9-.35h0l.225-.1c1.144-.467,2.294-1,3.418-1.6.78-.412,1.5-.819,2.192-1.243a40.671,40.671,0,0,0,19.435-34.577h0a40.47,40.47,0,1,0-62.088,34.215c.307.193.615.383.93.569.455.274.916.537,1.375.784A40.413,40.413,0,0,0,541.755,393.516Z" transform="translate(-514.374 -314.273)" fill="#ffd"/>
      <circle id="Ellipse_300-2" data-name="Ellipse 300" cx="5.723" cy="5.723" r="5.723" transform="translate(66.992 11.624)" fill="#ffd"/>
      <circle id="Ellipse_302-2" data-name="Ellipse 302" cx="19.337" cy="19.337" r="19.337" transform="translate(20.494 24.879)" fill="#a0ffe6"/>
      <path id="Path_927-2" data-name="Path 927" d="M584.748,368.333c-2.257-.532-4.694-1.249-6.3-3.026-1.37-1.513-2.013-3.847-.8-5.641,1.109-1.638,3.3-2.238,5.137-2.546,2.14-.357,4.339-.409,6.347-1.32a6.567,6.567,0,0,0,2.5-1.987,17.089,17.089,0,0,0,1.585-2.727,9.943,9.943,0,0,1,1.663-2.554,5.034,5.034,0,0,1,2.852-1.393c2.422-.368,4.722.751,6.628,2.142a28.784,28.784,0,0,1,4.988,4.733,31.3,31.3,0,0,1,6.676,13.785c.141.683,1.186.394,1.045-.288a32.325,32.325,0,0,0-6.095-13.2,31.263,31.263,0,0,0-5.1-5.223A12.129,12.129,0,0,0,599.063,346a7.022,7.022,0,0,0-3.465.688,6.3,6.3,0,0,0-2.414,2.248c-1.217,1.846-1.8,4.232-3.768,5.48-1.989,1.265-4.48,1.277-6.736,1.629-2.007.313-4.241.974-5.6,2.586a5.342,5.342,0,0,0-.324,6.179c1.247,2.185,3.565,3.377,5.892,4.088.6.183,1.2.337,1.811.48C585.138,369.539,585.427,368.494,584.748,368.333Z" transform="translate(-553.689 -334.529)" fill="#111d38"/>
      <path id="Path_928-2" data-name="Path 928" d="M622.292,432.772l-.02-.723a5.976,5.976,0,0,0,3.42-.772,2.221,2.221,0,0,0,.861-1.636,1.27,1.27,0,0,0-.417-1.046,2.189,2.189,0,0,0-2.236-.02l-.6.274,1.147-8.379.716.1-.975,7.128a2.551,2.551,0,0,1,2.413.347,1.977,1.977,0,0,1,.672,1.623,2.939,2.939,0,0,1-1.156,2.194A6.651,6.651,0,0,1,622.292,432.772Z" transform="translate(-583.286 -382.099)" fill="#2f2e41"/>
      <rect id="Rectangle_391-2" data-name="Rectangle 391" width="3.892" height="0.723" transform="translate(45.419 39.084)" fill="#2f2e41"/>
      <rect id="Rectangle_392-2" data-name="Rectangle 392" width="3.892" height="0.723" transform="translate(33.134 39.084)" fill="#2f2e41"/>
    </g>
    <g id="Group_498" data-name="Group 498" transform="translate(111.688 3.03)">
      <path id="Path_919" data-name="Path 919" d="M349.546,234.658a41.406,41.406,0,0,1-9.286-1.056,40.876,40.876,0,0,1-4.631-1.365h0l-.063-.022a41.133,41.133,0,0,1-5.65-2.545c-.467-.251-.939-.52-1.4-.8-.318-.188-.632-.381-.945-.578a41.193,41.193,0,1,1,63.2-34.826h0a41.4,41.4,0,0,1-19.782,35.194c-.708.432-1.437.845-2.23,1.264-1.078.571-2.18,1.09-3.278,1.546l-.2.087c-.38.157-.76.307-1.143.449-.175.068-.358.137-.541.2a41.171,41.171,0,0,1-14,2.446Zm-13.791-3.142.06.02a40.081,40.081,0,0,0,4.6,1.361,40.679,40.679,0,0,0,9.13,1.039h.04a40.453,40.453,0,0,0,13.755-2.4c.178-.064.355-.132.53-.2.3-.113.6-.229.9-.35h0l.225-.1c1.144-.467,2.294-1,3.418-1.6.78-.412,1.5-.819,2.192-1.243a40.671,40.671,0,0,0,19.436-34.577h0a40.47,40.47,0,1,0-62.088,34.215c.307.193.615.382.93.569.455.274.916.537,1.375.784a40.415,40.415,0,0,0,5.5,2.48Z" transform="translate(-308.374 -152.273)" fill="#ffd"/>
      <circle id="Ellipse_299" data-name="Ellipse 299" cx="5.723" cy="5.723" r="5.723" transform="translate(60.488 4.036)" fill="#ffd"/>
      <circle id="Ellipse_304" data-name="Ellipse 304" cx="19.337" cy="19.337" r="19.337" transform="translate(22.3 24.32)" fill="#c9cbff"/>
      <path id="Path_930" data-name="Path 930" d="M461.4,271.147l-.02-.723a5.976,5.976,0,0,0,3.42-.772,2.221,2.221,0,0,0,.86-1.636,1.27,1.27,0,0,0-.417-1.046,2.187,2.187,0,0,0-2.236-.02l-.6.274,1.147-8.379.716.1-.975,7.128a2.55,2.55,0,0,1,2.413.347,1.977,1.977,0,0,1,.672,1.623,2.938,2.938,0,0,1-1.156,2.194A6.651,6.651,0,0,1,461.4,271.147Z" transform="translate(-406.097 -220.339)" fill="#2f2e41"/>
      <rect id="Rectangle_395" data-name="Rectangle 395" width="3.892" height="0.723" transform="translate(49.433 39.219)" fill="#2f2e41"/>
      <path id="Path_931" data-name="Path 931" d="M379.169,191.5A16.559,16.559,0,0,0,372.211,181a19.912,19.912,0,0,0-11.75-3.592,25.143,25.143,0,0,0-20.431,11.472c-4.827,7.567-4.923,17.449-1.659,25.631a31.73,31.73,0,0,0,3.155,6,58.262,58.262,0,0,0,4.748,5.781c3.076,3.494,6.6,8.353,4.541,13.227a5.488,5.488,0,0,1-4.411,3.567,4.558,4.558,0,0,1-4.4-2.338,3.663,3.663,0,0,1,2.083-4.711,3.618,3.618,0,0,1,4.461,4.692.561.561,0,0,0,.194.742.545.545,0,0,0,.742-.194,4.848,4.848,0,0,0-1.215-5.365,4.291,4.291,0,0,0-5.533-.342,4.659,4.659,0,0,0-1.756,5.529,5.459,5.459,0,0,0,4.421,3.039,5.916,5.916,0,0,0,5.329-2.359,8.646,8.646,0,0,0,1.718-6.24c-.6-5.548-5.035-9.34-8.362-13.4a30.669,30.669,0,0,1-6.095-12.476,28.3,28.3,0,0,1,.117-13.651,23.191,23.191,0,0,1,6.625-11.066,24.527,24.527,0,0,1,10.928-5.855,20.321,20.321,0,0,1,12.173.741,17.062,17.062,0,0,1,9.411,8.884,13.72,13.72,0,0,1,.885,3.077C378.239,192.478,379.284,192.187,379.169,191.5Z" transform="translate(-326.101 -168.323)" fill="#111d38"/>
    </g>
    <path id="Path_932" data-name="Path 932" d="M453.536,212.248a6.074,6.074,0,0,1,6.94-.814,5.574,5.574,0,0,1,2.582,6.287,5.683,5.683,0,0,1-2.208,3.383c-.569.4-.027,1.336.547.936a7.178,7.178,0,0,0,2.635-7.8,6.666,6.666,0,0,0-6.773-4.6,6.82,6.82,0,0,0-4.49,1.848C452.266,211.966,453.033,212.732,453.536,212.248Z" transform="translate(-286.465 -187.541)" fill="#111d38"/>
    <g id="Group_499" data-name="Group 499" transform="translate(26.161 74.406)">
      <path id="Path_920" data-name="Path 920" d="M199.042,493.666a55.98,55.98,0,0,1-12.556-1.428,55.265,55.265,0,0,1-6.262-1.846h0l-.086-.029a55.615,55.615,0,0,1-7.64-3.441c-.631-.339-1.269-.7-1.894-1.08-.43-.254-.854-.515-1.278-.781a55.7,55.7,0,1,1,85.446-47.089h0a55.972,55.972,0,0,1-26.748,47.586c-.957.583-1.943,1.143-3.015,1.709-1.458.772-2.947,1.474-4.432,2.091l-.275.118c-.514.212-1.027.415-1.546.607-.236.092-.484.186-.732.275a55.668,55.668,0,0,1-18.929,3.307ZM180.4,489.417l.082.028a54.175,54.175,0,0,0,6.222,1.84,55,55,0,0,0,12.344,1.4c.018,0,.035,0,.054,0a54.7,54.7,0,0,0,18.6-3.249c.24-.087.481-.178.717-.27.411-.153.815-.31,1.218-.473h0l.3-.129c1.546-.631,3.1-1.359,4.622-2.164,1.055-.558,2.024-1.107,2.964-1.68A54.991,54.991,0,0,0,253.8,437.973h0a54.719,54.719,0,1,0-83.948,46.262c.416.261.832.517,1.258.77.615.371,1.239.727,1.859,1.06a54.646,54.646,0,0,0,7.431,3.353Z" transform="translate(-143.374 -382.273)" fill="#ffd"/>
      <circle id="Ellipse_298" data-name="Ellipse 298" cx="7.738" cy="7.738" r="7.738" transform="translate(78.366 1.06)" fill="#ffd"/>
      <circle id="Ellipse_303" data-name="Ellipse 303" cx="26.146" cy="26.146" r="26.146" transform="translate(28.686 33.639)" fill="#ffd"/>
      <path id="Path_929" data-name="Path 929" d="M253.3,505.1l-.027-.977c1.818-.051,3.42-.165,4.624-1.044a3,3,0,0,0,1.163-2.212,1.717,1.717,0,0,0-.563-1.414,2.959,2.959,0,0,0-3.023-.027l-.808.371,1.55-11.329.968.133-1.319,9.637a3.449,3.449,0,0,1,3.263.469,2.673,2.673,0,0,1,.909,2.195,3.973,3.973,0,0,1-1.563,2.967C256.925,505,254.915,505.058,253.3,505.1Z" transform="translate(-199.583 -436.589)" fill="#2f2e41"/>
      <rect id="Rectangle_393" data-name="Rectangle 393" width="5.262" height="0.977" transform="translate(62.388 52.845)" fill="#2f2e41"/>
      <rect id="Rectangle_394" data-name="Rectangle 394" width="5.262" height="0.977" transform="translate(45.778 52.845)" fill="#2f2e41"/>
      <path id="Path_933" data-name="Path 933" d="M233.56,446.231a9.144,9.144,0,0,0,7.194-5.176,10.6,10.6,0,0,0,.039-9.31,14.9,14.9,0,0,0-7.03-6.941,24.108,24.108,0,0,0-11.509-2.046c-7.387.3-15.526,2.372-20.068,8.671A13.6,13.6,0,0,0,199.6,441.4c.575,3.71,2.832,6.922,5.243,9.691,2.526,2.9,5.442,5.516,7.439,8.841,1.728,2.877,2.657,6.5,1.5,9.764a7.027,7.027,0,0,1-1.209,2.126c-.6.721.434,1.764,1.036,1.036a10.446,10.446,0,0,0,1.845-8.943c-.721-3.437-2.8-6.343-5.074-8.938-4.424-5.051-11.013-10.566-9.154-18.112a14.54,14.54,0,0,1,5.618-8.1,24.224,24.224,0,0,1,10.036-3.964c6.827-1.226,15.1-1.1,20.254,4.222a10.568,10.568,0,0,1,3.224,8.435,8.7,8.7,0,0,1-4.8,6.779,6.381,6.381,0,0,1-2,.522c-.931.087-.94,1.553,0,1.466Z" transform="translate(-172.069 -402.965)" fill="#111d38"/>
    </g>
  </g>
</svg>
