<svg xmlns="http://www.w3.org/2000/svg" xmlns:xlink="http://www.w3.org/1999/xlink" width="529" height="296" viewBox="0 0 529 296">
  <defs>
    <clipPath id="clip-path">
      <path id="Rectangle_396" data-name="Rectangle 396" d="M10,0H519a10,10,0,0,1,10,10V296a0,0,0,0,1,0,0H0a0,0,0,0,1,0,0V10A10,10,0,0,1,10,0Z" fill="#a0ffe6"/>
    </clipPath>
  </defs>
  <g id="NFTdaotreasury" clip-path="url(#clip-path)">
    <g id="Group_495" data-name="Group 495" transform="translate(26.883 18.968)">
      <g id="Group_496" data-name="Group 496" transform="translate(28.692 36.168)">
        <path id="Path_918" data-name="Path 918" d="M588.514,462.627a74.56,74.56,0,0,1-16.722-1.9,73.609,73.609,0,0,1-8.339-2.458h0l-.114-.039a74.062,74.062,0,0,1-10.174-4.582c-.841-.452-1.691-.937-2.523-1.439-.573-.339-1.137-.686-1.7-1.041a74.178,74.178,0,1,1,113.8-62.713h0a74.545,74.545,0,0,1-35.623,63.376c-1.274.777-2.588,1.522-4.016,2.277-1.941,1.028-3.925,1.963-5.9,2.784l-.367.157c-.684.283-1.368.553-2.058.809-.315.122-.645.247-.975.367a74.138,74.138,0,0,1-25.21,4.4Zm-24.834-5.659.109.037a72.172,72.172,0,0,0,8.286,2.45,73.247,73.247,0,0,0,16.44,1.871c.023,0,.048,0,.071,0A72.846,72.846,0,0,0,613.355,457c.32-.116.64-.237.954-.36.548-.2,1.086-.412,1.622-.63h0l.4-.172c2.059-.841,4.13-1.81,6.155-2.882,1.4-.743,2.7-1.475,3.948-2.238a73.238,73.238,0,0,0,35-62.264h0a72.876,72.876,0,1,0-111.8,61.612c.553.348,1.108.689,1.676,1.025.819.494,1.65.968,2.475,1.411A72.772,72.772,0,0,0,563.679,456.969Z" transform="translate(-272.958 -208.839)" fill="#ffd"/>
        <circle id="Ellipse_300" data-name="Ellipse 300" cx="10.305" cy="10.305" r="10.305" transform="translate(362.051 126.365)" fill="#ffd"/>
        <circle id="Ellipse_302" data-name="Ellipse 302" cx="34.822" cy="34.822" r="34.822" transform="translate(278.32 150.234)" fill="#ffb74d"/>
        <path id="Path_927" data-name="Path 927" d="M591.807,386.226c-4.064-.959-8.452-2.248-11.351-5.448-2.468-2.724-3.625-6.928-1.438-10.158,2-2.949,5.935-4.031,9.251-4.584,3.853-.643,7.813-.737,11.429-2.377a11.826,11.826,0,0,0,4.51-3.578,30.767,30.767,0,0,0,2.854-4.911,17.905,17.905,0,0,1,2.994-4.6,9.064,9.064,0,0,1,5.136-2.508c4.362-.663,8.5,1.353,11.936,3.856a51.835,51.835,0,0,1,8.982,8.523,56.368,56.368,0,0,1,12.021,24.823c.254,1.229,2.136.709,1.882-.519a58.208,58.208,0,0,0-10.975-23.764,56.3,56.3,0,0,0-9.179-9.406c-3.537-2.849-7.621-5.332-12.273-5.568a12.646,12.646,0,0,0-6.239,1.239A11.351,11.351,0,0,0,607,351.3c-2.192,3.324-3.249,7.62-6.786,9.869-3.582,2.278-8.067,2.3-12.13,2.934-3.614.564-7.638,1.754-10.084,4.657-2.706,3.21-2.6,7.585-.583,11.126,2.246,3.934,6.419,6.081,10.61,7.361,1.076.329,2.167.606,3.262.864,1.222.288,1.743-1.593.519-1.882Z" transform="translate(-294.463 -219.919)" fill="#2f2e41"/>
        <path id="Path_928" data-name="Path 928" d="M622.308,442.623l-.036-1.3c2.421-.067,4.555-.219,6.159-1.391a4,4,0,0,0,1.55-2.946,2.287,2.287,0,0,0-.75-1.883c-1.065-.9-2.778-.608-4.026-.036l-1.077.494,2.065-15.089,1.289.177-1.756,12.835a4.594,4.594,0,0,1,4.345.625,3.56,3.56,0,0,1,1.21,2.923,5.291,5.291,0,0,1-2.082,3.951C627.138,442.488,624.46,442.563,622.308,442.623Z" transform="translate(-310.653 -245.94)" fill="#2f2e41"/>
        <rect id="Rectangle_391" data-name="Rectangle 391" width="7.008" height="1.301" transform="translate(323.204 175.814)" fill="#2f2e41"/>
        <rect id="Rectangle_392" data-name="Rectangle 392" width="7.008" height="1.301" transform="translate(301.083 175.814)" fill="#2f2e41"/>
      </g>
      <g id="Group_498" data-name="Group 498" transform="translate(72.789 3)">
        <path id="Path_919" data-name="Path 919" d="M382.514,300.628a74.562,74.562,0,0,1-16.722-1.9,73.605,73.605,0,0,1-8.339-2.458h0l-.114-.039a74.065,74.065,0,0,1-10.175-4.583c-.841-.452-1.69-.937-2.523-1.439-.573-.339-1.137-.686-1.7-1.041a74.178,74.178,0,1,1,113.8-62.713h0a74.545,74.545,0,0,1-35.623,63.376c-1.274.777-2.588,1.522-4.016,2.277-1.941,1.028-3.925,1.963-5.9,2.784l-.367.157c-.684.283-1.368.553-2.058.809-.315.122-.645.247-.975.367a74.139,74.139,0,0,1-25.21,4.4Zm-24.834-5.659.109.037a72.172,72.172,0,0,0,8.286,2.45,73.253,73.253,0,0,0,16.44,1.871h.071A72.846,72.846,0,0,0,407.355,295c.32-.116.64-.237.954-.36.548-.2,1.086-.412,1.622-.63h0l.4-.172c2.059-.841,4.13-1.81,6.155-2.882,1.4-.743,2.7-1.475,3.948-2.238a73.238,73.238,0,0,0,35-62.263h0a72.876,72.876,0,1,0-111.8,61.612c.553.348,1.108.689,1.676,1.025.819.494,1.65.968,2.475,1.411a72.775,72.775,0,0,0,9.9,4.466Z" transform="translate(-200.99 -152.244)" fill="#ffd"/>
        <circle id="Ellipse_299" data-name="Ellipse 299" cx="10.305" cy="10.305" r="10.305" transform="translate(216.307 7.297)" fill="#ffd"/>
        <circle id="Ellipse_304" data-name="Ellipse 304" cx="34.822" cy="34.822" r="34.822" transform="translate(147.54 43.823)" fill="#3b7afd"/>
        <path id="Path_930" data-name="Path 930" d="M461.418,281l-.036-1.3c2.421-.067,4.555-.219,6.159-1.391a4,4,0,0,0,1.549-2.946,2.287,2.287,0,0,0-.75-1.883c-1.064-.9-2.777-.609-4.026-.036l-1.077.494,2.065-15.089,1.289.177-1.756,12.835a4.592,4.592,0,0,1,4.345.625,3.56,3.56,0,0,1,1.21,2.923,5.291,5.291,0,0,1-2.082,3.952C466.247,280.863,463.569,280.938,461.418,281Z" transform="translate(-254.444 -189.475)" fill="#2f2e41"/>
        <rect id="Rectangle_395" data-name="Rectangle 395" width="7.008" height="1.301" transform="translate(196.4 70.654)" fill="#2f2e41"/>
        <path id="Path_931" data-name="Path 931" d="M413.633,202.794c-1.3-7.753-6.212-14.418-12.531-18.917a35.856,35.856,0,0,0-21.158-6.469c-14.635.161-28.945,8.358-36.791,20.658-8.693,13.627-8.864,31.421-2.988,46.154a57.142,57.142,0,0,0,5.681,10.808A104.913,104.913,0,0,0,354.4,265.44c5.539,6.291,11.89,15.041,8.178,23.819-1.371,3.242-4.263,6.19-7.944,6.423-3.107.2-6.552-1.29-7.93-4.211-1.543-3.272.594-7.144,3.751-8.483,3.311-1.4,6.753.667,7.976,3.854a6.192,6.192,0,0,1,.058,4.594,1.011,1.011,0,0,0,.35,1.335.982.982,0,0,0,1.335-.35,8.73,8.73,0,0,0-2.188-9.661,7.728,7.728,0,0,0-9.964-.616c-3.094,2.26-4.731,6.306-3.162,9.957a9.83,9.83,0,0,0,7.961,5.473,10.653,10.653,0,0,0,9.6-4.249,15.57,15.57,0,0,0,3.093-11.237c-1.086-9.99-9.067-16.82-15.059-24.131a55.226,55.226,0,0,1-10.976-22.465,50.957,50.957,0,0,1,.21-24.582,41.762,41.762,0,0,1,11.93-19.926,44.168,44.168,0,0,1,19.679-10.544,36.592,36.592,0,0,1,21.92,1.334c7.335,2.91,13.844,8.667,16.946,16a24.71,24.71,0,0,1,1.593,5.541c.207,1.236,2.089.712,1.882-.519Z" transform="translate(-210.687 -161.023)" fill="#2f2e41"/>
      </g>
      <path id="Path_932" data-name="Path 932" d="M454.281,214.346a10.938,10.938,0,0,1,12.5-1.466,10.037,10.037,0,0,1,4.65,11.322,10.234,10.234,0,0,1-3.976,6.091c-1.024.713-.049,2.405.985,1.685a12.926,12.926,0,0,0,4.744-14.051,12,12,0,0,0-12.2-8.29,12.281,12.281,0,0,0-8.085,3.328C451.994,213.839,453.376,215.218,454.281,214.346Z" transform="translate(-174.378 -172.281)" fill="#2f2e41"/>
      <g id="Group_499" data-name="Group 499" transform="translate(26.133 -18.117)">
        <path id="Path_920" data-name="Path 920" d="M243.618,582.862a100.8,100.8,0,0,1-22.609-2.571,99.512,99.512,0,0,1-11.276-3.324h0l-.154-.052a100.148,100.148,0,0,1-13.757-6.2c-1.137-.611-2.286-1.266-3.411-1.945-.774-.458-1.538-.928-2.3-1.407a100.3,100.3,0,1,1,153.867-84.794h0a100.792,100.792,0,0,1-48.166,85.691c-1.723,1.051-3.5,2.058-5.43,3.078-2.625,1.39-5.308,2.655-7.981,3.765l-.5.212c-.925.382-1.85.747-2.783,1.094-.425.165-.872.334-1.318.5a100.244,100.244,0,0,1-34.086,5.955Zm-33.578-7.651.147.05a97.562,97.562,0,0,0,11.2,3.313,99.036,99.036,0,0,0,22.229,2.529c.032,0,.063,0,.1,0a98.5,98.5,0,0,0,33.489-5.85c.433-.156.866-.321,1.29-.486.741-.275,1.468-.557,2.192-.851h0l.547-.232c2.784-1.137,5.584-2.447,8.322-3.9,1.9-1,3.645-1.994,5.338-3.026a99.024,99.024,0,0,0,47.321-84.186h0a98.536,98.536,0,1,0-151.17,83.306c.748.47,1.5.931,2.265,1.386,1.107.668,2.231,1.308,3.347,1.908a98.4,98.4,0,0,0,13.381,6.039Z" transform="translate(-143.346 -232.596)" fill="#ffd"/>
        <circle id="Ellipse_298" data-name="Ellipse 298" cx="13.934" cy="13.934" r="13.934" transform="translate(141.144 151.586)" fill="#ffd"/>
        <circle id="Ellipse_303" data-name="Ellipse 303" cx="47.082" cy="47.082" r="47.082" transform="translate(51.685 210.252)" fill="#ffd"/>
        <path id="Path_929" data-name="Path 929" d="M253.321,518.423l-.049-1.759c3.273-.091,6.159-.3,8.327-1.881a5.409,5.409,0,0,0,2.095-3.984,3.092,3.092,0,0,0-1.014-2.546c-1.44-1.216-3.756-.822-5.444-.048l-1.456.668,2.792-20.4,1.743.239-2.375,17.354a6.21,6.21,0,0,1,5.875.845,4.813,4.813,0,0,1,1.637,3.952,7.154,7.154,0,0,1-2.815,5.343C259.851,518.24,256.23,518.341,253.321,518.423Z" transform="translate(-156.563 -245.368)" fill="#2f2e41"/>
        <rect id="Rectangle_393" data-name="Rectangle 393" width="9.476" height="1.759" transform="translate(112.372 244.838)" fill="#2f2e41"/>
        <rect id="Rectangle_394" data-name="Rectangle 394" width="9.476" height="1.759" transform="translate(82.461 244.838)" fill="#2f2e41"/>
        <path id="Path_933" data-name="Path 933" d="M260.851,465.05a16.466,16.466,0,0,0,12.955-9.321,19.081,19.081,0,0,0,.07-16.766,26.84,26.84,0,0,0-12.659-12.5c-6.418-3.109-13.666-3.969-20.725-3.684-13.3.537-27.959,4.272-36.136,15.615a24.488,24.488,0,0,0-4.655,17.958c1.035,6.68,5.1,12.465,9.441,17.451,4.549,5.226,9.8,9.933,13.4,15.92,3.111,5.18,4.785,11.7,2.7,17.582a12.655,12.655,0,0,1-2.177,3.828c-1.076,1.3.781,3.176,1.866,1.866,3.744-4.518,4.5-10.482,3.322-16.1-1.3-6.189-5.042-11.421-9.137-16.1-7.967-9.1-19.832-19.027-16.483-32.615a26.183,26.183,0,0,1,10.117-14.58c5.325-3.861,11.648-5.985,18.073-7.139,12.294-2.208,27.183-1.977,36.472,7.6,3.861,3.981,6.516,9.544,5.8,15.19a15.661,15.661,0,0,1-8.645,12.208,11.491,11.491,0,0,1-3.6.941c-1.677.156-1.693,2.8,0,2.639Z" transform="translate(-150.094 -237.461)" fill="#2f2e41"/>
      </g>
    </g>
  </g>
</svg>
