<svg xmlns="http://www.w3.org/2000/svg" width="231.983" height="194.56" viewBox="0 0 231.983 194.56">
  <g id="treasury_image" transform="translate(-415.355 -346.99)">
    <path id="Path_5330" data-name="Path 5330" d="M865.122,564.822l1.058-.677.312-.2a10.344,10.344,0,0,1-1.058-20.16l-.053,4.265,2.344-4.641h0a10.35,10.35,0,0,1,10.821,9.858v.587a12.328,12.328,0,0,0,2.042-3.016c.995-2.217,1.011-4.72.937-7.768-.159-6.032-.418-12.112-.757-18.176a10.339,10.339,0,0,1-9.191-9.794,9.217,9.217,0,0,1,0-.937v-.233a5.629,5.629,0,0,1,.1-.894,1.344,1.344,0,0,1,0-.143c.037-.249.09-.492.148-.735a1.263,1.263,0,0,1,.069-.27c.074-.265.153-.529.249-.783.032-.085.063-.164.1-.249.074-.19.154-.376.238-.561.042-.1.085-.2.132-.291l.037-.074h0a10.355,10.355,0,0,1,12.17-5.249l-.069,5.551,2.318-4.582a10.334,10.334,0,0,1,5.164,8.466,10.142,10.142,0,0,1-.228,2.672h0a1.1,1.1,0,0,1-.058.217c-.016.074-.069.275-.106.407s-.1.344-.159.529-.085.254-.132.381-.153.36-.233.529c-.048.1-.09.206-.138.312-.132.265-.275.529-.429.783-.053.09-.116.175-.169.259-.111.169-.222.344-.344.529a2.05,2.05,0,0,1-.233.3c-.079.1-.227.286-.349.423s-.175.19-.265.286-.254.265-.392.392l-.27.254-.471.392-.243.19c-.249.18-.5.349-.762.529l-.148.085a7.464,7.464,0,0,1-.672.365l-.3.132c-.185.085-.376.169-.571.238l-.339.122c-.19.069-.381.127-.577.18l-.349.09c-.212.053-.429.1-.646.132h-.042q.212,3.842.381,7.678a10.339,10.339,0,0,1,14.361-4.492l-1.825,5.016,3.762-3.614a10.313,10.313,0,0,1,3.344,7.143,10.162,10.162,0,0,1-.265,2.852,10.345,10.345,0,0,1-19.049,2.82v.778c.069,2.688.153,6.032-1.185,9a18.278,18.278,0,0,1-3.81,5.143c-.942.958-1.915,1.884-2.91,2.783a10.4,10.4,0,0,1-3.741,3.106q-2.46,1.894-5.09,3.551l-.915.667c-.984.614-1.995,1.238-2.984,1.889l.529-.042a10.35,10.35,0,0,1,10.186,6.736l-6.466,5.291,7.117-1.651a10.366,10.366,0,0,1-14.816,9.323c.164.2.323.4.482.6l.942,1.175c4.233,5.334,5.381,10.392,3.3,14.249l-2.535-1.37c2.027-3.757-1.021-8.561-3.021-11.112-.3-.386-.614-.773-.926-1.159-2.688-3.339-5.736-7.127-5.662-11.773C852.862,572.415,859.661,568.2,865.122,564.822Z" transform="translate(-297.581 -120.086)" fill="#f1f1f1"/>
    <path id="Path_5331" data-name="Path 5331" d="M728.046,524.683l-1.624-1.016c-.159-.1-.312-.2-.466-.3a15.5,15.5,0,0,0,1.587-30.192l.079,6.387-3.508-6.948h-.042a15.5,15.5,0,0,0-16.2,14.763v.878a18.521,18.521,0,0,1-3.064-4.524c-1.487-3.312-1.513-7.064-1.4-11.641.233-9.038.624-18.144,1.132-27.218A15.488,15.488,0,0,0,718.3,450.213v-1.757c-.032-.45-.074-.894-.143-1.333a.449.449,0,0,0-.037-.217c-.063-.37-.143-.735-.233-1.1-.032-.138-.063-.27-.1-.407-.111-.4-.227-.783-.37-1.169-.042-.127-.1-.249-.148-.376-.111-.286-.227-.561-.354-.836-.069-.148-.132-.291-.2-.434a1.074,1.074,0,0,1-.053-.111h0a15.488,15.488,0,0,0-13.1-8.466,15.668,15.668,0,0,0-5.1.614l.1,8.313-3.466-6.879a15.4,15.4,0,0,0-7.408,16.7h0a1.536,1.536,0,0,0,.085.323c.048.206.1.407.153.609s.159.529.243.767.127.381.2.566c.1.275.222.529.344.81.069.159.132.318.206.471.2.4.407.788.64,1.169.079.138.169.265.254.392a7.794,7.794,0,0,0,.529.762c.111.153.233.3.349.444s.344.429.529.635l.392.429q.286.3.587.587l.407.376c.228.2.466.4.709.582.122.1.238.2.365.291.365.27.741.529,1.132.762.074.048.153.085.227.127.328.19.661.376,1,.529l.45.2c.28.127.561.249.852.354.169.069.339.127.529.185.286.1.577.185.868.265l.529.138c.323.074.646.138.968.2h.064q-.328,5.746-.571,11.493a15.488,15.488,0,0,0-21.509-6.72l2.741,7.5-5.635-5.408a15.413,15.413,0,0,0-5.006,10.7,15.213,15.213,0,0,0,.391,4.27,15.488,15.488,0,0,0,28.494,4.233c0,.392,0,.783-.037,1.169-.1,4.027-.233,9.032,1.773,13.5a27.2,27.2,0,0,0,5.709,7.694q2.117,2.159,4.36,4.169a15.509,15.509,0,0,0,5.593,4.656q3.7,2.831,7.63,5.291l1.64,1.016c1.471.915,2.984,1.857,4.466,2.831-.259,0-.529-.053-.783-.063A15.493,15.493,0,0,0,714.3,541.144l9.678,7.879-10.651-2.466a15.514,15.514,0,0,0,22.224,13.959c-.243.3-.482.593-.72.894-.476.593-.952,1.18-1.413,1.762-6.3,7.985-8.053,15.556-4.937,21.335l3.8-2.048c-3.037-5.625,1.529-12.821,4.524-16.609.45-.577.915-1.154,1.386-1.736,4.027-5,8.588-10.673,8.466-17.625C746.4,536.059,736.226,529.768,728.046,524.683Z" transform="translate(-211.646 -87)" fill="#f1f1f1"/>
    <path id="Path_5332" data-name="Path 5332" d="M611.014,725.381s-18.313-4.847-21.763-4.492,5.233-16.583,11.017-14.519,13.5,7.5,17.911-.175,6.879-11.81,12.26-11.4,12.81-3.307,18.181,0,9.138,7.376,16.556,7.2,14.44-16.7,20.223-10.1,12.7,12.667,18.128,10.466,11.641,1.106,16.588,4.826,13.636,2.069,16.932-.825,5.789-4.958,12.816-4.545,29.34,5.371,37.605,11.572-10.747,14.048-19.837,14.048-10.747,2.482-18.6,6.2-20.663-2.069-29.753,4.133-20.663-3.307-36.367,0-12.4,7.852-21.493,4.545-5.783-4.545-19.006-5.371-27.689,2.064-28.933-3.307-9.524-6.614-14.461-8.265S611.014,725.381,611.014,725.381Z" transform="translate(-173.11 -207.709)" fill="#3f3d56"/>
    <path id="Path_5333" data-name="Path 5333" d="M621.581,532.584l-7.09,21.731-.307.947-11.868,36.383L582,605.376,483.33,563.887l9.35-37.812.5-1.99,5.006-20.239.011-.048,30.372-3.8Z" transform="translate(-32.007 -72.048)" fill="#f8ce6d"/>
    <path id="Path_5334" data-name="Path 5334" d="M634.8,532.584l-19.266,59.062-20.319,13.731,18.652-64.453L511.4,503.847l.011-.048,30.372-3.8Z" transform="translate(-45.225 -72.048)" opacity="0.1"/>
    <path id="Path_5335" data-name="Path 5335" d="M551.785,512.514l-1.635-.995,16.392-1.72,70.226,24.827-1.979,1.037-69.279-24.43Z" transform="translate(-63.471 -76.662)" opacity="0.1"/>
    <path id="Path_5336" data-name="Path 5336" d="M622.811,575.749,602.3,585.4,501.5,545.52l-.5,1.99,100.895,39.3L622.5,576.7" transform="translate(-40.328 -93.482)" opacity="0.1"/>
    <ellipse id="Ellipse_366" data-name="Ellipse 366" cx="3.529" cy="3.81" rx="3.529" ry="3.81" transform="translate(465.021 447.185) rotate(-72.75)" fill="#3f3d56"/>
    <ellipse id="Ellipse_367" data-name="Ellipse 367" cx="3.529" cy="3.81" rx="3.529" ry="3.81" transform="translate(553.867 481.586) rotate(-72.75)" fill="#3f3d56"/>
    <ellipse id="Ellipse_368" data-name="Ellipse 368" cx="3.529" cy="3.81" rx="3.529" ry="3.81" transform="translate(539.826 524.311) rotate(-72.75)" fill="#3f3d56"/>
    <ellipse id="Ellipse_369" data-name="Ellipse 369" cx="3.529" cy="3.81" rx="3.529" ry="3.81" transform="translate(454.151 488.464) rotate(-72.75)" fill="#3f3d56"/>
    <path id="Path_5337" data-name="Path 5337" d="M700.353,595.232c-.212.688-1.91,0-4.069-.677s-3.842-1.418-3.63-2.117,2.243-1.058,4.4-.386S700.57,594.544,700.353,595.232Z" transform="translate(-222.161 -161.258)" fill="#3f3d56"/>
    <ellipse id="Ellipse_370" data-name="Ellipse 370" cx="1.302" cy="3.714" rx="1.302" ry="3.714" transform="translate(481.58 430.534) rotate(-72.75)" fill="#3f3d56"/>
    <path id="Path_5338" data-name="Path 5338" d="M786.585,626.988c-.212.688-2.333.053-4.392-.587s-3.662-1.355-3.45-2.042,2.164-1.058,4.233-.439S786.807,626.29,786.585,626.988Z" transform="translate(-262.697 -176.283)" fill="#3f3d56"/>
    <path id="Path_5339" data-name="Path 5339" d="M869.113,656.5c-.238.773-2.492.1-4.677-.577s-3.884-1.455-3.646-2.228,2.328-1.243,4.514-.566S869.357,655.728,869.113,656.5Z" transform="translate(-301.329 -190.033)" fill="#3f3d56"/>
    <path id="Path_5340" data-name="Path 5340" d="M893.373,653c-.243.773-2.492.1-4.677-.577s-3.889-1.455-3.646-2.228,2.328-1.243,4.513-.566S893.611,652.228,893.373,653Z" transform="translate(-312.752 -188.385)" fill="#3f3d56"/>
    <path id="Path_5341" data-name="Path 5341" d="M906.633,646.172c-.243.773-2.117.222-3.9-.339s-3.175-1.238-2.958-2.011,2.021-1.344,3.826-.783S906.871,645.4,906.633,646.172Z" transform="translate(-319.684 -185.329)" fill="#3f3d56"/>
    <path id="Path_5342" data-name="Path 5342" d="M826.362,617.225c-.19.614-2.117.048-3.947-.529s-3.3-1.222-3.1-1.836,1.942-.968,3.794-.4S826.548,616.606,826.362,617.225Z" transform="translate(-281.802 -171.844)" fill="#3f3d56"/>
    <ellipse id="Ellipse_371" data-name="Ellipse 371" cx="1.302" cy="3.207" rx="1.302" ry="3.207" transform="translate(496.853 430.217) rotate(-72.75)" fill="#3f3d56"/>
    <path id="Path_5343" data-name="Path 5343" d="M771.8,657.076a3.344,3.344,0,0,0-1.534-3.894,3.4,3.4,0,0,0,.693-1.233,16.714,16.714,0,0,1-5.637-8.243,8.725,8.725,0,0,1-7.212.727,3.344,3.344,0,0,0-2.136,2.182.958.958,0,0,1-.053.212l-.116.058a3.344,3.344,0,1,0-3.233,5.678,2.987,2.987,0,0,0,.529.116l.042,1.228,16.011,6.545-.106-1.058a3.355,3.355,0,0,0,2.751-2.318Z" transform="translate(-249.276 -185.603)" opacity="0.1"/>
    <path id="Path_5344" data-name="Path 5344" d="M764.487,679.594a3.349,3.349,0,0,1-3.81,1.741,3.271,3.271,0,0,1-.354,1.365,3.344,3.344,0,0,1-4.492,1.487,3.4,3.4,0,0,1-1.233-1.058,3.344,3.344,0,0,1-6.244-2.164,3.4,3.4,0,0,1-1.058-.328,3.344,3.344,0,0,1-1.487-4.487l.106-.2-.042-.122a3.309,3.309,0,0,1-1.392-.355,3.36,3.36,0,0,1,3.037-6,3.493,3.493,0,0,1,.45.27l.878-.852,16.107,6.439-.81.688A3.344,3.344,0,0,1,764.487,679.594Z" transform="translate(-245.706 -197.612)" opacity="0.1"/>
    <path id="Path_5345" data-name="Path 5345" d="M761.737,653.294l-3.889,12.6a3.789,3.789,0,0,0,2.291,4.672h0a3.783,3.783,0,0,0,4.932-2.423l3.889-12.609a3.778,3.778,0,0,0-2.688-4.762h0A3.778,3.778,0,0,0,761.737,653.294Z" transform="translate(-252.787 -189.022)" opacity="0.1"/>
    <path id="Path_5346" data-name="Path 5346" d="M762.392,654.966l-3.529,11.3a3.386,3.386,0,0,0,2.058,4.185h0a3.392,3.392,0,0,0,4.418-2.175l3.508-11.307a3.4,3.4,0,0,0-2.413-4.3h0A3.4,3.4,0,0,0,762.392,654.966Z" transform="translate(-253.272 -189.927)" fill="#3f3d56"/>
    <path id="Path_5347" data-name="Path 5347" d="M658.654,736.313s-18.313-4.847-21.763-4.487,5.233-16.588,11.016-14.519,13.5,7.5,17.911-.18,6.879-11.8,12.26-11.392,12.81-3.307,18.181,0,9.138,7.371,16.557,7.2,14.44-16.7,20.229-10.091,12.7,12.662,18.128,10.466,11.641,1.106,16.583,4.826,13.641,2.064,16.932-.826,5.783-4.963,12.81-4.55,29.34,5.376,37.605,11.572-10.741,14.054-19.837,14.054-10.741,2.476-18.594,6.2-20.668-2.064-29.758,4.133-20.663-3.3-36.367,0-12.4,7.852-21.488,4.55-5.789-4.55-19.012-5.376-27.689,2.069-28.928-3.307-9.5-6.609-14.461-8.265S658.654,736.313,658.654,736.313Z" transform="translate(-195.542 -212.858)" fill="#3f3d56"/>
    <path id="Path_5348" data-name="Path 5348" d="M966.462,684.039c1.587-2.915-.212-6.492-2.265-9.09s-4.561-5.291-4.508-8.619c.079-4.762,5.133-7.572,9.17-10.1a44.444,44.444,0,0,0,8.233-6.619,11.968,11.968,0,0,0,2.529-3.387,13.732,13.732,0,0,0,.762-6.016q-.259-10.191-1.011-20.366" transform="translate(-347.908 -174.511)" fill="none" stroke="#3f3d56" stroke-width="4"/>
    <path id="Path_5349" data-name="Path 5349" d="M998.227,612.838a7.408,7.408,0,0,0-3.7-6.085l-1.661,3.291.053-3.984a7.511,7.511,0,0,0-2.45-.3,7.408,7.408,0,1,0,7.768,7.075Z" transform="translate(-359.084 -167.879)" fill="#57b793"/>
    <path id="Path_5350" data-name="Path 5350" d="M973.919,704.515a7.408,7.408,0,1,1,.36-5.979l-4.64,3.794,5.106-1.18A7.407,7.407,0,0,1,973.919,704.515Z" transform="translate(-348.021 -209.294)" fill="#57b793"/>
    <path id="Path_5351" data-name="Path 5351" d="M972.389,673.668A7.408,7.408,0,0,1,970.04,659.1L970,662.16l1.677-3.328h0a7.408,7.408,0,0,1,7.778,7.069,7.324,7.324,0,0,1-.317,2.535,7.408,7.408,0,0,1-6.752,5.233Z" transform="translate(-350.157 -192.866)" fill="#57b793"/>
    <path id="Path_5352" data-name="Path 5352" d="M1006.676,651.03a7.408,7.408,0,1,1,3.286-13.9l-1.312,3.6,2.7-2.593a7.408,7.408,0,0,1,2.4,5.127,7.3,7.3,0,0,1-.185,2.048,7.408,7.408,0,0,1-6.884,5.72Z" transform="translate(-366.416 -182.224)" fill="#57b793"/>
    <path id="Path_5353" data-name="Path 5353" d="M997.258,618.435c-1.714.185-3.381.72-5.1.826a5.531,5.531,0,0,1-4.693-1.64,22.12,22.12,0,0,1-1.376-2.418,5.291,5.291,0,0,0-1.873-1.762,7.408,7.408,0,1,0,13.884,4.931Q997.681,618.387,997.258,618.435Z" transform="translate(-359.115 -171.497)" opacity="0.1"/>
    <path id="Path_5354" data-name="Path 5354" d="M1006.6,654.793a7.434,7.434,0,0,1-7.064-10.583,5.488,5.488,0,0,1,1.5,1.476,23.417,23.417,0,0,0,1.476,2.455,6.066,6.066,0,0,0,4.921,1.725c1.794-.079,3.524-.593,5.291-.757.249,0,.529-.037.751-.042a7.408,7.408,0,0,1-6.879,5.725Z" transform="translate(-366.339 -185.986)" opacity="0.1"/>
    <path id="Path_5355" data-name="Path 5355" d="M972.524,677.576a7.408,7.408,0,0,1-7.112-10.456A5.991,5.991,0,0,1,967,668.628c.577.815.937,1.757,1.587,2.508a6.9,6.9,0,0,0,5.26,1.841c1.9-.042,3.609-.492,5.434-.635a7.408,7.408,0,0,1-6.757,5.233Z" transform="translate(-350.292 -196.774)" opacity="0.1"/>
    <path id="Path_5356" data-name="Path 5356" d="M973.748,708.739a7.415,7.415,0,1,1-13.535-6.059,7.407,7.407,0,0,1,1.624,1.455,32.309,32.309,0,0,0,1.99,2.646,9.25,9.25,0,0,0,6.154,2.164A31.727,31.727,0,0,0,973.748,708.739Z" transform="translate(-347.849 -213.518)" opacity="0.1"/>
    <path id="Path_5357" data-name="Path 5357" d="M951.32,732s5.863-.18,7.63-1.439,9-2.757,9.456-.741,8.8,10.054,2.191,10.085-15.377-1.027-17.139-2.117S951.32,732,951.32,732Z" transform="translate(-343.967 -225.834)" fill="#656380"/>
    <path id="Path_5358" data-name="Path 5358" d="M970.743,742.013c-6.619.053-15.376-1.058-17.138-2.117-1.344-.82-1.878-3.752-2.058-5.106h-.2s.37,4.73,2.116,5.82,10.519,2.154,17.139,2.116c1.91,0,2.566-.693,2.534-1.7C972.859,741.621,972.15,742,970.743,742.013Z" transform="translate(-343.982 -228.637)" opacity="0.2"/>
  </g>
</svg>
