<svg id="treasury_illustration" xmlns="http://www.w3.org/2000/svg" width="281.608" height="214.559" viewBox="0 0 281.608 214.559">
  <g id="Group_241" data-name="Group 241" transform="translate(5.811 10.368)">
    <circle id="Ellipse_42" data-name="Ellipse 42" cx="19.099" cy="19.099" r="19.099" transform="translate(203.139 30.071)" fill="#d55438"/>
    <path id="Path_233" data-name="Path 233" d="M180.461,152.872c0,50.457-32.307,62.407-77.444,62.407s-58.254-1.19-58.254-51.647S-13.738,25.514,31.4,25.514,180.461,102.414,180.461,152.872Z" transform="translate(5.126 -19.514)" fill="#1e345d"/>
    <path id="Path_234" data-name="Path 234" d="M312.969,270.116H163.134a10.837,10.837,0,0,1-10.825-10.825V146.029A10.837,10.837,0,0,1,163.134,135.2H312.969a10.837,10.837,0,0,1,10.825,10.825V259.292a10.837,10.837,0,0,1-10.825,10.825Zm-149.835-134.1a10.023,10.023,0,0,0-10.012,10.012V259.292A10.023,10.023,0,0,0,163.134,269.3H312.969a10.023,10.023,0,0,0,10.012-10.012V146.029a10.023,10.023,0,0,0-10.012-10.012H163.134Z" transform="translate(-96.228 -90.63)" fill="#c1d3ff"/>
    <g id="Group_239" data-name="Group 239" transform="translate(90.008 163.695)">
      <ellipse id="Ellipse_43" data-name="Ellipse 43" cx="3.071" cy="0.498" rx="3.071" ry="0.498" transform="translate(18.718 7.019) rotate(-1.469)" fill="#e6e6e6"/>
      <ellipse id="Ellipse_44" data-name="Ellipse 44" cx="3.071" cy="0.498" rx="3.071" ry="0.498" transform="translate(38.175 5.398) rotate(-1.469)" fill="#3f3d56"/>
      <ellipse id="Ellipse_45" data-name="Ellipse 45" cx="3.071" cy="0.498" rx="3.071" ry="0.498" transform="translate(10.886 3.668) rotate(-1.469)" fill="#ff6584"/>
      <ellipse id="Ellipse_46" data-name="Ellipse 46" cx="0.448" cy="1.364" rx="0.448" ry="1.364" transform="matrix(0.011, -1, 1, 0.011, 4.76, 3.525)" fill="#e6e6e6"/>
      <ellipse id="Ellipse_47" data-name="Ellipse 47" cx="0.448" cy="1.364" rx="0.448" ry="1.364" transform="matrix(0.011, -1, 1, 0.011, 0, 0.896)" fill="#3f3d56"/>
      <ellipse id="Ellipse_48" data-name="Ellipse 48" cx="0.448" cy="1.364" rx="0.448" ry="1.364" transform="matrix(0.011, -1, 1, 0.011, 25.886, 4.479)" fill="#e6e6e6"/>
      <ellipse id="Ellipse_49" data-name="Ellipse 49" cx="0.448" cy="1.364" rx="0.448" ry="1.364" transform="matrix(0.011, -1, 1, 0.011, 17.064, 6.142)" fill="#ff6584"/>
      <ellipse id="Ellipse_50" data-name="Ellipse 50" cx="0.448" cy="1.364" rx="0.448" ry="1.364" transform="matrix(0.011, -1, 1, 0.011, 31.685, 7.373)" fill="#3f3d56"/>
    </g>
    <g id="Group_240" data-name="Group 240" transform="translate(151.369 162.882)">
      <ellipse id="Ellipse_51" data-name="Ellipse 51" cx="3.071" cy="0.498" rx="3.071" ry="0.498" transform="translate(18.718 7.019) rotate(-1.469)" fill="#e6e6e6"/>
      <ellipse id="Ellipse_52" data-name="Ellipse 52" cx="3.071" cy="0.498" rx="3.071" ry="0.498" transform="translate(38.175 5.399) rotate(-1.469)" fill="#3f3d56"/>
      <ellipse id="Ellipse_53" data-name="Ellipse 53" cx="3.071" cy="0.498" rx="3.071" ry="0.498" transform="translate(10.886 3.668) rotate(-1.469)" fill="#ff6584"/>
      <ellipse id="Ellipse_54" data-name="Ellipse 54" cx="0.448" cy="1.364" rx="0.448" ry="1.364" transform="matrix(0.011, -1, 1, 0.011, 4.76, 3.525)" fill="#e6e6e6"/>
      <ellipse id="Ellipse_55" data-name="Ellipse 55" cx="0.448" cy="1.364" rx="0.448" ry="1.364" transform="matrix(0.011, -1, 1, 0.011, 0, 0.896)" fill="#3f3d56"/>
      <ellipse id="Ellipse_56" data-name="Ellipse 56" cx="0.448" cy="1.364" rx="0.448" ry="1.364" transform="matrix(0.011, -1, 1, 0.011, 25.886, 4.479)" fill="#e6e6e6"/>
      <ellipse id="Ellipse_57" data-name="Ellipse 57" cx="0.448" cy="1.364" rx="0.448" ry="1.364" transform="matrix(0.011, -1, 1, 0.011, 17.064, 6.142)" fill="#ff6584"/>
      <ellipse id="Ellipse_58" data-name="Ellipse 58" cx="0.448" cy="1.364" rx="0.448" ry="1.364" transform="matrix(0.011, -1, 1, 0.011, 31.685, 7.373)" fill="#3f3d56"/>
    </g>
    <path id="Path_235" data-name="Path 235" d="M213.613,329.316a1.141,1.141,0,0,1-.827-1.977l.078-.311-.031-.075a3.064,3.064,0,0,0-5.651.021c-.924,2.226-2.1,4.456-2.391,6.81a9.063,9.063,0,0,0,.159,3.117,36.336,36.336,0,0,1-3.305-15.092,35.075,35.075,0,0,1,.218-3.913q.18-1.6.5-3.172a36.757,36.757,0,0,1,7.289-15.579,9.782,9.782,0,0,0,4.068-4.221,7.462,7.462,0,0,0,.679-2.039,9.209,9.209,0,0,1-.6-3.176c-.276-.419-.77-.627-1.071-1.036-1.5-2.033-3.565-1.678-4.643,1.085-2.3,1.163-2.326,3.091-.912,4.945.9,1.18,1.023,2.776,1.812,4.039-.081.1-.166.2-.247.308a37,37,0,0,0-3.861,6.117,15.379,15.379,0,0,0-.918-7.143c-.879-2.12-2.526-3.906-3.977-5.738a3.157,3.157,0,0,0-5.622,1.55l-.009.081q.323.182.633.387a1.547,1.547,0,0,1-.624,2.816l-.032,0a15.4,15.4,0,0,0,.406,2.3c-1.861,7.2,2.157,9.818,7.893,9.936.127.065.25.13.377.192a37.762,37.762,0,0,0-2.033,9.565A35.815,35.815,0,0,0,201,324.9l-.01-.068a9.464,9.464,0,0,0-3.231-5.465c-2.486-2.042-6-2.794-8.681-4.436a1.776,1.776,0,0,0-2.72,1.728l.011.072a10.4,10.4,0,0,1,1.166.562q.323.182.633.387a1.547,1.547,0,0,1-.624,2.816l-.032,0-.065.01a15.41,15.41,0,0,0,2.835,4.439c1.164,6.282,6.161,6.879,11.507,5.049h0a37.749,37.749,0,0,0,2.536,7.4h9.059c.032-.1.062-.2.091-.305a10.293,10.293,0,0,1-2.507-.149c.672-.825,1.344-1.656,2.016-2.481a.568.568,0,0,0,.042-.049c.341-.422.685-.841,1.026-1.263h0a15.078,15.078,0,0,0-.442-3.841h0Z" transform="translate(-116.428 -180.966)" fill="#0abb92"/>
    <path id="Path_236" data-name="Path 236" d="M471.789,329.316a1.141,1.141,0,0,0,.827-1.977l-.078-.311.031-.075a3.064,3.064,0,0,1,5.651.021c.924,2.226,2.1,4.456,2.391,6.81a9.064,9.064,0,0,1-.159,3.117,36.336,36.336,0,0,0,3.305-15.092,35.067,35.067,0,0,0-.218-3.913q-.18-1.6-.5-3.172a36.758,36.758,0,0,0-7.289-15.579,9.782,9.782,0,0,1-4.068-4.221,7.461,7.461,0,0,1-.679-2.039,9.21,9.21,0,0,0,.6-3.176c.276-.419.77-.627,1.072-1.036,1.5-2.033,3.565-1.678,4.643,1.085,2.3,1.163,2.326,3.091.912,4.945-.9,1.18-1.023,2.776-1.812,4.039.081.1.166.2.247.308a36.993,36.993,0,0,1,3.861,6.117,15.379,15.379,0,0,1,.918-7.143c.879-2.12,2.526-3.906,3.977-5.738a3.157,3.157,0,0,1,5.622,1.55l.009.081q-.323.182-.633.387a1.547,1.547,0,0,0,.624,2.816l.032,0a15.4,15.4,0,0,1-.406,2.3c1.861,7.2-2.157,9.818-7.893,9.936-.127.065-.25.13-.377.192a37.759,37.759,0,0,1,2.033,9.565,35.815,35.815,0,0,1-.026,5.783l.01-.068a9.464,9.464,0,0,1,3.231-5.465c2.486-2.042,6-2.794,8.681-4.436a1.776,1.776,0,0,1,2.72,1.728l-.011.072a10.393,10.393,0,0,0-1.166.562q-.323.182-.633.387a1.547,1.547,0,0,0,.624,2.816l.032,0,.065.01a15.41,15.41,0,0,1-2.835,4.439c-1.164,6.282-6.161,6.879-11.507,5.049h0a37.746,37.746,0,0,1-2.536,7.4h-9.059c-.033-.1-.062-.2-.091-.305a10.293,10.293,0,0,0,2.507-.149c-.672-.825-1.344-1.656-2.016-2.481a.565.565,0,0,1-.042-.049c-.341-.422-.685-.841-1.026-1.263h0a15.076,15.076,0,0,1,.442-3.841h0Z" transform="translate(-285.417 -180.966)" fill="#0abb92"/>
    <path id="Path_237" data-name="Path 237" d="M41.872,409.9a.482.482,0,0,0,.484.484H300.513a.484.484,0,0,0,0-.967H42.355A.482.482,0,0,0,41.872,409.9Z" transform="translate(-30.668 -253.413)" fill="#c1d3ff"/>
  </g>
  <path id="Path_238" data-name="Path 238" d="M70.958,81.064H59.986a2.032,2.032,0,1,1,0-4.064H70.958a2.032,2.032,0,0,1,0,4.064Z" transform="translate(-34.404 -45.71)" fill="#e6e6e6"/>
  <g id="Group_242" data-name="Group 242" transform="translate(205.062 31.198)">
    <circle id="Ellipse_59" data-name="Ellipse 59" cx="2" cy="2" r="2" transform="translate(0.242 0.081)" fill="#c1d3ff"/>
    <ellipse id="Ellipse_60" data-name="Ellipse 60" cx="1.5" cy="2" rx="1.5" ry="2" transform="translate(6.242 0.081)" fill="#c1d3ff"/>
    <circle id="Ellipse_61" data-name="Ellipse 61" cx="2" cy="2" r="2" transform="translate(11.242 0.081)" fill="#c1d3ff"/>
  </g>
  <path id="Path_239" data-name="Path 239" d="M578.529,283.5v90.135a9.231,9.231,0,0,1-9.22,9.22H500.17l.642-.813,76.9-97.51Z" transform="translate(-296.92 -168.297)" fill="#1e345d"/>
  <path id="Path_240" data-name="Path 240" d="M272.388,0H9.22A9.231,9.231,0,0,0,0,9.22V205.338a9.231,9.231,0,0,0,9.22,9.22H272.388a9.231,9.231,0,0,0,9.22-9.22V9.22A9.231,9.231,0,0,0,272.388,0ZM280.8,205.338a8.408,8.408,0,0,1-8.408,8.408H9.22a8.408,8.408,0,0,1-8.408-8.408V64.073A63.26,63.26,0,0,1,64.073.813H272.388A8.408,8.408,0,0,1,280.8,9.22Z" fill="#c1d3ff"/>
  <path id="Path_241" data-name="Path 241" d="M387.488,240.5l-1.242-19.236a3.111,3.111,0,0,0-3.265-2.9h0a3.111,3.111,0,0,0-2.934,3.432l1.9,19.942.645,12.166a2.715,2.715,0,1,0,3.381.842l1.511-14.249Z" transform="translate(-225.601 -129.629)" fill="#ffb6b6"/>
  <path id="Path_242" data-name="Path 242" d="M384.87,235.161h0a.917.917,0,0,0,.1-1.108,1.19,1.19,0,0,1-.167-.707c0-.048.012-11.473.022-11.52a1.8,1.8,0,0,0-.387-1.614,5.678,5.678,0,0,1-1.13-2.785,13.536,13.536,0,0,0-.73-3.173c-.62-1.442-2.022-2.7-3.85-2.007a3.614,3.614,0,0,0-1.823,1.593,9.035,9.035,0,0,0-.747,4.985l-.356-.661a13.815,13.815,0,0,1-.792,5.468c.41-.095.721,11.827.6,12.23a2.416,2.416,0,0,1-.784.967c-.385.364-.742.9-.35,1.416a1.131,1.131,0,0,0,.8.422,21.378,21.378,0,0,0,8.694-.985,2.608,2.608,0,0,0,1.592-1.063c.307-.579-.043-1.493-.7-1.461Z" transform="translate(-222.204 -125.883)" fill="#3b7afd"/>
  <g id="Group_243" data-name="Group 243" transform="translate(126.923 170.209)">
    <path id="Path_243" data-name="Path 243" d="M320.686,429.754l-2.763,1.082-5.582-10.377,4.077-1.6Z" transform="translate(-312.341 -418.862)" fill="#ffb6b6"/>
    <path id="Path_244" data-name="Path 244" d="M315.369,451.3a1.328,1.328,0,0,0,1.719.752l5.492-2.153.178-2.327,1.136,1.811,2.073-.811-3.318-6.753-.738.241-3.012.975-.971.316.775,1.977-3.2,4.748A1.326,1.326,0,0,0,315.369,451.3Z" transform="translate(-314.084 -432.491)" fill="#2f2e41"/>
  </g>
  <g id="Group_244" data-name="Group 244" transform="translate(154.095 195.759)">
    <path id="Path_245" data-name="Path 245" d="M395.495,493.431l-2.966.061-1.653-11.666,4.378-.091Z" transform="translate(-386.133 -481.735)" fill="#ffb6b6"/>
    <path id="Path_246" data-name="Path 246" d="M379.207,513.2a1.328,1.328,0,0,0,1.353,1.3l5.9-.123.971-2.122.44,2.092,2.225-.045-.78-7.484-.775-.029-3.163-.126-1.021-.039.044,2.123-4.643,3.35a1.326,1.326,0,0,0-.549,1.1Z" transform="translate(-379.206 -496.509)" fill="#2f2e41"/>
  </g>
  <path id="Path_247" data-name="Path 247" d="M308.11,272.273l19.508,3.407-.734,3.671s1.224,1.54.734,2.116-1.468-.4-.489.576,1.293,1.242-.176,2.711.9-.878.9-.878.112,2.7.681,3.549c3.936,5.866,2.88,11.112.868,17.884-1.139,3.832,1.209,11.219,1.209,12.568l-.23,9.455s5.139,20.8,2.447,30.589l.38,3.765-6.253.15-7.341-29.365a20.835,20.835,0,0,1-1.187-4.041c-.037-1.1-.037-.119-.037-1.1a18.973,18.973,0,0,0-.245-2.2c0-.245-1.958-24.174-1.958-24.174s-7.181,3.962-7.915,4.7-2.041.062-2.032.813-.674,1.023-1.219,1.625-1.444-.613-.955,1.1-6.5,4.317-7.231,5.051,5.748,6.039,4.936,16.2l-.406,4.064-5.283,2.438L284.8,315.925a7.145,7.145,0,0,1,1.021-7.609l15.95-18.918s1.937-9.294,3.65-10.273l2.692-6.852Z" transform="translate(-168.674 -161.632)" fill="#2f2e41"/>
  <path id="Path_248" data-name="Path 248" d="M352.686,223.923c.171-.732-1.243-5.763-.641-7.542.394-1.165,1.341-2.024,1.329-3.411a2.188,2.188,0,0,0-.017-.279c-.005-.049-.015-.1-.022-.15,1.225-4.362,1.838-12.472,1.838-12.472l-5.861-6.989c0-.03-.009-.06-.012-.09-.12-1.033-.99-.283-1.945-.826-.426-.24-.2-2.2-.7-2.066-.017,0-.032.011-.049.017l-.015-.017-.967-1.04-5.318-.489-1.236,1.686v.012c-1.053.2-1.324.311-1.484,1.478-.029.22-.049.44-.056.663-.036.833-4.39,1.668-4.19,2.46l-1.43.953s-5.372,6.7-3.414,8.654a5.674,5.674,0,0,1,1.292,3.323c.005.045.015.086.023.129-.224.72-.537,1.944-.025,2.208.911.47,2.873,14.145.8,15.121-4.911,2.312,8.264,6.864,13.506,7.141a15.941,15.941,0,0,0,4.838-.418l4.924.416-.406-2.438C356.979,229.654,352.51,224.682,352.686,223.923Z" transform="translate(-194.755 -111.941)" fill="#3b7afd"/>
  <g id="Group_245" data-name="Group 245" transform="translate(109.783 53.074)">
    <path id="Path_249" data-name="Path 249" d="M276.386,152.451l14.359,12.358a3.2,3.2,0,0,0,4.438.627h0a3.2,3.2,0,0,0,.563-4.6l-15.324-12.588-5.074-13.442a2.788,2.788,0,1,0-3.371,1.2l4.41,16.448Z" transform="translate(-270.16 -130.609)" fill="#ffb6b6"/>
    <path id="Path_250" data-name="Path 250" d="M283.912,178.874h0c-.074.42,9.5,8.133,9.889,8.319a1.222,1.222,0,0,1,.544.51,1.123,1.123,0,0,1,.062.134A1.843,1.843,0,0,0,295.653,189a5.83,5.83,0,0,1,2.547,1.742,13.9,13.9,0,0,0,2.425,2.3c1.349.882,3.261,1.16,4.433-.467a3.71,3.71,0,0,0,.656-2.4,9.276,9.276,0,0,0-2.189-4.69l.679.363c-1.142-1.523-3.282-1.912-3.734-3.762-.3.314-.872.025-1-.387s-9.322-8.166-9.224-8.586c.123-.53.127-1.188-.5-1.41a1.161,1.161,0,0,0-.926.094c-2.659,1.423-3.709,2.037-5.571,4.409a2.678,2.678,0,0,0-.76,1.813C282.553,178.689,283.371,179.273,283.912,178.874Z" transform="translate(-277.474 -154.97)" fill="#3b7afd"/>
  </g>
  <circle id="Ellipse_62" data-name="Ellipse 62" cx="8.417" cy="8.417" r="8.417" transform="translate(138.507 60.23)" fill="#ffb6b6"/>
  <path id="Path_251" data-name="Path 251" d="M93.631,182.13H50a2.453,2.453,0,0,0,0,4.906H93.631a2.453,2.453,0,0,0,0-4.906Z" transform="translate(-28.226 -108.12)" fill="#c1d3ff"/>
  <path id="Path_252" data-name="Path 252" d="M74.615,148.286H50a2.453,2.453,0,0,0,0,4.906H74.615a2.453,2.453,0,0,0,0-4.906Z" transform="translate(-28.226 -88.028)" fill="#c1d3ff"/>
  <path id="Path_253" data-name="Path 253" d="M93.631,363.13H50a2.453,2.453,0,1,0,0,4.906H93.631a2.453,2.453,0,1,0,0-4.906Z" transform="translate(-28.226 -215.568)" fill="#c1d3ff"/>
  <path id="Path_254" data-name="Path 254" d="M74.615,329.286H50a2.453,2.453,0,1,0,0,4.906H74.615a2.453,2.453,0,1,0,0-4.906Z" transform="translate(-28.226 -195.477)" fill="#c1d3ff"/>
  <path id="Path_255" data-name="Path 255" d="M623.536,459.687a.922.922,0,0,0,.668-1.6l-.063-.251.025-.06a2.476,2.476,0,0,1,4.568.017,21.99,21.99,0,0,1,1.933,5.5,7.329,7.329,0,0,1-.129,2.52,29.374,29.374,0,0,0,2.672-12.2,28.349,28.349,0,0,0-.176-3.163q-.146-1.291-.4-2.564a29.713,29.713,0,0,0-5.892-12.593,7.907,7.907,0,0,1-3.289-3.412,6.03,6.03,0,0,1-.549-1.648,7.446,7.446,0,0,0,.483-2.567c.223-.339.622-.507.866-.837,1.212-1.643,2.882-1.356,3.753.877,1.862.94,1.88,2.5.737,4-.727.954-.827,2.244-1.464,3.265.066.084.134.165.2.249a29.906,29.906,0,0,1,3.121,4.945,12.432,12.432,0,0,1,.742-5.774,20.823,20.823,0,0,1,3.215-4.639,2.552,2.552,0,0,1,4.545,1.253l.007.065q-.261.147-.511.313a1.251,1.251,0,0,0,.5,2.276l.026,0a12.444,12.444,0,0,1-.328,1.861c1.5,5.817-1.743,7.936-6.38,8.031-.1.052-.2.1-.3.155a30.526,30.526,0,0,1,1.643,7.732,28.948,28.948,0,0,1-.021,4.674l.008-.055a7.649,7.649,0,0,1,2.612-4.417c2.01-1.651,4.849-2.259,7.017-3.586a1.436,1.436,0,0,1,2.2,1.4l-.009.058a8.4,8.4,0,0,0-.942.454q-.261.147-.511.313a1.251,1.251,0,0,0,.5,2.276l.026,0,.052.008a12.457,12.457,0,0,1-2.291,3.588c-.941,5.078-4.98,5.56-9.3,4.081h0a30.517,30.517,0,0,1-2.05,5.984H623.72c-.026-.081-.05-.165-.073-.247a8.322,8.322,0,0,0,2.026-.121c-.543-.667-1.087-1.339-1.63-2.005a.484.484,0,0,1-.034-.039c-.276-.341-.554-.68-.829-1.021h0a12.189,12.189,0,0,1,.357-3.1h0Z" transform="translate(-369.778 -252.764)" fill="#c1d3ff"/>
  <g id="Group_246" data-name="Group 246" transform="translate(136.372 57.325)">
    <path id="Path_256" data-name="Path 256" d="M355.6,150.42c1.177-4.292-11.654-7.973-14.148-4.516a2.72,2.72,0,0,0-2.216-.639,4.585,4.585,0,0,0-1.565.892,6.18,6.18,0,0,0-1.758,1.77,2.1,2.1,0,0,0,.078,2.358c.437.5,1.205,3.179,1.863,3.312.458.093.844.169,1.176.223.3-.431,1.049-.973.995-1.494.446.3.283.815.193,1.347-.3,1.769-7.049,15.464-3.183,11.429a8.1,8.1,0,0,0,1.4.63,17.629,17.629,0,0,0,2.186-4.764l0,.032a3.756,3.756,0,0,0,2.712,3.143c5.8,1.681,10.5-.786,12.111-5.234-.591-1.2-.849-1.07-.8-1.105a1.389,1.389,0,0,1,2.069.659c.094.245.179.454.252.612.841-3.009,1.842-2.575-1.375-8.653Z" transform="translate(-335.594 -143.126)" fill="#2f2e41"/>
    <path id="Path_257" data-name="Path 257" d="M374.035,145.247l-.593-3.03a1.209,1.209,0,0,1,.018-.764.82.82,0,0,1,.857-.375c.33.048.577.349.905.407,1.142.2,2.651-.926,3.06,1.927.171,1.19,2.069,1.315,2.7,2.336a2.738,2.738,0,0,1-.153,3.329,2.61,2.61,0,0,1-2.7.4,5.867,5.867,0,0,1-2.247-1.752,20.232,20.232,0,0,0-1.924-2.137" transform="translate(-358.03 -141.068)" fill="#2f2e41"/>
    <path id="Path_258" data-name="Path 258" d="M378.255,153.547c-2.315-.323-3.894-1.166-4.691-2.5a4.7,4.7,0,0,1-.314-3.759l.489.182a4.239,4.239,0,0,0,.276,3.314c.713,1.192,2.164,1.948,4.312,2.248Z" transform="translate(-357.795 -144.759)" fill="#6c63ff"/>
  </g>
</svg>
