<svg xmlns="http://www.w3.org/2000/svg" width="81.234" height="60.173" viewBox="0 0 81.234 60.173">
  <path id="Icon_metro-coins" data-name="Icon metro-coins" d="M83.206,58.86H46.362a23.713,23.713,0,0,0,2.455-6.017H83.206a3.009,3.009,0,0,1,0,6.017Zm0-9.026H49.4a21.906,21.906,0,0,0,0-6.017H83.206a3.009,3.009,0,0,1,0,6.017Zm0-9.026H48.817a23.823,23.823,0,0,0-2.455-6.017H83.206a3.009,3.009,0,0,1,0,6.017Zm0-9.026H44.31a24.1,24.1,0,0,0-7.128-6.017H83.206a3.009,3.009,0,0,1,0,6.017Zm0-9.026H35.067a3.009,3.009,0,0,1,0-6.017H83.206a3.009,3.009,0,0,1,0,6.017Zm0-9.026H35.067a3.009,3.009,0,0,1,0-6.017H83.206a3.009,3.009,0,0,1,0,6.017Zm-36.1,33.1A21.061,21.061,0,1,1,26.041,25.764,21.063,21.063,0,0,1,47.1,46.825ZM33.5,49.114a6.432,6.432,0,0,0-1.185-1.877,7.755,7.755,0,0,0-1.673-1.372,19.285,19.285,0,0,0-1.917-1.026q-.953-.438-1.917-.854a12.506,12.506,0,0,1-1.682-.863,4.238,4.238,0,0,1-1.185-1.053,2.273,2.273,0,0,1-.442-1.4,2.757,2.757,0,0,1,.2-1.029,2.165,2.165,0,0,1,.6-.833,2.914,2.914,0,0,1,1-.542,4.517,4.517,0,0,1,1.411-.2,6.757,6.757,0,0,1,1.9.25,10.852,10.852,0,0,1,1.522.563q.659.307,1.11.569a1.558,1.558,0,0,0,.659.259.461.461,0,0,0,.328-.111.741.741,0,0,0,.187-.358,3.532,3.532,0,0,0,.093-.62c.018-.253.027-.563.027-.927,0-.325-.006-.6-.018-.815a4.259,4.259,0,0,0-.063-.548,1.708,1.708,0,0,0-.111-.349,1.424,1.424,0,0,0-.256-.316,3,3,0,0,0-.77-.466,8.909,8.909,0,0,0-1.333-.5,11.82,11.82,0,0,0-1.616-.355c-.117-.018-.238-.012-.355-.027V31.2H25.052v3.111a10.848,10.848,0,0,0-1.583.328,7.442,7.442,0,0,0-2.593,1.306,6.311,6.311,0,0,0-1.748,2.2,7.713,7.713,0,0,0-.2,5.683,6.456,6.456,0,0,0,1.176,1.889,7.72,7.72,0,0,0,1.643,1.369,17.022,17.022,0,0,0,1.9,1.026c.653.3,1.285.584,1.9.854a12.628,12.628,0,0,1,1.643.863,4.516,4.516,0,0,1,1.176,1.053,2.282,2.282,0,0,1,.451,1.42,3.159,3.159,0,0,1-.262,1.3,2.637,2.637,0,0,1-.761.978,3.574,3.574,0,0,1-1.209.611,5.577,5.577,0,0,1-1.619.217,8.471,8.471,0,0,1-2.416-.31,11.08,11.08,0,0,1-1.8-.689,11.888,11.888,0,0,1-1.231-.686,1.574,1.574,0,0,0-.743-.31.545.545,0,0,0-.328.1.679.679,0,0,0-.226.349,2.915,2.915,0,0,0-.123.641c-.027.265-.039.59-.039.978a6.665,6.665,0,0,0,.1,1.327,1.386,1.386,0,0,0,.349.7,4.005,4.005,0,0,0,.8.56,8.229,8.229,0,0,0,1.381.6,14.081,14.081,0,0,0,1.907.493,12.682,12.682,0,0,0,2.341.2c.036,0,.069-.006.108-.006v2.9h2.958V58.98c.141-.036.292-.054.43-.093a8.47,8.47,0,0,0,2.858-1.456,6.961,6.961,0,0,0,1.938-2.413,7.521,7.521,0,0,0,.71-3.364,6.569,6.569,0,0,0-.445-2.539ZM44.31,61.868h38.9a3.009,3.009,0,0,1,0,6.017H37.183a24.1,24.1,0,0,0,7.128-6.017Z" transform="translate(-4.981 -7.712)" fill="#c1d3ff"/>
</svg>
