<svg width="15" height="18" viewBox="0 0 15 18" fill="none" xmlns="http://www.w3.org/2000/svg">
<path d="M6.29591 11.7H8.02448V3.6H9.75305L7.1602 0L4.56734 3.6H6.29591V11.7ZM13.2102 6.3H10.6173V8.1H12.3459V16.2H1.97448V8.1H3.70305V6.3H1.1102C0.880974 6.3 0.661139 6.39482 0.499054 6.5636C0.336969 6.73239 0.245911 6.96131 0.245911 7.2V17.1C0.245911 17.3387 0.336969 17.5676 0.499054 17.7364C0.661139 17.9052 0.880974 18 1.1102 18H13.2102C13.4394 18 13.6593 17.9052 13.8213 17.7364C13.9834 17.5676 14.0745 17.3387 14.0745 17.1V7.2C14.0745 6.96131 13.9834 6.73239 13.8213 6.5636C13.6593 6.39482 13.4394 6.3 13.2102 6.3Z" fill="#EFEFEF"/>
</svg>
